<?xml version="1.0" standalone="no"?>
<!DOCTYPE svg PUBLIC "-//W3C//DTD SVG 1.1//EN" "http://www.w3.org/Graphics/SVG/1.1/DTD/svg11.dtd" >
<svg xmlns="http://www.w3.org/2000/svg" xmlns:xlink="http://www.w3.org/1999/xlink" version="1.1">
<metadata>
Created by FontForge 20170731 at Mon Apr 30 16:42:52 2007
 By Aleksey,,,
N/A
</metadata>
<defs>
<font id="Volkswagen-Regular" horiz-adv-x="545" >
  <font-face 
    font-family="Volkswagen-Regular"
    font-weight="500"
    font-stretch="normal"
    units-per-em="1000"
    panose-1="0 0 0 0 0 0 0 0 0 0"
    ascent="778"
    descent="-222"
    x-height="534"
    cap-height="729"
    bbox="-90 -233 966 932"
    underline-thickness="50"
    underline-position="-200"
    unicode-range="U+0020-FB02"
  />
<missing-glyph horiz-adv-x="280" 
 />
    <glyph glyph-name=".notdef" horiz-adv-x="280" 
 />
    <glyph glyph-name=".null" horiz-adv-x="0" 
 />
    <glyph glyph-name="nonmarkingreturn" horiz-adv-x="333" 
 />
    <glyph glyph-name="space" unicode=" " horiz-adv-x="290" 
d="M0 0z" />
    <glyph glyph-name="exclam" unicode="!" horiz-adv-x="210" 
d="M52 38q0 22 15.5 38t37.5 16t37.5 -16t15.5 -38q0 -21 -15.5 -36t-37.5 -15t-37 15t-16 36zM147 246q0 -17 -12.5 -29.5t-29.5 -12.5t-29 12.5t-12 29.5v448q0 18 12 30t30 12q17 0 29 -12.5t12 -30.5v-447z" />
    <glyph glyph-name="quotedbl" unicode="&#x22;" horiz-adv-x="341" 
d="M95 538q-9 -22 -43 -22q-16 0 -26.5 13t-10.5 33q0 8 3 14l65 139q11 22 43 22q17 0 27.5 -13t10.5 -33q0 -8 -3 -14zM238 538q-11 -22 -43 -22q-16 0 -26.5 13t-10.5 33q0 8 3 14l65 139q9 22 43 22q17 0 27.5 -13t10.5 -33q0 -8 -3 -14z" />
    <glyph glyph-name="numbersign" unicode="#" horiz-adv-x="632" 
d="M47 224l11 50h115l36 172h-115l10 50h116l44 210h50l-45 -210h105l44 210h49l-44 -210h115l-10 -50h-115l-37 -172h115l-10 -50h-115l-45 -210h-49l44 210h-104l-45 -210h-49l44 210h-115zM222 274h105l36 172h-104z" />
    <glyph glyph-name="dollar" unicode="$" horiz-adv-x="489" 
d="M221 74l-2 278q-8 4 -18 7q-49 18 -66.5 27t-39.5 27q-58 47 -58 125q0 92 79 150q40 29 103 40v54q0 7 6 12.5t13 5.5q8 0 14 -5.5t6 -13.5v-52q71 -5 115 -27q52 -27 52 -56q0 -16 -12 -28.5t-27 -12.5q-7 0 -9 1q-12 4 -18 7q-1 1 -7.5 4.5t-12.5 6.5q-36 20 -81 29
v-223l43 -14q54 -21 77 -33q43 -24 66.5 -66t23.5 -93q0 -95 -64 -162q-27 -30 -56.5 -44t-89.5 -26v-46q0 -9 -5.5 -15.5t-12.5 -6.5q-8 0 -13.5 6.5t-5.5 16.5v45q-85 5 -138 31q-56 27 -56 59q0 17 11.5 29.5t27.5 12.5q14 0 29 -9l21 -12q11 -7 28 -13q28 -11 39 -13.5
t38 -2.5zM221 443l-2 207q-38 -7 -63.5 -36t-25.5 -66q0 -67 91 -105zM258 341v-265q33 8 48 16.5t37 33.5q35 44 35 91q0 69 -57 99q-20 11 -39 16l-8 3q-9 3 -16 6z" />
    <glyph glyph-name="percent" unicode="%" horiz-adv-x="743" 
d="M39 563q0 75 44.5 124t112.5 49q70 0 112 -47.5t42 -125.5q0 -73 -45.5 -122.5t-112.5 -49.5q-65 0 -109 49.5t-44 122.5zM258 5q-8 -21 -35 -21q-13 0 -20.5 10.5t-7.5 26.5q0 7 2 11l283 685q6 19 36 19q12 0 20.5 -11t8.5 -27q0 -6 -1 -9zM390 152q0 75 44.5 123
t114.5 48q71 0 113 -46.5t42 -126.5q0 -72 -44.5 -119.5t-112.5 -47.5q-69 0 -113 47.5t-44 121.5zM196 680q-40 0 -65 -32t-25 -84q0 -49 25 -82.5t61 -33.5q39 0 64.5 32.5t25.5 82.5q0 54 -23 85.5t-63 31.5zM547 268q-41 0 -65 -30.5t-24 -83.5t24 -84.5t64 -31.5
q41 0 65 29.5t24 78.5q0 122 -88 122z" />
    <glyph glyph-name="ampersand" unicode="&#x26;" horiz-adv-x="682" 
d="M209 443q-18 21 -27 33q-51 62 -51 116q0 65 47 105t123 40q74 0 120 -38.5t46 -99.5t-49 -113q-30 -30 -83 -60l166 -197q29 38 38 59q23 44 38.5 59.5t37.5 15.5q31 0 31 -40q0 -35 -44 -91q-15 -17 -48 -64l97 -116q7 -8 7 -24q0 -41 -37 -41q-23 0 -33 12l-87 103
q-30 -32 -37 -39q-80 -80 -192 -80q-98 0 -163.5 62.5t-65.5 156.5q0 69 40 130q22 34 48 56.5t78 54.5zM258 516q2 -3 11.5 -14t15.5 -20q53 32 69 48q29 29 29 64q0 29 -24.5 49t-60.5 20q-35 0 -58 -18.5t-23 -48.5q0 -32 41 -80zM445 164l-186 221q-47 -28 -69 -47.5
t-38 -48.5q-20 -38 -20 -78q0 -64 41.5 -105t104.5 -41q77 0 131 56q6 7 36 43z" />
    <glyph glyph-name="quotesingle" unicode="'" horiz-adv-x="192" 
d="M90 538q-11 -22 -44 -22q-15 0 -25.5 13.5t-10.5 32.5q0 8 3 14l65 139q9 22 43 22q17 0 27.5 -13t10.5 -33q0 -8 -3 -14z" />
    <glyph glyph-name="parenleft" unicode="(" horiz-adv-x="204" 
d="M51 370q0 144 42 325q14 60 24.5 78t30.5 18q15 0 25.5 -10t10.5 -24q0 -5 -5 -22q-2 -5 -4 -14t-5.5 -25t-6.5 -29q-4 -21 -8 -39.5t-6 -28t-2 -11.5q-21 -110 -21 -218q0 -33 6 -111q6 -59 15 -108q5 -19 16 -79q4 -15 9 -38t7 -30q5 -13 5 -20q0 -15 -10.5 -25
t-25.5 -10q-26 0 -37 33q-25 76 -42.5 188t-17.5 200z" />
    <glyph glyph-name="parenright" unicode=")" horiz-adv-x="204" 
d="M110 44q-16 -71 -28 -84q-9 -11 -26 -11q-14 0 -24.5 10.5t-10.5 23.5v1.5t0.5 2t1 3.5t1 5.5t1.5 8.5l16 68q37 154 37 298q0 108 -21 218q-2 11 -16 79q-7 43 -16 68q-3 15 -3 22q0 14 10.5 24t24.5 10q25 0 37 -32q24 -73 42 -186t18 -194q0 -45 -9 -138
q-5 -68 -15 -113z" />
    <glyph glyph-name="asterisk" unicode="*" horiz-adv-x="387" 
d="M148 557l-96 40q-17 7 -17 34q0 15 11 24t28 9q8 0 16 -6l81 -63l-13 106q0 15 10.5 25.5t25.5 10.5q14 0 24 -10.5t10 -25.5l-13 -106l81 63q8 6 16 6q18 0 28.5 -9t10.5 -24q0 -28 -17 -34l-96 -40l93 -39q19 -10 19 -38q0 -13 -10 -21t-26 -8q-12 0 -18 5l-79 60
l11 -102q0 -15 -10 -26.5t-24 -11.5q-15 0 -25.5 11.5t-10.5 26.5l12 102l-79 -60q-6 -5 -17 -5q-17 0 -27.5 8t-10.5 21q0 29 20 38z" />
    <glyph glyph-name="plus" unicode="+" 
d="M239 310h-174q-14 0 -24 10t-10 24q0 13 10.5 23t24.5 10h174v173q0 14 10 24.5t24 10.5q13 0 23 -10.5t10 -24.5v-173h172q14 0 24.5 -10t10.5 -24t-11 -24t-25 -10h-171v-175q0 -14 -10 -23.5t-25 -9.5q-14 0 -23.5 9.5t-9.5 23.5v176z" />
    <glyph glyph-name="comma" unicode="," horiz-adv-x="186" 
d="M82 -111q-10 -23 -42 -23q-16 0 -27 13t-11 33q0 8 3 14l66 139q11 23 44 23q15 0 26 -14t11 -33q0 -8 -3 -14z" />
    <glyph glyph-name="hyphen" unicode="-" horiz-adv-x="361" 
d="M75 229q-15 0 -25.5 11.5t-10.5 27.5t10.5 27.5t24.5 11.5h209q17 0 28 -11.5t11 -27.5t-11 -27.5t-28 -11.5h-208z" />
    <glyph glyph-name="period" unicode="." horiz-adv-x="179" 
d="M37 39q0 22 15 37.5t37 15.5t38 -16t16 -38q0 -21 -15.5 -36t-37.5 -15t-37.5 15.5t-15.5 36.5z" />
    <glyph glyph-name="slash" unicode="/" horiz-adv-x="406" 
d="M91 11q-10 -25 -39 -25q-11 0 -19 11.5t-8 27.5q0 2 2 12l288 724q10 26 39 26q11 0 19.5 -11.5t8.5 -27.5q0 -5 -3 -11z" />
    <glyph glyph-name="zero" unicode="0" 
d="M37 360q0 169 64 269.5t171 100.5q108 0 172 -100.5t64 -269.5t-64 -269.5t-172 -100.5q-107 0 -171 100.5t-64 269.5zM274 653q-68 0 -106.5 -78t-38.5 -217q0 -134 37.5 -212.5t102.5 -78.5q69 0 107.5 77.5t38.5 214.5t-37.5 215.5t-103.5 78.5z" />
    <glyph glyph-name="one" unicode="1" 
d="M241 642h-92q-16 0 -27.5 11.5t-11.5 27.5t12 28t28 12h136q18 0 30 -13t12 -32v-639q0 -19 -12.5 -32.5t-30.5 -13.5q-17 0 -30.5 13.5t-13.5 31.5v606z" />
    <glyph glyph-name="two" unicode="2" 
d="M183 79h265q17 0 29.5 -11t12.5 -27q0 -17 -11.5 -29t-27.5 -12h-335q-24 0 -38.5 11t-14.5 29q0 14 18 38l145 198q4 5 21 28.5t30 40.5q44 62 70 108q30 56 30 93q0 44 -31 73.5t-77 29.5q-49 0 -84 -32t-42 -83l-7 -46q-1 -15 -12 -24t-26 -9q-43 0 -43 55
q0 94 63.5 157.5t155.5 63.5q81 0 138 -54t57 -130q0 -81 -79 -187l-69 -93l-78 -107z" />
    <glyph glyph-name="three" unicode="3" 
d="M369 387q42 -22 54 -31q30 -22 48.5 -62.5t18.5 -81.5q0 -92 -66.5 -157t-161.5 -65q-89 0 -151 60q-23 23 -39.5 55t-16.5 55q0 18 12.5 30t30.5 12q27 0 39 -33q21 -52 50.5 -74.5t76.5 -22.5q58 0 96 38t38 96q0 54 -32.5 89.5t-86.5 39.5q-28 4 -33 6
q-9 4 -15.5 14.5t-6.5 21.5q0 14 8 24.5t20 12.5l28 5q36 7 58 39.5t22 77.5q0 49 -27.5 82t-68.5 33q-74 0 -94 -83q-2 -6 -3.5 -12t-3 -9.5t-1.5 -5.5q-8 -32 -37 -32q-17 0 -29 14t-12 35q0 70 55 121.5t128 51.5q78 0 130 -53.5t52 -133.5q0 -29 -10 -64
q-10 -28 -24 -46.5t-46 -46.5z" />
    <glyph glyph-name="four" unicode="4" 
d="M351 186h-263h-22l-12 1q-11 2 -19.5 14t-8.5 26q0 12 17 40l252 426q22 37 66 37q33 0 54 -22.5t21 -59.5l2 -384h37q17 0 29.5 -12t12.5 -28t-13.5 -26.5t-32.5 -10.5h-35l1 -151q0 -19 -12 -32t-29 -13q-19 0 -32 13t-13 32v150zM351 652l-218 -388h218v388z" />
    <glyph glyph-name="five" unicode="5" 
d="M203 449q46 16 81 16q86 0 141.5 -62.5t55.5 -158.5q0 -107 -65 -180.5t-162 -73.5q-83 0 -157 50q-52 37 -52 67q0 17 12.5 28.5t30.5 11.5q14 0 34 -18q64 -55 126 -55q61 0 100 48t39 122q0 65 -35.5 104.5t-94.5 39.5q-37 0 -80 -22q-19 -8 -28 -8q-13 0 -21 7
q-16 13 -16 23q0 1 0.5 5t1.5 11l2 14l38 257q4 30 13.5 38t40.5 8h218q19 0 31 -11t12 -28q0 -16 -12 -28t-30 -12h-195z" />
    <glyph glyph-name="six" unicode="6" 
d="M194 436q65 28 97 28q84 0 140.5 -66t56.5 -164q0 -107 -61 -176.5t-155 -69.5q-95 0 -155 70.5t-60 182.5q0 158 109 315q53 73 133 155q21 20 37 20q19 0 31 -11.5t12 -29.5q0 -16 -13 -29l-54 -52q-48 -49 -118 -173zM271 390q-58 0 -91 -41.5t-33 -114.5
q0 -74 33.5 -119t88.5 -45q57 0 93 42.5t36 109.5q0 77 -34.5 122.5t-92.5 45.5z" />
    <glyph glyph-name="seven" unicode="7" 
d="M391 641h-296q-18 0 -30.5 11.5t-12.5 28.5t12 28.5t30 11.5l356 -1q19 0 31 -11t12 -28q0 -11 -4 -19l-280 -646q-13 -25 -46 -25q-15 0 -26 13t-11 32l3 12z" />
    <glyph glyph-name="eight" unicode="8" 
d="M181 404q-7 5 -13.5 10t-13 10.5t-9.5 7.5q-55 50 -55 127q0 75 52 125t130 50q79 0 131 -50t52 -125q0 -40 -16 -75q-12 -24 -27 -40t-48 -40q31 -12 54 -27q32 -22 51.5 -66.5t19.5 -95.5q0 -97 -61.5 -162t-153.5 -65q-95 0 -156.5 64t-61.5 164q0 50 20 95
q16 37 37 55.5t68 37.5zM272 662q-44 -1 -72 -32t-28 -79q0 -45 29 -77.5t70 -32.5q43 0 72.5 32t29.5 78q0 48 -28.5 79.5t-72.5 31.5zM272 363q-56 -1 -90 -39.5t-34 -102.5q0 -65 35 -108.5t87 -43.5q55 0 91 42.5t36 105.5q0 67 -34 106.5t-91 39.5z" />
    <glyph glyph-name="nine" unicode="9" 
d="M351 282q-65 -28 -97 -28q-85 0 -141 65.5t-56 165.5q0 107 61 176.5t154 69.5q95 0 155.5 -70.5t60.5 -182.5q0 -158 -110 -316q-52 -75 -133 -154q-20 -21 -36 -21q-19 0 -31.5 11.5t-12.5 29.5q0 13 11 27l53 54q38 39 62 73.5t60 99.5zM275 649q-59 0 -93.5 -43
t-34.5 -116t35 -117t92 -44q56 0 90 40.5t34 107.5q0 81 -32.5 126.5t-90.5 45.5z" />
    <glyph glyph-name="colon" unicode=":" horiz-adv-x="199" 
d="M52 39q0 22 15.5 37.5t36.5 15.5q22 0 38 -16t16 -38q0 -21 -15.5 -36t-37.5 -15t-37.5 15.5t-15.5 36.5zM52 378q0 22 15.5 37t38.5 15q22 0 37.5 -15t15.5 -37t-15.5 -37.5t-37.5 -15.5t-38 15.5t-16 37.5z" />
    <glyph glyph-name="semicolon" unicode=";" horiz-adv-x="214" 
d="M67 382q0 22 16 37t39 15q21 0 36.5 -15t15.5 -37t-15.5 -37.5t-36.5 -15.5q-23 0 -39 15.5t-16 37.5zM96 -111q-10 -23 -42 -23q-16 0 -27 13t-11 33q0 8 3 14l65 139q13 23 44 23q16 0 26.5 -13.5t10.5 -33.5q0 -8 -3 -14z" />
    <glyph glyph-name="less" unicode="&#x3c;" horiz-adv-x="252" 
d="M116 266l87 -143q10 -13 10 -27t-11 -24.5t-26 -10.5q-22 0 -37 24l-85 149q-15 26 -15 34t12 28l90 153q12 22 36 22q16 0 25.5 -9.5t9.5 -24.5q0 -17 -8 -28z" />
    <glyph glyph-name="equal" unicode="=" 
d="M64 372q-15 0 -25 10t-10 24t10.5 23.5t24.5 9.5h416q14 0 24 -10t10 -23q0 -14 -10 -24t-24 -10h-416zM64 248q-14 0 -24 9.5t-10 22.5q0 14 10 24t25 10h415q14 0 24.5 -10t10.5 -23t-10.5 -23t-24.5 -10h-416z" />
    <glyph glyph-name="greater" unicode="&#x3e;" horiz-adv-x="252" 
d="M136 265l-87 143q-10 13 -10 28q0 14 11 24t26 10q22 0 36 -25l86 -147q15 -27 15 -35q0 -9 -12 -28l-89 -152q-14 -24 -37 -24q-16 0 -25.5 10t-9.5 25q0 17 8 28z" />
    <glyph glyph-name="question" unicode="?" horiz-adv-x="465" 
d="M163 36q0 23 15 38.5t37 15.5t38 -16t16 -38q0 -20 -15.5 -35t-37.5 -15t-37.5 14.5t-15.5 35.5zM256 355v-111q0 -17 -11.5 -28.5t-28.5 -11.5q-18 0 -30.5 11.5t-12.5 28.5v130q0 31 9 41t45 15q51 10 71 29q37 32 37 90q0 47 -32.5 76t-84.5 29q-48 0 -79 -23
q-11 -8 -21 -23q-8 -12 -16 -37q-11 -30 -38 -30q-18 0 -30 12.5t-12 32.5q0 61 58 105.5t137 44.5q94 0 153 -52.5t59 -135.5q0 -87 -60 -142q-25 -22 -47.5 -32.5t-65.5 -18.5z" />
    <glyph glyph-name="at" unicode="@" horiz-adv-x="841" 
d="M454 230q-5 -18 -20 -36q-55 -64 -131 -30q-84 38 -77 178q2 24 4 35q15 95 67 155q52 59 110 58t85 -53q1 -1 2.5 -5t2.5 -5l9 57l49 -1l-38 -215l-14 -87q-6 -38 2 -62q5 -18 21.5 -26.5t34.5 -1.5q24 8 57 46q39 48 52 134q22 150 -66 241.5t-229 70.5
q-119 -18 -194 -121t-62 -242q3 -32 10 -56q19 -77 66.5 -132.5t108.5 -80.5t133 -19t138 47q24 14 49 36q32 27 54 57l20 -36q-16 -20 -25 -29q-114 -119 -266 -121q-156 0 -258 114.5t-91 284.5q7 114 71 201q96 129 246 147q167 19 270 -91.5t75 -280.5
q-16 -93 -62.5 -150t-101.5 -65q-46 -7 -76 19t-26 65zM284 291q1 -37 13 -62q14 -30 46.5 -35.5t56.5 18.5q25 24 47 86q9 27 18 75l2 10l7 42q4 35 1 59q-6 36 -34 52.5t-58 3.5q-27 -11 -45 -35.5t-35 -75.5q-6 -19 -13 -49q-8 -50 -6 -89z" />
    <glyph glyph-name="A" unicode="A" horiz-adv-x="618" 
d="M143 155l-51 -134q-12 -31 -41 -31q-18 0 -29 11.5t-11 28.5q0 13 4 25l230 620q10 30 24 41.5t37 11.5q28 0 42 -11t26 -42l229 -620q5 -15 5 -26q0 -17 -11.5 -28t-28.5 -11q-30 0 -42 31l-50 134h-333zM309 625l-141 -394h283z" />
    <glyph glyph-name="B" unicode="B" horiz-adv-x="546" 
d="M361 389q39 -5 59.5 -14t42.5 -30q55 -55 55 -132q0 -91 -62 -152t-155 -61h-190q-22 0 -34.5 11.5t-12.5 31.5v636q0 20 12 31t34 11h153q86 0 142.5 -53t56.5 -133q0 -30 -14 -67q-13 -28 -31 -44.5t-56 -34.5zM151 642v-227h89q55 0 94 33.5t39 80.5t-35.5 80
t-85.5 33h-101zM150 345v-268h138q58 0 99.5 39t41.5 94q0 56 -41 95.5t-99 39.5h-139z" />
    <glyph glyph-name="C" unicode="C" horiz-adv-x="609" 
d="M511 123q16 12 30 12q17 0 28.5 -12t11.5 -30q0 -23 -27 -44q-76 -59 -193 -59q-144 0 -234 101.5t-90 264.5q0 167 88 271.5t230 104.5q83 0 150 -38q60 -35 60 -72q0 -16 -11.5 -28t-25.5 -12q-16 0 -34 14q-29 21 -30 22q-48 33 -112 33q-98 0 -161 -81.5t-63 -210.5
q0 -130 64 -209t169 -79q74 0 121 33z" />
    <glyph glyph-name="D" unicode="D" horiz-adv-x="642" 
d="M111 0q-22 0 -34.5 11.5t-12.5 30.5l1 637q0 17 12.5 29.5t30.5 12.5h187q137 0 223.5 -100.5t86.5 -258.5q0 -164 -86 -263t-228 -99h-180zM150 643v-565h136q104 0 165 77t61 208q0 125 -62 202.5t-161 77.5h-139z" />
    <glyph glyph-name="E" unicode="E" horiz-adv-x="448" 
d="M151 79h220q16 0 28 -11.5t12 -27.5q0 -17 -11.5 -28.5t-28.5 -11.5h-263q-20 0 -32 13t-12 35v628q0 20 13 32.5t32 12.5h252q17 0 28.5 -11.5t11.5 -28.5t-12 -28.5t-29 -11.5h-208v-241h197q17 0 29 -11.5t12 -27.5q0 -17 -11.5 -29t-28.5 -12h-199v-241z" />
    <glyph glyph-name="F" unicode="F" horiz-adv-x="412" 
d="M151 320v-285q0 -18 -12.5 -31t-29.5 -13q-19 0 -32 13t-13 31v641q0 20 13.5 32.5t34.5 12.5h258q16 0 28 -12t12 -28t-12 -28t-29 -12h-217v-243h192q16 0 28 -11.5t12 -27.5t-12 -27.5t-29 -11.5h-192z" />
    <glyph glyph-name="G" unicode="G" horiz-adv-x="689" 
d="M571 332h-127q-17 0 -29 12t-12 28t12.5 27.5t29.5 11.5h145q38 0 53 -16.5t15 -57.5q0 -164 -78 -255.5t-218 -91.5q-146 0 -235.5 100.5t-89.5 263.5q0 167 90.5 272t235.5 105q103 0 188 -52q60 -37 60 -68q0 -17 -12.5 -29t-29.5 -12q-15 0 -41 20q-83 63 -165 63
q-106 0 -170 -81t-64 -215q0 -131 63.5 -210t169.5 -79q111 0 168 87q20 31 28.5 68t12.5 109z" />
    <glyph glyph-name="H" unicode="H" horiz-adv-x="684" 
d="M150 332v-298q0 -18 -12 -30.5t-30 -12.5q-19 0 -31.5 12.5t-12.5 30.5v650q0 19 12.5 32t31.5 13q17 0 29.5 -13.5t12.5 -31.5v-276h384v276q0 18 12 31.5t30 13.5t31.5 -13t13.5 -32v-650q0 -18 -13.5 -30.5t-31.5 -12.5t-30 12.5t-12 30.5v298h-384z" />
    <glyph glyph-name="I" unicode="I" horiz-adv-x="214" 
d="M150 34q0 -18 -12.5 -31t-29.5 -13q-19 0 -31.5 13t-12.5 31v650q0 18 13 31.5t31 13.5q17 0 29.5 -13.5t12.5 -31.5v-650z" />
    <glyph glyph-name="J" unicode="J" horiz-adv-x="368" 
d="M71 83q31 -20 60 -20q22 0 41 12q25 13 34.5 34.5t9.5 62.5v514q0 18 14 31t33 13q16 0 28 -13t12 -31v-504q0 -92 -44.5 -142t-124.5 -50q-58 0 -111 31q-41 23 -41 50q0 16 10 27t24 11q18 0 30 -8z" />
    <glyph glyph-name="K" unicode="K" horiz-adv-x="569" 
d="M150 346v-311q0 -18 -12 -31t-29 -13q-19 0 -32 13t-13 31v651q0 18 12 31t30 13t31 -13t13 -31v-270l320 294q18 18 35 18t29 -13t12 -30q0 -18 -13 -30l-303 -273l327 -318q15 -17 15 -34q0 -16 -12 -28t-29 -12q-18 0 -36 16z" />
    <glyph glyph-name="L" unicode="L" horiz-adv-x="382" 
d="M150 80h188q19 0 32.5 -11.5t13.5 -27.5q0 -17 -12.5 -29t-29.5 -12h-227q-22 0 -36.5 14.5t-14.5 36.5v633q0 19 12.5 32.5t31.5 13.5q18 0 30 -13.5t12 -31.5v-605z" />
    <glyph glyph-name="M" unicode="M" horiz-adv-x="856" 
d="M210 618l-87 -586q-6 -41 -45 -41q-19 0 -30.5 11.5t-11.5 31.5q0 8 1 12l105 629q4 23 22.5 38.5t43.5 15.5q50 0 64 -51l156 -536l156 536q15 51 65 51q24 0 42.5 -15.5t23.5 -38.5l104 -629q2 -4 2 -12q0 -19 -12 -31t-31 -12q-39 0 -45 41l-87 586l-176 -594
q-9 -35 -42 -35q-32 0 -43 35z" />
    <glyph glyph-name="N" unicode="N" horiz-adv-x="680" 
d="M150 572v-536q0 -18 -12 -31t-30 -13q-19 0 -31.5 13t-12.5 31v650q0 18 13 31t32 13q23 0 35 -20l387 -562v536q0 19 12 32.5t30 13.5t30.5 -13t12.5 -32v-653q0 -17 -12.5 -29.5t-31.5 -12.5q-21 0 -35 19z" />
    <glyph glyph-name="O" unicode="O" horiz-adv-x="702" 
d="M37 361q0 162 87.5 265.5t226.5 103.5q138 0 226 -103.5t88 -266.5q0 -162 -88 -266t-226 -104q-139 0 -226.5 104t-87.5 267zM351 653q-101 0 -160.5 -79.5t-59.5 -213.5t59.5 -213.5t160.5 -79.5t160.5 79.5t59.5 213.5t-59.5 213.5t-160.5 79.5z" />
    <glyph glyph-name="P" unicode="P" horiz-adv-x="537" 
d="M150 270v-235q0 -18 -12 -31t-30 -13t-31 13t-13 32v639q0 46 53 46h169q101 0 167.5 -64.5t66.5 -161.5t-65.5 -161t-166.5 -64h-138zM152 643v-295h131q61 0 104.5 43t43.5 103q0 62 -43.5 105.5t-104.5 43.5h-131z" />
    <glyph glyph-name="Q" unicode="Q" horiz-adv-x="703" 
d="M603 134l79 -79q11 -11 11 -31q0 -36 -37 -36q-18 0 -28 10l-74 76q-60 -50 -99.5 -66.5t-102.5 -16.5q-139 0 -227 103t-88 267q0 162 87.5 265.5t226.5 103.5t226.5 -104t87.5 -270q0 -69 -12 -111.5t-50 -110.5zM475 261l66 -65q18 52 24 82.5t6 79.5
q0 136 -59.5 215.5t-160.5 79.5t-160.5 -79.5t-59.5 -213.5q0 -133 59.5 -213t159.5 -80q45 0 73 13t69 52l-70 71q-11 11 -11 31q0 36 35 36q18 0 29 -9z" />
    <glyph glyph-name="R" unicode="R" horiz-adv-x="533" 
d="M151 318v-284q0 -18 -12.5 -31t-30.5 -13t-31 13t-13 32v642q0 18 13 31t32 13h170q97 0 159.5 -58.5t62.5 -148.5q0 -51 -22 -94t-60 -69q-28 -19 -57 -25.5t-82 -6.5h-28l245 -260q11 -9 11 -27q0 -17 -12.5 -29.5t-30.5 -12.5q-16 0 -33 15zM151 641v-254h138
q51 0 87 37.5t36 91.5q0 52 -40 88.5t-96 36.5h-125z" />
    <glyph glyph-name="S" unicode="S" horiz-adv-x="489" 
d="M301 414q47 -17 76 -31q41 -21 66 -64.5t25 -94.5q0 -101 -68.5 -167t-172.5 -66q-76 0 -143 32q-57 27 -57 59q0 17 11.5 29.5t27.5 12.5q14 0 30 -9l21 -12q56 -32 111 -32q63 0 106 42t43 104q0 44 -24 71t-81 46l-56 20q-84 28 -121 59q-58 45 -58 125q0 81 63 136.5
t155 55.5q60 0 118 -28q52 -27 52 -56q0 -16 -12 -28.5t-27 -12.5q-7 0 -9 1q-12 4 -18 7q-14 7 -20 11q-49 26 -88 26q-50 0 -85.5 -30.5t-35.5 -73.5q0 -36 26 -63q14 -15 31 -24.5t58 -23.5z" />
    <glyph glyph-name="T" unicode="T" horiz-adv-x="439" 
d="M175 642h-139q-16 0 -27 12t-11 28t11 27.5t28 11.5h365q17 0 28.5 -12t11.5 -29q0 -16 -12 -27.5t-29 -11.5h-139v-605q0 -18 -12.5 -31.5t-30.5 -13.5t-31 13.5t-13 31.5v606z" />
    <glyph glyph-name="U" unicode="U" horiz-adv-x="683" 
d="M619 255q0 -66 -18 -110.5t-59 -80.5q-84 -75 -200 -75t-200 75q-42 36 -60 80.5t-18 110.5v428q0 19 12.5 32t31.5 13q17 0 29.5 -13t12.5 -32v-428q0 -49 11.5 -79.5t40.5 -56.5q58 -53 140 -53q81 0 139 53q29 26 40.5 56t11.5 80v428q0 19 12.5 32t29.5 13
q19 0 31.5 -13t12.5 -32v-428z" />
    <glyph glyph-name="V" unicode="V" horiz-adv-x="568" 
d="M285 138l191 556q11 35 41 35q19 0 31 -12.5t12 -30.5q0 -12 -3 -21l-227 -631q-9 -26 -18 -34.5t-27 -8.5q-19 0 -28 8.5t-19 34.5l-227 631q-3 9 -3 20q0 19 12.5 31.5t31.5 12.5q29 0 40 -35z" />
    <glyph glyph-name="W" unicode="W" horiz-adv-x="834" 
d="M417 584l-153 -547q-13 -46 -64 -46q-55 0 -65 53l-113 628q0 2 -0.5 7t-0.5 7q0 19 11.5 31t30.5 12q37 0 45 -41l96 -586l169 592q4 16 17 26t27 10q33 0 44 -36l168 -592l97 586q8 41 45 41q19 0 30.5 -12t11.5 -31q0 -9 -1 -14l-113 -628q-10 -53 -65 -53
q-53 0 -64 46z" />
    <glyph glyph-name="X" unicode="X" horiz-adv-x="599" 
d="M299 317l-209 -304q-18 -23 -37 -23q-17 0 -30 12.5t-13 28.5t11 30l228 326l-195 274q-9 14 -9 28q0 16 13.5 28t30.5 12q21 0 37 -24l173 -253l173 253q16 24 38 24q17 0 30.5 -12.5t13.5 -28.5q0 -13 -9 -27l-195 -274l228 -326q11 -16 11 -30q0 -16 -13 -28.5
t-30 -12.5q-19 0 -37 23z" />
    <glyph glyph-name="Y" unicode="Y" horiz-adv-x="506" 
d="M210 338l-199 326q-8 9 -8 25t12.5 27.5t29.5 11.5q26 0 38 -22l170 -280l170 280q12 22 38 22q18 0 30 -11.5t12 -27.5q0 -15 -7 -25l-199 -326v-302q0 -20 -12.5 -32.5t-31.5 -12.5t-31 12.5t-12 32.5v302z" />
    <glyph glyph-name="Z" unicode="Z" horiz-adv-x="576" 
d="M139 78h364q19 0 32 -11t13 -27q0 -17 -13 -28.5t-32 -11.5h-404q-68 0 -68 48q0 12 11 32l374 564h-331q-16 0 -27.5 11.5t-11.5 26.5q0 16 11.5 27.5t27.5 11.5h363q34 0 53 -3q14 -2 23 -10.5t9 -21.5q0 -15 -16 -42z" />
    <glyph glyph-name="bracketleft" unicode="[" horiz-adv-x="229" 
d="M136 30h34q15 0 25.5 -10.5t10.5 -24.5q0 -16 -10.5 -27t-25.5 -11h-81q-15 0 -26 12t-11 28v726q0 17 11 29t26 12h81q15 0 25.5 -11t10.5 -27q0 -14 -10.5 -24.5t-25.5 -10.5h-34v-661z" />
    <glyph glyph-name="backslash" unicode="\" horiz-adv-x="321" 
d="M47 720h76l127 -720h-77z" />
    <glyph glyph-name="bracketright" unicode="]" horiz-adv-x="229" 
d="M93 691h-34q-15 0 -25.5 10.5t-10.5 24.5q0 16 10.5 27t25.5 11h82q14 0 25 -12.5t11 -28.5v-726q0 -16 -11 -28t-25 -12h-82q-15 0 -25.5 11t-10.5 27q0 14 10.5 24.5t25.5 10.5h34v661z" />
    <glyph glyph-name="asciicircum" unicode="^" horiz-adv-x="307" 
d="M154 619l-100 -40q-3 -2 -11 -2q-19 0 -32 10t-13 24q0 33 26 43l107 42q17 7 23 7q4 0 22 -7l107 -41q24 -9 24 -42q0 -16 -13.5 -26.5t-31.5 -10.5q-8 0 -12 3z" />
    <glyph glyph-name="underscore" unicode="_" horiz-adv-x="491" 
d="M47 -30v30h360v-30h-360z" />
    <glyph glyph-name="grave" unicode="`" horiz-adv-x="219" 
d="M24 635q-26 10 -26 42q0 14 13 24t31 10q5 0 11 -2l142 -55q27 -10 27 -44q0 -13 -13.5 -23t-31.5 -10q-7 0 -11 2z" />
    <glyph glyph-name="a" unicode="a" horiz-adv-x="568" 
d="M419 471v33q0 16 13 27.5t31 11.5q16 0 28 -12.5t12 -29.5v-469q0 -17 -12 -29.5t-29 -12.5q-19 0 -32 12.5t-13 29.5v42q-37 -49 -67.5 -66t-82.5 -17q-100 0 -165 78t-65 197t65 198t165 79q49 0 80 -14.5t72 -57.5zM278 470q-69 0 -111 -55.5t-42 -147.5t40.5 -147.5
t108.5 -55.5q72 0 109.5 52.5t37.5 154.5q0 99 -36 146q-41 53 -107 53z" />
    <glyph glyph-name="b" unicode="b" horiz-adv-x="565" 
d="M147 68v-40q0 -16 -11.5 -27.5t-28.5 -11.5q-18 0 -30.5 13t-12.5 30v704q0 18 12.5 30.5t31.5 12.5q17 0 29.5 -12.5t12.5 -30.5v-270q41 45 72.5 60.5t80.5 15.5q98 0 162 -77.5t64 -196.5q0 -121 -64 -199.5t-163 -78.5q-56 0 -86 15t-69 63zM181 405
q-34 -50 -34 -138q0 -90 29 -135q40 -65 118 -65q67 0 106.5 53.5t39.5 144.5t-40 146t-107 55q-73 0 -112 -61z" />
    <glyph glyph-name="c" unicode="c" horiz-adv-x="450" 
d="M357 93q19 8 26 8q16 0 27 -11.5t11 -27.5q0 -29 -41 -50t-100 -21q-109 0 -176 76.5t-67 198.5t68.5 199.5t176.5 77.5q58 0 100 -18t42 -44q0 -18 -12 -31t-28 -13q-8 0 -19 3l-2 1q-2 1 -5.5 3t-7.5 4q-39 17 -68 17q-69 0 -111.5 -53.5t-42.5 -140.5q0 -86 43 -143
t108 -57q22 0 58 14z" />
    <glyph glyph-name="d" unicode="d" horiz-adv-x="568" 
d="M418 462v274q0 18 13 30t32 12q17 0 29 -12t12 -30v-702q0 -18 -12.5 -30.5t-29.5 -12.5q-18 0 -31 13t-13 31v42q-40 -50 -72.5 -68t-82.5 -18q-96 0 -161 79.5t-65 195.5q0 119 66.5 197.5t167.5 78.5q48 0 78 -16t69 -64zM125 269v-7q3 -87 42.5 -139t101.5 -52
q37 0 70 18t53 49q26 40 26 117q0 98 -28 143q-18 30 -49.5 48t-65.5 18q-65 0 -107.5 -55t-42.5 -140z" />
    <glyph glyph-name="e" unicode="e" horiz-adv-x="537" 
d="M131 234q9 -56 26 -90q16 -35 52.5 -56t80.5 -21q64 0 115 42q8 6 18 14t13 10q14 9 28 9t25.5 -12t11.5 -27q0 -18 -16 -34q-34 -36 -87.5 -57.5t-108.5 -21.5q-112 0 -182 77t-70 200q0 118 68 196.5t171 78.5q57 0 106 -26.5t77 -72.5q21 -32 35.5 -80t14.5 -84
q0 -26 -11.5 -35.5t-42.5 -9.5h-324zM162 405q-14 -23 -21 -44t-12 -62h290q-24 171 -144 171q-72 0 -113 -65z" />
    <glyph glyph-name="f" unicode="f" horiz-adv-x="252" 
d="M84 459h-49q-15 0 -25 11.5t-10 27.5q0 15 10 25.5t25 10.5h47v134q0 49 30 80t77 31h38q21 0 35.5 -11t14.5 -27q0 -17 -12 -28t-29 -11q-11 0 -19 1h-7q-21 0 -33 -10q-8 -10 -8 -56v-103h61q17 0 28.5 -10.5t11.5 -26.5q0 -15 -11.5 -26.5t-27.5 -11.5h-62v-425
q0 -18 -13 -31t-31 -13q-17 0 -29 13t-12 32v424z" />
    <glyph glyph-name="g" unicode="g" horiz-adv-x="565" 
d="M419 463v41q0 16 12.5 27.5t29.5 11.5q16 0 28 -13t12 -31v-476q0 -107 -55 -168q-32 -35 -83 -56t-107 -21q-85 0 -150 40q-54 31 -54 60q0 17 12.5 29.5t30.5 12.5q9 0 25 -12q76 -53 142 -53q41 0 78.5 19t55.5 49q22 39 22 111v34q-40 -49 -71.5 -65.5t-83.5 -16.5
q-100 0 -163 76.5t-63 196.5q0 122 66 202.5t166 80.5q47 0 77.5 -16.5t72.5 -62.5zM276 464q-68 0 -109 -53.5t-41 -143.5q0 -93 40.5 -147.5t109.5 -54.5t113 59q30 43 30 118v16q-3 69 -3 77q-3 33 -24 66q-18 29 -49.5 46t-66.5 17z" />
    <glyph glyph-name="h" unicode="h" horiz-adv-x="548" 
d="M149 472q30 35 61 50q43 19 82 19q83 0 142 -59q50 -51 50 -144v-307q0 -17 -12.5 -29.5t-29.5 -12.5q-18 0 -30 12.5t-12 29.5v307q0 54 -36 91.5t-86 37.5q-54 0 -92 -37t-38 -89v-310q0 -17 -12 -29t-28 -12q-19 0 -31.5 12t-12.5 29v703q0 18 12.5 30.5t31.5 12.5
q17 0 29 -12.5t12 -30.5v-262z" />
    <glyph glyph-name="i" unicode="i" horiz-adv-x="214" 
d="M149 34q0 -18 -12 -30.5t-30 -12.5q-17 0 -29.5 12.5t-12.5 30.5v467q0 17 12.5 29.5t30.5 12.5q17 0 29 -12.5t12 -29.5v-467zM53 659q0 23 16.5 39.5t39.5 16.5q22 0 37 -16.5t15 -39.5q0 -22 -15.5 -37.5t-37.5 -15.5q-23 0 -39 15.5t-16 37.5z" />
    <glyph glyph-name="j" unicode="j" horiz-adv-x="212" 
d="M147 -176q0 -18 -12 -30t-29 -12q-18 0 -30 12t-12 30v675q0 19 12 32t30 13q17 0 29 -13t12 -30v-677zM50 659q0 24 16 40.5t39 16.5q22 0 38 -16.5t16 -40.5q0 -22 -16 -37.5t-38 -15.5q-23 0 -39 15.5t-16 37.5z" />
    <glyph glyph-name="k" unicode="k" horiz-adv-x="466" 
d="M148 256v-222q0 -18 -11.5 -30.5t-28.5 -12.5q-19 0 -31.5 13t-12.5 31v703q0 18 12.5 30.5t31.5 12.5q17 0 29 -13t12 -31v-387l213 176q19 17 34 17q16 0 28 -12t12 -27q0 -18 -20 -36l-208 -163l244 -242q13 -12 13 -32q0 -17 -12.5 -29t-28.5 -12q-18 0 -38 22z" />
    <glyph glyph-name="l" unicode="l" horiz-adv-x="213" 
d="M148 37q0 -20 -12 -33.5t-29 -13.5q-18 0 -30.5 13t-12.5 32v702q0 18 12.5 31t29.5 13q18 0 30 -13t12 -31v-700z" />
    <glyph glyph-name="m" unicode="m" horiz-adv-x="846" 
d="M431 450q9 13 31 41q49 51 133 51t140 -56q29 -27 38.5 -53t9.5 -77v-321q0 -18 -12 -31t-28 -13q-19 0 -32 12.5t-13 30.5v318q0 48 -31 82t-75 34q-52 0 -88.5 -34t-36.5 -82v-317q0 -19 -12.5 -32t-30.5 -13q-17 0 -29 13t-12 32v317q0 49 -34.5 83t-83.5 34
q-48 0 -82.5 -34t-34.5 -83v-318q0 -18 -11.5 -31t-28.5 -13q-19 0 -31.5 13t-12.5 31v465q0 18 12.5 31t30.5 13q16 0 28 -11.5t12 -26.5v-28q14 17 17 20q45 47 116 47q37 0 74 -16q29 -14 44.5 -29.5t32.5 -48.5z" />
    <glyph glyph-name="n" unicode="n" horiz-adv-x="548" 
d="M148 471q17 22 29 32t33 20q40 20 82 20q83 0 140 -59q52 -49 52 -145v-308q0 -17 -12.5 -29.5t-29.5 -12.5q-18 0 -30 12.5t-12 29.5v307q0 54 -36 91.5t-87 37.5q-53 0 -91 -37t-38 -89v-310q0 -17 -12 -29t-29 -12q-18 0 -30.5 12t-12.5 29v470q0 17 13 30t31 13
q16 0 28 -11.5t12 -27.5v-34z" />
    <glyph glyph-name="o" unicode="o" horiz-adv-x="546" 
d="M37 267q0 118 67.5 197t169.5 79q101 0 168 -79.5t67 -197.5t-67.5 -197.5t-167.5 -79.5q-102 0 -169.5 79.5t-67.5 198.5zM272 467q-65 0 -105.5 -55.5t-40.5 -144.5q0 -91 41 -146.5t107 -55.5q65 0 105 55.5t40 145.5t-40.5 145.5t-106.5 55.5z" />
    <glyph glyph-name="p" unicode="p" horiz-adv-x="565" 
d="M148 66v-245q0 -17 -12 -30t-29 -13q-18 0 -30.5 13t-12.5 31v676q0 19 11.5 32t28.5 13q18 0 30.5 -12t12.5 -28v-41q41 47 72.5 64t81.5 17q98 0 163 -77t65 -194q0 -123 -65 -202.5t-166 -79.5q-48 0 -79 15.5t-71 60.5zM173 402q-29 -46 -29 -143q0 -88 40 -140
t107 -52t108.5 56t41.5 147q0 89 -40.5 143.5t-106.5 54.5q-34 0 -67.5 -18.5t-53.5 -47.5z" />
    <glyph glyph-name="q" unicode="q" horiz-adv-x="566" 
d="M418 465v38q0 16 13 28t31 12q17 0 29 -13t12 -31v-676q0 -19 -12.5 -32t-29.5 -13t-30 13t-13 32v246q-42 -46 -73 -62t-81 -16q-96 0 -161.5 79.5t-65.5 195.5q0 118 66 197.5t164 79.5q48 0 79 -16t72 -62zM272 467q-66 0 -106 -54t-40 -143q0 -91 40 -147t105 -56
q38 0 71.5 19t52.5 52q27 47 27 120q0 98 -32 145q-43 64 -118 64z" />
    <glyph glyph-name="r" unicode="r" horiz-adv-x="272" 
d="M147 453q19 37 33 54t35 27q18 9 33 9q20 0 34 -13t14 -32q0 -16 -8.5 -25.5t-30.5 -17.5q-39 -15 -58 -33q-49 -46 -50 -147l-1 -243q0 -17 -12 -29.5t-29 -12.5q-18 0 -30.5 12.5t-12.5 29.5v466q0 18 12.5 30.5t30.5 12.5t30.5 -12.5t12.5 -29.5z" />
    <glyph glyph-name="s" unicode="s" horiz-adv-x="446" 
d="M199 249q-93 37 -124.5 66.5t-31.5 76.5q0 65 52 108t130 43q68 0 131 -33q48 -24 48 -56q0 -16 -11 -27.5t-27 -11.5q-14 0 -33 13q-12 9 -27 16q-40 23 -83 23q-41 0 -66.5 -19t-25.5 -49q0 -16 4 -23.5t17 -16.5q25 -17 85 -41q73 -29 111 -52q69 -42 69 -117
q0 -68 -56.5 -113t-141.5 -45q-65 0 -131 35q-65 36 -65 69q0 17 11.5 29.5t26.5 12.5q17 0 47 -26q54 -44 117 -44q44 0 75 24t31 58q0 46 -86 81z" />
    <glyph glyph-name="t" unicode="t" horiz-adv-x="248" 
d="M84 459h-42q-16 0 -27.5 11.5t-11.5 26.5q0 16 11.5 26.5t28.5 10.5h41v121q0 19 12 32.5t29 13.5q18 0 31 -13.5t13 -32.5v-121h45q17 0 28.5 -11t11.5 -28q0 -14 -12 -25t-28 -11h-45v-425q0 -18 -12 -30.5t-29 -12.5q-18 0 -31 12.5t-13 30.5v425z" />
    <glyph glyph-name="u" unicode="u" horiz-adv-x="551" 
d="M486 199q0 -58 -11 -90.5t-40 -60.5q-58 -58 -159 -58q-97 0 -160 58q-29 26 -40.5 60t-11.5 91v300q0 18 12.5 31t31.5 13q17 0 29 -13t12 -31v-299q0 -68 32 -99q33 -35 95 -35q56 0 94 35q32 28 32 99v299q0 18 12 31t29 13q18 0 30.5 -13t12.5 -31v-300z" />
    <glyph glyph-name="v" unicode="v" horiz-adv-x="432" 
d="M217 134l126 376q10 32 39 32q18 0 30.5 -13t12.5 -31q0 -9 -2 -14l-162 -460q-13 -33 -44 -33q-32 0 -45 33l-162 460q-2 10 -2 15q0 18 12.5 30.5t31.5 12.5q27 0 38 -32z" />
    <glyph glyph-name="w" unicode="w" horiz-adv-x="761" 
d="M381 403l-118 -369q-13 -44 -48 -44q-19 0 -31 10.5t-21 36.5l-152 447q-2 10 -2 14q0 19 12 32t29 13q15 0 27 -8.5t17 -22.5l121 -386l119 373q14 44 45 44q19 0 30 -9.5t19 -34.5l118 -373l122 386q10 31 43 31q18 0 30.5 -13t12.5 -32q0 -4 -4 -14l-152 -447
q-15 -47 -52 -47q-33 0 -48 44z" />
    <glyph glyph-name="x" unicode="x" horiz-adv-x="476" 
d="M238 219l-148 -204q-17 -23 -38 -23q-18 0 -30 12t-12 30q0 16 9 29l167 221l-145 190q-10 12 -10 28t12.5 28.5t28.5 12.5q20 0 38 -24l128 -172l127 172q18 24 38 24q17 0 29 -12t12 -29q0 -18 -9 -28l-145 -190l166 -221q10 -13 10 -29q0 -18 -12 -30t-30 -12
q-21 0 -38 23z" />
    <glyph glyph-name="y" unicode="y" horiz-adv-x="434" 
d="M174 16l-164 469q-2 5 -2 14q0 18 12 31t30 13q31 0 42 -32l126 -378l121 375q12 34 43 34q17 0 29.5 -12t12.5 -29q0 -4 -2 -16l-235 -669q-13 -37 -42 -37q-18 0 -30 11.5t-12 27.5q0 9 3 18z" />
    <glyph glyph-name="z" unicode="z" horiz-adv-x="452" 
d="M144 77h245q19 0 32 -11t13 -27t-13 -27.5t-32 -11.5h-321q-41 0 -41 37q0 15 8 26l269 394h-225q-18 0 -30.5 11t-12.5 27t12.5 27.5t29.5 11.5h301q43 0 43 -36q0 -11 -9 -24z" />
    <glyph glyph-name="braceleft" unicode="{" horiz-adv-x="342" 
d="M47 360q27 2 45 21.5t18 50.5v330q0 71 81 71h78v-45h-12q-35 0 -46.5 -11.5t-11.5 -46.5v-290q0 -31 -20 -54t-51 -26q31 -3 51 -26t20 -54v-290q0 -35 11.5 -46.5t46.5 -11.5h12v-45h-78q-81 0 -81 71v330q0 31 -18 50.5t-45 21.5z" />
    <glyph glyph-name="bar" unicode="|" horiz-adv-x="184" 
d="M47 0v720h76v-720h-76z" />
    <glyph glyph-name="braceright" unicode="}" horiz-adv-x="342" 
d="M47 -113v45h12q35 0 46.5 11.5t11.5 46.5v290q0 31 20 54t51 26q-31 3 -51 26t-20 54v290q0 35 -11.5 46.5t-46.5 11.5h-12v45h78q81 0 81 -71v-330q0 -31 18 -50.5t45 -21.5q-27 -2 -45 -21.5t-18 -50.5v-330q0 -71 -81 -71h-78z" />
    <glyph glyph-name="asciitilde" unicode="~" horiz-adv-x="401" 
d="M68 766q-19 0 -31.5 13t-12.5 31q0 19 12.5 32t31.5 13l243 -1q19 0 32.5 -13t13.5 -32q0 -18 -13.5 -30.5t-33.5 -12.5h-242z" />
    <glyph glyph-name="nbspace" unicode="&#xa0;" horiz-adv-x="500" 
d="M0 0z" />
    <glyph glyph-name="exclamdown" unicode="&#xa1;" horiz-adv-x="210" 
d="M52 684q0 22 15.5 37t37.5 15t37.5 -15.5t15.5 -36.5q0 -22 -15.5 -38t-37.5 -16t-37.5 16t-15.5 38zM147 29q0 -18 -12 -30.5t-29 -12.5q-18 0 -30 12.5t-12 29.5v448q0 17 12 29.5t29 12.5t29.5 -12t12.5 -29v-448z" />
    <glyph glyph-name="cent" unicode="&#xa2;" horiz-adv-x="450" 
d="M230 538v70q0 7 5.5 12t13.5 5q7 0 12.5 -5.5t5.5 -13.5v-62q81 0 125 -24q32 -18 32 -40q0 -18 -12 -30.5t-28 -12.5q-9 0 -18 3l-16 8q-36 17 -59 17q-4 0 -11.5 -0.5t-12.5 -0.5v-389l51 2l20 8l21 8l17 6q2 2 7 2q15 0 26.5 -11.5t11.5 -27.5q0 -26 -24 -40
q-40 -27 -130 -30v-57q0 -8 -5.5 -14t-12.5 -6q-8 0 -13.5 6t-5.5 14v62q-52 13 -78.5 28t-52.5 47q-62 79 -62 194q0 131 80 211q25 25 47.5 37t65.5 24zM230 84v372q-39 -19 -58 -41q-43 -53 -43 -141q0 -85 40 -143q18 -28 61 -47z" />
    <glyph glyph-name="sterling" unicode="&#xa3;" horiz-adv-x="598" 
d="M176 321h-105q-17 0 -29.5 11.5t-12.5 27.5q0 17 12.5 28.5t29.5 11.5h81l-11 23q-24 45 -32 70.5t-8 57.5q0 81 61.5 134t157.5 53q94 0 158 -53q30 -24 52 -63t22 -67q0 -18 -12 -30.5t-30 -12.5q-2 0 -5 1t-4 1q-14 4 -19.5 11t-16.5 33q-18 44 -57 70t-89 26
q-56 0 -91.5 -31t-35.5 -81q0 -4 0.5 -7.5t1.5 -7.5t1 -6q3 -26 16 -54q16 -31 20 -41q3 -4 12 -25h128q19 0 32 -11t13 -27q0 -17 -13 -29t-32 -12h-107q6 -42 6 -59q0 -28 -8 -60q-10 -32 -26 -57t-52 -66h341q18 0 31 -12t13 -28q0 -17 -12.5 -28.5t-30.5 -11.5h-416
q-18 0 -30.5 12.5t-12.5 29.5q0 18 16 33l25 26q75 77 75 162q0 22 -7 58z" />
    <glyph glyph-name="currency" unicode="&#xa4;" horiz-adv-x="495" 
d="M47 213l62 61q-28 39 -28.5 87t27.5 87l-60 58q12 18 31 35l62 -62q39 29 87.5 29.5t87.5 -28.5l61 62q17 -14 27 -26q0 -1 3 -4.5t4 -5.5l-62 -58q28 -39 28 -87.5t-29 -87.5l62 -62l-7 -8l-8 -7q-12 -12 -19 -17l-60 62q-39 -29 -87.5 -29t-86.5 29l-63 -61
q-17 12 -32 33zM129 360q0 -41 29.5 -70t70.5 -29t70 29t29 70t-29 70t-70 29t-70.5 -29t-29.5 -70z" />
    <glyph glyph-name="yen" unicode="&#xa5;" horiz-adv-x="578" 
d="M199 412l-153 252q-7 10 -7 25q0 16 12 27.5t30 11.5q24 0 39 -22l169 -280l169 280q14 22 39 22q18 0 30 -11.5t12 -27.5q0 -13 -7 -25l-154 -252l114 1q11 0 18.5 -7.5t7.5 -18.5q0 -10 -7 -16.5t-18 -6.5l-147 -1l-14 -25v-19l161 1q10 0 17.5 -8t7.5 -19
q0 -9 -7.5 -15.5t-17.5 -6.5l-161 -1l1 -234q0 -20 -12.5 -32.5t-31.5 -12.5t-31.5 13t-12.5 32l-1 234l-161 -1q-11 0 -19 7.5t-8 17.5t8 17t19 7l161 1l-1 19l-14 25l-146 -1q-11 0 -19 7.5t-8 18.5q0 9 8 16t19 7z" />
    <glyph glyph-name="section" unicode="&#xa7;" horiz-adv-x="571" 
d="M136 455q-36 33 -48.5 57t-12.5 61q0 79 56.5 121.5t159.5 42.5q97 0 150 -35q28 -19 47.5 -54t19.5 -64q0 -18 -12 -30t-29 -12q-25 0 -37 30l-8 26q-14 36 -44 46q-37 15 -92 15q-56 0 -88.5 -22t-32.5 -61q0 -50 66 -83l174 -87q133 -64 133 -175q0 -53 -27 -91
t-95 -78q38 -36 51.5 -61.5t13.5 -61.5q0 -50 -33 -91q-32 -40 -74 -56t-113 -16q-87 0 -144.5 43t-57.5 109q0 23 12 36.5t33 13.5q26 0 33 -28l10 -31q10 -35 36.5 -49t80.5 -14q126 0 126 80q0 26 -13 43.5t-45 34.5l-166 82q-82 42 -111 90q-24 42 -24 94q0 21 4 37
q7 38 28.5 67.5t72.5 70.5zM360 335l-156 77q-33 -20 -48 -35t-28 -40q-19 -33 -19 -58q0 -60 96 -108l129 -65q44 18 63.5 30.5t34.5 32.5q20 27 20 55q0 21 -11 43.5t-28 35.5q-18 15 -53 32z" />
    <glyph glyph-name="dieresis" unicode="&#xa8;" horiz-adv-x="239" 
d="M-29 631q0 22 15.5 37.5t38.5 15.5q21 0 36.5 -15.5t15.5 -37.5t-15.5 -37t-36.5 -15q-23 0 -38.5 15t-15.5 37zM163 631q0 22 15 37.5t36 15.5q23 0 38.5 -15.5t15.5 -38.5q0 -21 -15.5 -36t-37.5 -15t-37 15t-15 37z" />
    <glyph glyph-name="copyright" unicode="&#xa9;" horiz-adv-x="932" 
d="M58 361q0 155 109 264t264 109t264 -109t109 -264t-109 -264t-264 -109t-264 109t-109 264zM108 361q0 -135 96 -233q94 -94 227.5 -94t227.5 94q95 97 95 232.5t-95 232.5q-95 95 -228 95t-227 -95q-96 -98 -96 -232zM605 544l-30 -44q-38 33 -88 44q-90 17 -157.5 -40
t-66.5 -151q0 -19 3 -37q9 -46 39 -81.5t69.5 -52.5t86.5 -14.5t88 28.5q13 9 24 18l31 -43q-64 -54 -155 -57q-64 -2 -118.5 25.5t-86 74t-41 107.5t15.5 126q30 81 105 123.5t165 27.5q67 -12 116 -54z" />
    <glyph glyph-name="ordfeminine" unicode="&#xaa;" horiz-adv-x="482" 
d="M57 340h342v-61h-342v61zM332 652v68h66l1 -331h-67v73l-3 -8q-22 -46 -73.5 -64.5t-109.5 4.5q-79 32 -96 124q-12 63 13 116.5t73 79t101 14.5q60 -13 87 -61l5 -8zM115 556q0 -12 3 -23q9 -48 46 -74q29 -19 61.5 -19t60.5 20q36 26 45 72q5 24 0 48q-12 60 -62 83
q-44 20 -87 1q-53 -24 -65 -87q-2 -14 -2 -21z" />
    <glyph glyph-name="guillemotleft" unicode="&#xab;" horiz-adv-x="406" 
d="M116 266l87 -143q10 -13 10 -27t-11 -24.5t-26 -10.5q-22 0 -37 25l-85 148q-15 26 -15 34t12 28l90 153q11 22 36 22q16 0 25.5 -9t9.5 -25t-8 -28zM270 266l89 -143q10 -18 10 -27q0 -13 -12 -24t-26 -11q-22 0 -37 25l-84 148q-16 25 -16 34q0 8 11 28l90 153
q13 22 37 22q17 0 26.5 -9t9.5 -25q0 -12 -9 -28z" />
    <glyph glyph-name="logicalnot" unicode="&#xac;" horiz-adv-x="627" 
d="M47 360v76h486v-220h-63v144h-423z" />
    <glyph glyph-name="registered" unicode="&#xae;" horiz-adv-x="932" 
d="M58 361q0 155 109 264t264 109t264 -109t109 -264t-109 -264t-264 -109t-264 109t-109 264zM108 361q0 -135 96 -233q94 -94 227.5 -94t227.5 94q95 97 95 232.5t-95 232.5q-95 95 -228 95t-227 -95q-96 -98 -96 -232zM314 131v469h110q70 0 105 -28q33 -27 42 -72
q11 -62 -18 -103.5t-86 -49.5q-3 0 -8 -0.5t-8 -0.5l147 -215h-71l-153 231v-231h-60zM374 382h39q48 -1 73.5 21t26.5 62t-23.5 62.5t-70.5 22.5h-45v-168z" />
    <glyph glyph-name="macron" unicode="&#xaf;" horiz-adv-x="292" 
d="M41 587q-17 0 -29 11.5t-12 27.5q0 17 12 29t29 12l211 -1q17 0 29 -11.5t12 -28.5t-12 -28t-30 -11h-210z" />
    <glyph glyph-name="plusminus" unicode="&#xb1;" horiz-adv-x="594" 
d="M506 87v-68h-462v68h462zM309 453v-122h197v-68h-197v-122h-68v122h-197v68h197v122h68z" />
    <glyph glyph-name="acute" unicode="&#xb4;" horiz-adv-x="224" 
d="M57 578q-8 -2 -11 -2q-17 0 -31 10.5t-14 24.5t7.5 26t19.5 16l142 55q4 2 12 2q17 0 30 -9.5t13 -22.5q0 -35 -26 -43z" />
    <glyph glyph-name="mu" unicode="&#xb5;" horiz-adv-x="623" 
d="M166 449v-296q0 -71 14 -95q13 -22 50 -24q57 0 95 80q36 79 38 205v130h92v-328q0 -45 9 -66q9 -20 29 -21q20 0 32 21q11 20 11 61v14h21q0 -5 1 -9v-13q0 -56 -24 -87q-21 -28 -66 -30q-49 0 -76 43q-24 40 -26 129q-23 -89 -61 -130q-38 -40 -97 -42q-42 0 -73 26
q-28 27 -40 77q0 -15 -1 -28q0 -65 32 -141q32 -78 32 -92q0 -20 -11 -31q-9 -9 -31 -11q-23 0 -33 17q-8 14 -10 53q0 2 0.5 9.5t1 21t0.5 27.5q2 64 2 89q0 57 -1 101q-2 88 -2 95v245h92z" />
    <glyph glyph-name="paragraph" unicode="&#xb6;" horiz-adv-x="644" 
d="M240 720h309v-52h-309q-59 0 -100 -42.5t-40 -102.5q1 -59 42 -100t98 -41h69v242h55v-624h-55v330h-69q-80 0 -136.5 57t-56.5 138t56.5 138t136.5 57zM430 0v624h55v-624h-55z" />
    <glyph glyph-name="periodcentered" unicode="&#xb7;" horiz-adv-x="215" 
d="M54 263q0 22 15.5 37t37.5 15t37.5 -16t15.5 -38q0 -20 -15.5 -35t-37.5 -15t-37.5 15t-15.5 37z" />
    <glyph glyph-name="cedilla" unicode="&#xb8;" horiz-adv-x="162" 
d="M162 30l-76 -161q-8 -19 -37 -19q-30 0 -30 36q0 21 11 45l55 99h77z" />
    <glyph glyph-name="ordmasculine" unicode="&#xba;" horiz-adv-x="482" 
d="M53 279v61h341v-61h-341zM47 557q0 20 4 36q17 84 89.5 123t152.5 5q57 -23 86.5 -79t16.5 -121q-10 -53 -47 -90.5t-90 -48.5q-36 -6 -71 0q-53 11 -90.5 48.5t-47.5 90.5q-3 18 -3 36zM114 557q0 -14 1 -21q11 -61 63 -85q50 -23 97 3t56 81q6 36 -6 67.5t-39 50.5
q-51 36 -108 11q-52 -25 -63 -85q-1 -7 -1 -22z" />
    <glyph glyph-name="guillemotright" unicode="&#xbb;" horiz-adv-x="406" 
d="M136 265l-87 143q-10 13 -10 28q0 14 11 24t26 10q22 0 36 -25l86 -147q15 -27 15 -35q0 -9 -12 -28l-89 -152q-14 -24 -37 -24q-16 0 -25.5 10t-9.5 25q0 17 8 28zM292 265l-89 143q-9 16 -9 27q0 14 11 24.5t25 10.5q23 0 37 -25l85 -147q16 -29 16 -35q0 -8 -11 -28
l-90 -152q-15 -24 -38 -24q-15 0 -24.5 10t-9.5 25t8 28z" />
    <glyph glyph-name="questiondown" unicode="&#xbf;" horiz-adv-x="466" 
d="M165 685q0 22 15.5 36.5t37.5 14.5q23 0 38 -14.5t15 -36.5t-15.5 -37.5t-38.5 -15.5q-21 0 -36.5 15.5t-15.5 37.5zM259 366q43 -8 65.5 -18.5t46.5 -32.5q60 -54 60 -141q0 -84 -58 -136.5t-152 -52.5q-80 0 -138 44.5t-58 106.5q0 20 11.5 33t29.5 13q26 0 38 -32
q7 -21 16 -36q29 -46 101 -46q52 0 84 29t32 76q0 103 -107 118q-30 4 -43 16q-9 9 -10.5 14.5t-1.5 26.5v129q0 16 13 28.5t30 12.5t29 -12t12 -29v-111z" />
    <glyph glyph-name="Agrave" unicode="&#xc0;" horiz-adv-x="618" 
d="M143 155l-51 -134q-12 -31 -41 -31q-18 0 -29 11.5t-11 28.5q0 13 4 25l230 620q10 30 24 41.5t37 11.5q28 0 42 -11t26 -42l229 -620q5 -15 5 -26q0 -17 -11.5 -28t-28.5 -11q-30 0 -42 31l-50 134h-333zM309 625l-141 -394h283zM223 856q-26 10 -26 42q0 14 13 24
t31 10q5 0 11 -2l142 -55q27 -10 27 -44q0 -13 -13.5 -23t-31.5 -10q-7 0 -11 2z" />
    <glyph glyph-name="Aacute" unicode="&#xc1;" horiz-adv-x="618" 
d="M143 155l-51 -134q-12 -31 -41 -31q-18 0 -29 11.5t-11 28.5q0 13 4 25l230 620q10 30 24 41.5t37 11.5q28 0 42 -11t26 -42l229 -620q5 -15 5 -26q0 -17 -11.5 -28t-28.5 -11q-30 0 -42 31l-50 134h-333zM309 625l-141 -394h283zM254 799q-8 -2 -11 -2q-17 0 -31 10.5
t-14 24.5t7.5 26t19.5 16l142 55q4 2 12 2q17 0 30 -9.5t13 -22.5q0 -35 -26 -43z" />
    <glyph glyph-name="Acircumflex" unicode="&#xc2;" horiz-adv-x="618" 
d="M143 155l-51 -134q-12 -31 -41 -31q-18 0 -29 11.5t-11 28.5q0 13 4 25l230 620q10 30 24 41.5t37 11.5q28 0 42 -11t26 -42l229 -620q5 -15 5 -26q0 -17 -11.5 -28t-28.5 -11q-30 0 -42 31l-50 134h-333zM309 625l-141 -394h283zM309 840l-100 -40q-3 -2 -11 -2
q-19 0 -32 10t-13 24q0 33 26 43l107 42q17 7 23 7q4 0 22 -7l107 -41q24 -9 24 -42q0 -16 -13.5 -26.5t-31.5 -10.5q-7 0 -12 3z" />
    <glyph glyph-name="Atilde" unicode="&#xc3;" horiz-adv-x="618" 
d="M143 155l-51 -134q-12 -31 -41 -31q-18 0 -29 11.5t-11 28.5q0 13 4 25l230 620q10 30 24 41.5t37 11.5q28 0 42 -11t26 -42l229 -620q5 -15 5 -26q0 -17 -11.5 -28t-28.5 -11q-30 0 -42 31l-50 134h-333zM309 625l-141 -394h283zM202 808q-17 0 -28.5 11.5t-11.5 27.5
q0 17 11.5 29t28.5 12l212 -1q17 0 29 -12t12 -28t-12.5 -27.5t-29.5 -11.5h-211z" />
    <glyph glyph-name="Adieresis" unicode="&#xc4;" horiz-adv-x="618" 
d="M139 735q0 21 15.5 36t36.5 15t36 -15t15 -37q0 -20 -15 -35t-36 -15t-36.5 15t-15.5 36zM376 734q0 22 15 37t36 15q22 0 37 -15t15 -36t-15 -36t-37 -15q-20 0 -35 14.5t-16 35.5zM144 155l-51 -134q-12 -31 -41 -31q-18 0 -29 11.5t-11 28.5q0 13 4 25l230 620
q11 30 24.5 41.5t36.5 11.5q28 0 42 -11t26 -42l229 -620q5 -11 5 -26q0 -17 -11.5 -28t-28.5 -11q-30 0 -41 31l-51 134h-333zM310 625l-141 -394h283z" />
    <glyph glyph-name="Aring" unicode="&#xc5;" horiz-adv-x="617" 
d="M281 722q-58 30 -58 79q0 35 25.5 60t61.5 25t61.5 -24.5t25.5 -60.5q0 -58 -61 -78q16 -8 22 -16t15 -32l229 -620q6 -18 6 -26q0 -17 -11.5 -28t-28.5 -11q-30 0 -42 31l-51 134h-332l-51 -134q-12 -31 -41 -31q-18 0 -29.5 11.5t-11.5 28.5q0 7 4 25l230 620
q10 24 16 31.5t21 15.5zM168 231h282l-141 394zM271 802q0 -15 11.5 -26.5t26.5 -11.5q16 0 27.5 11t11.5 27t-11 27t-27 11t-27.5 -11t-11.5 -27z" />
    <glyph glyph-name="AE" unicode="&#xc6;" horiz-adv-x="766" 
d="M151 155l-71 -137q-14 -27 -40 -27q-16 0 -27.5 11.5t-11.5 28.5q0 10 5 22l320 629q12 24 21.5 31.5t28.5 7.5h306q16 0 28 -11.5t12 -27.5q0 -17 -11 -28.5t-28 -11.5h-209v-243h198q16 0 26.5 -11t10.5 -28t-11.5 -28.5t-28.5 -11.5h-198v-241h220q16 0 28 -11.5
t12 -27.5t-12 -28t-29 -12h-260q-20 0 -32.5 13t-12.5 32v110h-234zM386 621l-198 -392h198v392z" />
    <glyph glyph-name="Ccedilla" unicode="&#xc7;" horiz-adv-x="596" 
d="M408 -21l-76 -97q-11 -15 -35 -15q-28 0 -28 29q0 16 8 24l54 59h77zM511 123q16 12 30 12q17 0 28.5 -12t11.5 -30q0 -23 -27 -44q-76 -59 -193 -59q-144 0 -234 101.5t-90 264.5q0 167 88 271.5t230 104.5q83 0 150 -38q60 -35 60 -72q0 -16 -11.5 -28t-25.5 -12
q-16 0 -34 14q-29 21 -30 22q-48 33 -112 33q-98 0 -161 -81.5t-63 -210.5q0 -130 64 -209t169 -79q74 0 121 33z" />
    <glyph glyph-name="Egrave" unicode="&#xc8;" horiz-adv-x="448" 
d="M151 79h220q16 0 28 -11.5t12 -27.5q0 -17 -11.5 -28.5t-28.5 -11.5h-263q-20 0 -32 13t-12 35v628q0 20 13 32.5t32 12.5h252q17 0 28.5 -11.5t11.5 -28.5t-12 -28.5t-29 -11.5h-208v-241h197q17 0 29 -11.5t12 -27.5q0 -17 -11.5 -29t-28.5 -12h-199v-241zM138 856
q-26 10 -26 42q0 14 13 24t31 10q5 0 11 -2l142 -55q27 -10 27 -44q0 -13 -13.5 -23t-31.5 -10q-7 0 -11 2z" />
    <glyph glyph-name="Eacute" unicode="&#xc9;" horiz-adv-x="448" 
d="M151 79h220q16 0 28 -11.5t12 -27.5q0 -17 -11.5 -28.5t-28.5 -11.5h-263q-20 0 -32 13t-12 35v628q0 20 13 32.5t32 12.5h252q17 0 28.5 -11.5t11.5 -28.5t-12 -28.5t-29 -11.5h-208v-241h197q17 0 29 -11.5t12 -27.5q0 -17 -11.5 -29t-28.5 -12h-199v-241zM169 799
q-8 -2 -11 -2q-17 0 -31 10.5t-14 24.5t7.5 26t19.5 16l142 55q4 2 12 2q17 0 30 -9.5t13 -22.5q0 -35 -26 -43z" />
    <glyph glyph-name="Ecircumflex" unicode="&#xca;" horiz-adv-x="448" 
d="M151 79h220q16 0 28 -11.5t12 -27.5q0 -17 -11.5 -28.5t-28.5 -11.5h-263q-20 0 -32 13t-12 35v628q0 20 13 32.5t32 12.5h252q17 0 28.5 -11.5t11.5 -28.5t-12 -28.5t-29 -11.5h-208v-241h197q17 0 29 -11.5t12 -27.5q0 -17 -11.5 -29t-28.5 -12h-199v-241zM224 840
l-100 -40q-3 -2 -11 -2q-19 0 -32 10t-13 24q0 33 26 43l107 42q17 7 23 7q4 0 22 -7l107 -41q24 -9 24 -42q0 -16 -13.5 -26.5t-31.5 -10.5q-8 0 -12 3z" />
    <glyph glyph-name="Edieresis" unicode="&#xcb;" horiz-adv-x="448" 
d="M151 79h220q16 0 28 -11.5t12 -27.5q0 -17 -11.5 -28.5t-28.5 -11.5h-263q-20 0 -32 13t-12 35v628q0 20 13 32.5t32 12.5h252q17 0 28.5 -11.5t11.5 -28.5t-12 -28.5t-29 -11.5h-208v-241h197q17 0 29 -11.5t12 -27.5q0 -17 -11.5 -29t-28.5 -12h-199v-241zM75 852
q0 22 15.5 37.5t38.5 15.5q21 0 36.5 -15.5t15.5 -37.5t-15.5 -37t-36.5 -15q-23 0 -38.5 15t-15.5 37zM267 852q0 22 15 37.5t36 15.5q23 0 38.5 -15.5t15.5 -38.5q0 -21 -15.5 -36t-37.5 -15t-37 15t-15 37z" />
    <glyph glyph-name="Igrave" unicode="&#xcc;" horiz-adv-x="214" 
d="M150 34q0 -18 -12.5 -31t-29.5 -13q-19 0 -31.5 13t-12.5 31v650q0 18 13 31.5t31 13.5q17 0 29.5 -13.5t12.5 -31.5v-650zM22 856q-26 10 -26 42q0 14 13 24t31 10q5 0 11 -2l142 -55q27 -10 27 -44q0 -13 -13.5 -23t-31.5 -10q-7 0 -11 2z" />
    <glyph glyph-name="Iacute" unicode="&#xcd;" horiz-adv-x="214" 
d="M150 34q0 -18 -12.5 -31t-29.5 -13q-19 0 -31.5 13t-12.5 31v650q0 18 13 31.5t31 13.5q17 0 29.5 -13.5t12.5 -31.5v-650zM52 799q-8 -2 -11 -2q-17 0 -31 10.5t-14 24.5t7.5 26t19.5 16l142 55q4 2 12 2q17 0 30 -9.5t13 -22.5q0 -35 -26 -43z" />
    <glyph glyph-name="Icircumflex" unicode="&#xce;" horiz-adv-x="214" 
d="M150 34q0 -18 -12.5 -31t-29.5 -13q-19 0 -31.5 13t-12.5 31v650q0 18 13 31.5t31 13.5q17 0 29.5 -13.5t12.5 -31.5v-650zM108 840l-100 -40q-3 -2 -11 -2q-19 0 -32 10t-13 24q0 33 26 43l107 42q17 7 23 7q4 0 22 -7l107 -41q24 -9 24 -42q0 -16 -13.5 -26.5
t-31.5 -10.5q-8 0 -12 3z" />
    <glyph glyph-name="Idieresis" unicode="&#xcf;" horiz-adv-x="214" 
d="M150 34q0 -18 -12.5 -31t-29.5 -13q-19 0 -31.5 13t-12.5 31v650q0 18 13 31.5t31 13.5q17 0 29.5 -13.5t12.5 -31.5v-650zM-41 852q0 22 15.5 37.5t38.5 15.5q21 0 36.5 -15.5t15.5 -37.5t-15.5 -37t-36.5 -15q-23 0 -38.5 15t-15.5 37zM151 852q0 22 15 37.5t36 15.5
q23 0 38.5 -15.5t15.5 -38.5q0 -21 -15.5 -36t-37.5 -15t-37 15t-15 37z" />
    <glyph glyph-name="Ntilde" unicode="&#xd1;" horiz-adv-x="680" 
d="M150 572v-536q0 -18 -12 -31t-30 -13q-19 0 -31.5 13t-12.5 31v650q0 18 13 31t32 13q23 0 35 -20l387 -562v536q0 19 12 32.5t30 13.5t30.5 -13t12.5 -32v-653q0 -17 -12.5 -29.5t-31.5 -12.5q-21 0 -35 19zM233 808q-17 0 -28.5 11.5t-11.5 27.5q0 17 11.5 29t28.5 12
l212 -1q17 0 29 -12t12 -28t-12.5 -27.5t-29.5 -11.5h-211z" />
    <glyph glyph-name="Ograve" unicode="&#xd2;" horiz-adv-x="702" 
d="M37 361q0 162 87.5 265.5t226.5 103.5q138 0 226 -103.5t88 -266.5q0 -162 -88 -266t-226 -104q-139 0 -226.5 104t-87.5 267zM351 653q-101 0 -160.5 -79.5t-59.5 -213.5t59.5 -213.5t160.5 -79.5t160.5 79.5t59.5 213.5t-59.5 213.5t-160.5 79.5zM265 856
q-26 10 -26 42q0 14 13 24t31 10q5 0 11 -2l142 -55q27 -10 27 -44q0 -13 -13.5 -23t-31.5 -10q-7 0 -11 2z" />
    <glyph glyph-name="Oacute" unicode="&#xd3;" horiz-adv-x="702" 
d="M37 361q0 162 87.5 265.5t226.5 103.5q138 0 226 -103.5t88 -266.5q0 -162 -88 -266t-226 -104q-139 0 -226.5 104t-87.5 267zM351 653q-101 0 -160.5 -79.5t-59.5 -213.5t59.5 -213.5t160.5 -79.5t160.5 79.5t59.5 213.5t-59.5 213.5t-160.5 79.5zM296 799q-8 -2 -11 -2
q-17 0 -31 10.5t-14 24.5t7.5 26t19.5 16l142 55q4 2 12 2q17 0 30 -9.5t13 -22.5q0 -35 -26 -43z" />
    <glyph glyph-name="Ocircumflex" unicode="&#xd4;" horiz-adv-x="702" 
d="M37 361q0 162 87.5 265.5t226.5 103.5q138 0 226 -103.5t88 -266.5q0 -162 -88 -266t-226 -104q-139 0 -226.5 104t-87.5 267zM351 653q-101 0 -160.5 -79.5t-59.5 -213.5t59.5 -213.5t160.5 -79.5t160.5 79.5t59.5 213.5t-59.5 213.5t-160.5 79.5zM351 840l-100 -40
q-3 -2 -11 -2q-19 0 -32 10t-13 24q0 33 26 43l107 42q17 7 23 7q4 0 22 -7l107 -41q24 -9 24 -42q0 -16 -13.5 -26.5t-31.5 -10.5q-7 0 -12 3z" />
    <glyph glyph-name="Otilde" unicode="&#xd5;" horiz-adv-x="702" 
d="M37 361q0 162 87.5 265.5t226.5 103.5q138 0 226 -103.5t88 -266.5q0 -162 -88 -266t-226 -104q-139 0 -226.5 104t-87.5 267zM351 653q-101 0 -160.5 -79.5t-59.5 -213.5t59.5 -213.5t160.5 -79.5t160.5 79.5t59.5 213.5t-59.5 213.5t-160.5 79.5zM244 808
q-17 0 -28.5 11.5t-11.5 27.5q0 17 11.5 29t28.5 12l212 -1q17 0 29 -12t12 -28t-12.5 -27.5t-29.5 -11.5h-211z" />
    <glyph glyph-name="Odieresis" unicode="&#xd6;" horiz-adv-x="702" 
d="M64 739q0 22 14.5 37t36.5 15q20 0 34.5 -15t14.5 -37q0 -21 -14.5 -35t-35.5 -14t-35.5 14t-14.5 35zM537 738q1 22 18 37.5t41 15.5q17 0 29.5 -14.5t12.5 -35.5q0 -22 -14.5 -36.5t-35.5 -14.5t-36 14t-15 34zM37 361q0 162 87.5 265.5t226.5 103.5q138 0 226 -103.5
t88 -266.5q0 -162 -88 -266t-226 -104q-139 0 -226.5 104t-87.5 267zM351 653q-101 0 -160.5 -79.5t-59.5 -213.5t59.5 -213.5t160.5 -79.5t160.5 79.5t59.5 213.5t-59.5 213.5t-160.5 79.5z" />
    <glyph glyph-name="Oslash" unicode="&#xd8;" horiz-adv-x="703" 
d="M560 645l68 80q9 9 23 9q26 0 26 -28q0 -12 -8 -22l-70 -83q40 -76 53 -123t13 -116q0 -163 -88 -267.5t-225 -104.5q-65 0 -104.5 16t-98.5 66l-66 -76q-8 -11 -26 -11q-25 0 -25 24q0 13 9 26l69 81q-45 76 -59 122.5t-14 122.5q0 162 87.5 266t224.5 104
q64 0 105.5 -17t105.5 -69zM170 185l335 397q-46 42 -77 55.5t-79 13.5q-100 0 -159 -79.5t-59 -214.5q0 -56 7 -87.5t32 -84.5zM538 532l-335 -398q45 -38 74.5 -50.5t76.5 -12.5q101 0 159 78t58 213q0 48 -6.5 80.5t-26.5 89.5z" />
    <glyph glyph-name="Ugrave" unicode="&#xd9;" horiz-adv-x="683" 
d="M619 255q0 -66 -18 -110.5t-59 -80.5q-84 -75 -200 -75t-200 75q-42 36 -60 80.5t-18 110.5v428q0 19 12.5 32t31.5 13q17 0 29.5 -13t12.5 -32v-428q0 -49 11.5 -79.5t40.5 -56.5q58 -53 140 -53q81 0 139 53q29 26 40.5 56t11.5 80v428q0 19 12.5 32t29.5 13
q19 0 31.5 -13t12.5 -32v-428zM256 856q-26 10 -26 42q0 14 13 24t31 10q5 0 11 -2l142 -55q27 -10 27 -44q0 -13 -13.5 -23t-31.5 -10q-7 0 -11 2z" />
    <glyph glyph-name="Uacute" unicode="&#xda;" horiz-adv-x="683" 
d="M619 255q0 -66 -18 -110.5t-59 -80.5q-84 -75 -200 -75t-200 75q-42 36 -60 80.5t-18 110.5v428q0 19 12.5 32t31.5 13q17 0 29.5 -13t12.5 -32v-428q0 -49 11.5 -79.5t40.5 -56.5q58 -53 140 -53q81 0 139 53q29 26 40.5 56t11.5 80v428q0 19 12.5 32t29.5 13
q19 0 31.5 -13t12.5 -32v-428zM286 799q-8 -2 -11 -2q-17 0 -31 10.5t-14 24.5t7.5 26t19.5 16l142 55q4 2 12 2q17 0 30 -9.5t13 -22.5q0 -35 -26 -43z" />
    <glyph glyph-name="Ucircumflex" unicode="&#xdb;" horiz-adv-x="683" 
d="M619 255q0 -66 -18 -110.5t-59 -80.5q-84 -75 -200 -75t-200 75q-42 36 -60 80.5t-18 110.5v428q0 19 12.5 32t31.5 13q17 0 29.5 -13t12.5 -32v-428q0 -49 11.5 -79.5t40.5 -56.5q58 -53 140 -53q81 0 139 53q29 26 40.5 56t11.5 80v428q0 19 12.5 32t29.5 13
q19 0 31.5 -13t12.5 -32v-428zM342 840l-100 -40q-3 -2 -11 -2q-19 0 -32 10t-13 24q0 33 26 43l107 42q17 7 23 7q4 0 22 -7l107 -41q24 -9 24 -42q0 -16 -13.5 -26.5t-31.5 -10.5q-8 0 -12 3z" />
    <glyph glyph-name="Udieresis" unicode="&#xdc;" horiz-adv-x="683" 
d="M211 736q0 21 14.5 36t35.5 15t36 -15t15 -36t-14.5 -36.5t-35.5 -15.5t-36 15.5t-15 36.5zM371 736q0 21 15 36t37 15q20 0 34.5 -15t14.5 -36t-14.5 -36.5t-35.5 -15.5t-36 15.5t-15 36.5zM619 255q0 -66 -18 -110.5t-59 -80.5q-84 -75 -200 -75t-200 75
q-42 36 -60 80.5t-18 110.5v428q0 19 12.5 32t31.5 13q17 0 29.5 -13t12.5 -32v-428q0 -49 11.5 -79.5t40.5 -56.5q58 -53 140 -53q81 0 139 53q29 26 40.5 56t11.5 80v428q0 19 12.5 32t29.5 13q19 0 31.5 -13t12.5 -32v-428z" />
    <glyph glyph-name="germandbls" unicode="&#xdf;" horiz-adv-x="559" 
d="M383 426q50 -22 72.5 -43t40.5 -63q20 -48 20 -97q0 -97 -55 -165t-133 -68q-31 0 -48.5 12.5t-17.5 33.5q0 16 10.5 27.5t26.5 11.5l24 1q47 2 75 41.5t28 106.5q0 68 -31.5 108t-88.5 44q-27 1 -38 10t-11 28q0 12 6.5 22t15.5 13l24 7q32 9 51 40t19 76q0 57 -30 92
t-79 35q-55 0 -85.5 -35t-30.5 -99v-530q0 -18 -12 -31t-29 -13q-18 0 -30.5 13t-12.5 32v518q0 106 53 165t149 59q84 0 138 -56t54 -144q0 -32 -10 -69q-10 -28 -23 -44.5t-42 -38.5z" />
    <glyph glyph-name="agrave" unicode="&#xe0;" horiz-adv-x="568" 
d="M419 471v33q0 16 13 27.5t31 11.5q16 0 28 -12.5t12 -29.5v-469q0 -17 -12 -29.5t-29 -12.5q-19 0 -32 12.5t-13 29.5v42q-37 -49 -67.5 -66t-82.5 -17q-100 0 -165 78t-65 197t65 198t165 79q49 0 80 -14.5t72 -57.5zM278 470q-69 0 -111 -55.5t-42 -147.5t40.5 -147.5
t108.5 -55.5q72 0 109.5 52.5t37.5 154.5q0 99 -36 146q-41 53 -107 53zM198 635q-26 10 -26 42q0 14 13 24t31 10q5 0 11 -2l142 -55q27 -10 27 -44q0 -13 -13.5 -23t-31.5 -10q-7 0 -11 2z" />
    <glyph glyph-name="aacute" unicode="&#xe1;" horiz-adv-x="568" 
d="M419 471v33q0 16 13 27.5t31 11.5q16 0 28 -12.5t12 -29.5v-469q0 -17 -12 -29.5t-29 -12.5q-19 0 -32 12.5t-13 29.5v42q-37 -49 -67.5 -66t-82.5 -17q-100 0 -165 78t-65 197t65 198t165 79q49 0 80 -14.5t72 -57.5zM278 470q-69 0 -111 -55.5t-42 -147.5t40.5 -147.5
t108.5 -55.5q72 0 109.5 52.5t37.5 154.5q0 99 -36 146q-41 53 -107 53zM229 578q-8 -2 -11 -2q-17 0 -31 10.5t-14 24.5t7.5 26t19.5 16l142 55q4 2 12 2q17 0 30 -9.5t13 -22.5q0 -35 -26 -43z" />
    <glyph glyph-name="acircumflex" unicode="&#xe2;" horiz-adv-x="568" 
d="M419 471v33q0 16 13 27.5t31 11.5q16 0 28 -12.5t12 -29.5v-469q0 -17 -12 -29.5t-29 -12.5q-19 0 -32 12.5t-13 29.5v42q-37 -49 -67.5 -66t-82.5 -17q-100 0 -165 78t-65 197t65 198t165 79q49 0 80 -14.5t72 -57.5zM278 470q-69 0 -111 -55.5t-42 -147.5t40.5 -147.5
t108.5 -55.5q72 0 109.5 52.5t37.5 154.5q0 99 -36 146q-41 53 -107 53zM284 619l-100 -40q-3 -2 -11 -2q-19 0 -32 10t-13 24q0 33 26 43l107 42q17 7 23 7q4 0 22 -7l107 -41q24 -9 24 -42q0 -16 -13.5 -26.5t-31.5 -10.5q-8 0 -12 3z" />
    <glyph glyph-name="atilde" unicode="&#xe3;" horiz-adv-x="568" 
d="M419 471v33q0 16 13 27.5t31 11.5q16 0 28 -12.5t12 -29.5v-469q0 -17 -12 -29.5t-29 -12.5q-19 0 -32 12.5t-13 29.5v42q-37 -49 -67.5 -66t-82.5 -17q-100 0 -165 78t-65 197t65 198t165 79q49 0 80 -14.5t72 -57.5zM278 470q-69 0 -111 -55.5t-42 -147.5t40.5 -147.5
t108.5 -55.5q72 0 109.5 52.5t37.5 154.5q0 99 -36 146q-41 53 -107 53zM177 587q-17 0 -28.5 11.5t-11.5 27.5q0 17 11.5 29t28.5 12l212 -1q17 0 29 -12t12 -28t-12.5 -27.5t-29.5 -11.5h-211z" />
    <glyph glyph-name="adieresis" unicode="&#xe4;" horiz-adv-x="568" 
d="M141 652q0 23 15.5 39t37.5 16t37 -15.5t15 -37.5t-15 -38t-36 -16q-23 0 -38.5 15t-15.5 37zM331 654q0 22 15.5 37.5t37.5 15.5t37.5 -16t15.5 -38t-15.5 -37.5t-37.5 -15.5t-37.5 16t-15.5 38zM419 471v33q0 16 13 27.5t31 11.5q16 0 28 -12.5t12 -29.5v-469
q0 -17 -12 -29.5t-29 -12.5q-19 0 -32 12.5t-13 29.5v42q-37 -49 -67.5 -66t-82.5 -17q-100 0 -165 78t-65 197t65 198t165 79q49 0 80 -14.5t72 -57.5zM278 470q-69 0 -111 -55.5t-42 -147.5t40.5 -147.5t108.5 -55.5q72 0 109.5 52.5t37.5 154.5q0 99 -36 146
q-41 53 -107 53z" />
    <glyph glyph-name="aring" unicode="&#xe5;" horiz-adv-x="568" 
d="M419 471v33q0 16 13 27.5t31 11.5q16 0 28 -12.5t12 -29.5v-469q0 -17 -12 -29.5t-29 -12.5q-19 0 -32 12.5t-13 29.5v42q-37 -49 -67.5 -66t-82.5 -17q-100 0 -165 78t-65 197t65 198t165 79q49 0 80 -14.5t72 -57.5zM196 662q0 32 24 55.5t58 23.5t57.5 -23.5
t23.5 -55.5q0 -33 -24 -55.5t-58 -22.5t-57.5 22.5t-23.5 55.5zM278 470q-69 0 -111 -55.5t-42 -147.5t40.5 -147.5t108.5 -55.5q72 0 109.5 52.5t37.5 154.5q0 99 -36 146q-41 53 -107 53zM278 697q-16 0 -26.5 -10t-10.5 -24q0 -16 10.5 -26.5t25.5 -10.5t26 10.5t11 25.5
t-10.5 25t-25.5 10z" />
    <glyph glyph-name="ae" unicode="&#xe6;" horiz-adv-x="905" 
d="M418 467v36q0 17 11.5 28.5t27.5 11.5q17 0 28 -10t11 -26v-40q44 44 76 59t80 15q93 0 158.5 -77t65.5 -186q0 -42 -23 -42h-27h-325q4 -44 12 -67t29 -47q47 -53 123 -53q66 0 124 42l25 19q14 8 23 8q12 0 21 -9q14 -14 14 -31q0 -24 -33 -47q-75 -59 -175 -59
q-59 0 -90.5 13.5t-76.5 59.5v-40q0 -16 -11 -26.5t-28 -10.5t-28 11t-11 29v48q-13 -21 -19 -27q-22 -26 -59 -42t-77 -16q-98 0 -162.5 77.5t-64.5 194.5q0 120 64.5 199t164.5 79q94 0 152 -74zM271 462q-67 0 -107 -55t-40 -146q0 -85 41.5 -137t109.5 -52q67 0 105 53
t38 146q0 90 -38.5 140.5t-108.5 50.5zM528 403q-26 -39 -27 -105h289q-9 64 -29 100q-40 68 -117 68q-73 0 -116 -63z" />
    <glyph glyph-name="ccedilla" unicode="&#xe7;" horiz-adv-x="450" 
d="M314 -19l-76 -99q-12 -14 -35 -14q-28 0 -28 28q0 17 8 24l54 61h77zM357 93q19 8 26 8q16 0 27 -11.5t11 -27.5q0 -29 -41 -50t-100 -21q-109 0 -176 76.5t-67 198.5t68.5 199.5t176.5 77.5q58 0 100 -18t42 -44q0 -18 -12 -31t-28 -13q-8 0 -19 3l-2 1q-2 1 -5.5 3
t-7.5 4q-39 17 -68 17q-69 0 -111.5 -53.5t-42.5 -140.5q0 -86 43 -143t108 -57q22 0 58 14z" />
    <glyph glyph-name="egrave" unicode="&#xe8;" horiz-adv-x="537" 
d="M131 234q9 -56 26 -90q16 -35 52.5 -56t80.5 -21q64 0 115 42q8 6 18 14t13 10q14 9 28 9t25.5 -12t11.5 -27q0 -18 -16 -34q-34 -36 -87.5 -57.5t-108.5 -21.5q-112 0 -182 77t-70 200q0 118 68 196.5t171 78.5q57 0 106 -26.5t77 -72.5q21 -32 35.5 -80t14.5 -84
q0 -26 -11.5 -35.5t-42.5 -9.5h-324zM162 405q-14 -23 -21 -44t-12 -62h290q-24 171 -144 171q-72 0 -113 -65zM183 635q-26 10 -26 42q0 14 13 24t31 10q5 0 11 -2l142 -55q27 -10 27 -44q0 -13 -13.5 -23t-31.5 -10q-7 0 -11 2z" />
    <glyph glyph-name="eacute" unicode="&#xe9;" horiz-adv-x="537" 
d="M131 234q9 -56 26 -90q16 -35 52.5 -56t80.5 -21q64 0 115 42q8 6 18 14t13 10q14 9 28 9t25.5 -12t11.5 -27q0 -18 -16 -34q-34 -36 -87.5 -57.5t-108.5 -21.5q-112 0 -182 77t-70 200q0 118 68 196.5t171 78.5q57 0 106 -26.5t77 -72.5q21 -32 35.5 -80t14.5 -84
q0 -26 -11.5 -35.5t-42.5 -9.5h-324zM162 405q-14 -23 -21 -44t-12 -62h290q-24 171 -144 171q-72 0 -113 -65zM213 578q-8 -2 -11 -2q-17 0 -31 10.5t-14 24.5t7.5 26t19.5 16l142 55q4 2 12 2q17 0 30 -9.5t13 -22.5q0 -35 -26 -43z" />
    <glyph glyph-name="ecircumflex" unicode="&#xea;" horiz-adv-x="537" 
d="M131 234q9 -56 26 -90q16 -35 52.5 -56t80.5 -21q64 0 115 42q8 6 18 14t13 10q14 9 28 9t25.5 -12t11.5 -27q0 -18 -16 -34q-34 -36 -87.5 -57.5t-108.5 -21.5q-112 0 -182 77t-70 200q0 118 68 196.5t171 78.5q57 0 106 -26.5t77 -72.5q21 -32 35.5 -80t14.5 -84
q0 -26 -11.5 -35.5t-42.5 -9.5h-324zM162 405q-14 -23 -21 -44t-12 -62h290q-24 171 -144 171q-72 0 -113 -65zM269 619l-100 -40q-3 -2 -11 -2q-19 0 -32 10t-13 24q0 33 26 43l107 42q17 7 23 7q4 0 22 -7l107 -41q24 -9 24 -42q0 -16 -13.5 -26.5t-31.5 -10.5q-7 0 -12 3
z" />
    <glyph glyph-name="edieresis" unicode="&#xeb;" horiz-adv-x="537" 
d="M131 234q9 -56 26 -90q16 -35 52.5 -56t80.5 -21q64 0 115 42q8 6 18 14t13 10q14 9 28 9t25.5 -12t11.5 -27q0 -18 -16 -34q-34 -36 -87.5 -57.5t-108.5 -21.5q-112 0 -182 77t-70 200q0 118 68 196.5t171 78.5q57 0 106 -26.5t77 -72.5q21 -32 35.5 -80t14.5 -84
q0 -26 -11.5 -35.5t-42.5 -9.5h-324zM162 405q-14 -23 -21 -44t-12 -62h290q-24 171 -144 171q-72 0 -113 -65zM120 631q0 22 15.5 37.5t38.5 15.5q21 0 36.5 -15.5t15.5 -37.5t-15.5 -37t-36.5 -15q-23 0 -38.5 15t-15.5 37zM312 631q0 22 15 37.5t36 15.5q23 0 38.5 -15.5
t15.5 -38.5q0 -21 -15.5 -36t-37.5 -15t-37 15t-15 37z" />
    <glyph glyph-name="igrave" unicode="&#xec;" horiz-adv-x="191" 
d="M137 34q0 -18 -12 -30.5t-30 -12.5q-17 0 -29.5 12.5t-12.5 30.5v467q0 17 12.5 29.5t30.5 12.5q17 0 29 -12.5t12 -29.5v-467zM10 635q-26 10 -26 42q0 14 13 24t31 10q5 0 11 -2l142 -55q27 -10 27 -44q0 -13 -13.5 -23t-31.5 -10q-7 0 -11 2z" />
    <glyph glyph-name="iacute" unicode="&#xed;" horiz-adv-x="191" 
d="M137 34q0 -18 -12 -30.5t-30 -12.5q-17 0 -29.5 12.5t-12.5 30.5v467q0 17 12.5 29.5t30.5 12.5q17 0 29 -12.5t12 -29.5v-467zM41 578q-8 -2 -11 -2q-17 0 -31 10.5t-14 24.5t7.5 26t19.5 16l142 55q4 2 12 2q17 0 30 -9.5t13 -22.5q0 -35 -26 -43z" />
    <glyph glyph-name="icircumflex" unicode="&#xee;" horiz-adv-x="191" 
d="M137 34q0 -18 -12 -30.5t-30 -12.5q-17 0 -29.5 12.5t-12.5 30.5v467q0 17 12.5 29.5t30.5 12.5q17 0 29 -12.5t12 -29.5v-467zM96 619l-100 -40q-3 -2 -11 -2q-19 0 -32 10t-13 24q0 33 26 43l107 42q17 7 23 7q4 0 22 -7l107 -41q24 -9 24 -42q0 -16 -13.5 -26.5
t-31.5 -10.5q-8 0 -12 3z" />
    <glyph glyph-name="idieresis" unicode="&#xef;" horiz-adv-x="191" 
d="M137 34q0 -18 -12 -30.5t-30 -12.5q-17 0 -29.5 12.5t-12.5 30.5v467q0 17 12.5 29.5t30.5 12.5q17 0 29 -12.5t12 -29.5v-467zM-53 631q0 22 15.5 37.5t38.5 15.5q21 0 36.5 -15.5t15.5 -37.5t-15.5 -37t-36.5 -15q-23 0 -38.5 15t-15.5 37zM139 631q0 22 15 37.5
t36 15.5q23 0 38.5 -15.5t15.5 -38.5q0 -21 -15.5 -36t-37.5 -15t-37 15t-15 37z" />
    <glyph glyph-name="ntilde" unicode="&#xf1;" horiz-adv-x="548" 
d="M148 471q17 22 29 32t33 20q40 20 82 20q83 0 140 -59q52 -49 52 -145v-308q0 -17 -12.5 -29.5t-29.5 -12.5q-18 0 -30 12.5t-12 29.5v307q0 54 -36 91.5t-87 37.5q-53 0 -91 -37t-38 -89v-310q0 -17 -12 -29t-29 -12q-18 0 -30.5 12t-12.5 29v470q0 17 13 30t31 13
q16 0 28 -11.5t12 -27.5v-34zM167 587q-17 0 -28.5 11.5t-11.5 27.5q0 17 11.5 29t28.5 12l212 -1q17 0 29 -12t12 -28t-12.5 -27.5t-29.5 -11.5h-211z" />
    <glyph glyph-name="ograve" unicode="&#xf2;" horiz-adv-x="546" 
d="M37 267q0 118 67.5 197t169.5 79q101 0 168 -79.5t67 -197.5t-67.5 -197.5t-167.5 -79.5q-102 0 -169.5 79.5t-67.5 198.5zM272 467q-65 0 -105.5 -55.5t-40.5 -144.5q0 -91 41 -146.5t107 -55.5q65 0 105 55.5t40 145.5t-40.5 145.5t-106.5 55.5zM187 635q-26 10 -26 42
q0 14 13 24t31 10q5 0 11 -2l142 -55q27 -10 27 -44q0 -13 -13.5 -23t-31.5 -10q-7 0 -11 2z" />
    <glyph glyph-name="oacute" unicode="&#xf3;" horiz-adv-x="546" 
d="M37 267q0 118 67.5 197t169.5 79q101 0 168 -79.5t67 -197.5t-67.5 -197.5t-167.5 -79.5q-102 0 -169.5 79.5t-67.5 198.5zM272 467q-65 0 -105.5 -55.5t-40.5 -144.5q0 -91 41 -146.5t107 -55.5q65 0 105 55.5t40 145.5t-40.5 145.5t-106.5 55.5zM218 578q-8 -2 -11 -2
q-17 0 -31 10.5t-14 24.5t7.5 26t19.5 16l142 55q4 2 12 2q17 0 30 -9.5t13 -22.5q0 -35 -26 -43z" />
    <glyph glyph-name="ocircumflex" unicode="&#xf4;" horiz-adv-x="546" 
d="M37 267q0 118 67.5 197t169.5 79q101 0 168 -79.5t67 -197.5t-67.5 -197.5t-167.5 -79.5q-102 0 -169.5 79.5t-67.5 198.5zM272 467q-65 0 -105.5 -55.5t-40.5 -144.5q0 -91 41 -146.5t107 -55.5q65 0 105 55.5t40 145.5t-40.5 145.5t-106.5 55.5zM273 619l-100 -40
q-3 -2 -11 -2q-19 0 -32 10t-13 24q0 33 26 43l107 42q17 7 23 7q4 0 22 -7l107 -41q24 -9 24 -42q0 -16 -13.5 -26.5t-31.5 -10.5q-7 0 -12 3z" />
    <glyph glyph-name="otilde" unicode="&#xf5;" horiz-adv-x="546" 
d="M37 267q0 118 67.5 197t169.5 79q101 0 168 -79.5t67 -197.5t-67.5 -197.5t-167.5 -79.5q-102 0 -169.5 79.5t-67.5 198.5zM272 467q-65 0 -105.5 -55.5t-40.5 -144.5q0 -91 41 -146.5t107 -55.5q65 0 105 55.5t40 145.5t-40.5 145.5t-106.5 55.5zM166 587
q-17 0 -28.5 11.5t-11.5 27.5q0 17 11.5 29t28.5 12l212 -1q17 0 29 -12t12 -28t-12.5 -27.5t-29.5 -11.5h-211z" />
    <glyph glyph-name="odieresis" unicode="&#xf6;" horiz-adv-x="546" 
d="M125 658q0 22 15.5 37t37.5 15t37 -15t15 -37t-15 -37.5t-37 -15.5t-37.5 15.5t-15.5 37.5zM317 658q0 22 14.5 37t37.5 15q22 0 37.5 -15.5t15.5 -37.5t-15.5 -37t-37.5 -15t-37 15.5t-15 37.5zM37 267q0 118 67.5 197t169.5 79q101 0 168 -79.5t67 -197.5t-67.5 -197.5
t-167.5 -79.5q-102 0 -169.5 79.5t-67.5 198.5zM272 467q-65 0 -105.5 -55.5t-40.5 -144.5q0 -91 41 -146.5t107 -55.5q65 0 105 55.5t40 145.5t-40.5 145.5t-106.5 55.5z" />
    <glyph glyph-name="divide" unicode="&#xf7;" horiz-adv-x="594" 
d="M234 141q19 17 41 17q24 0 40 -16t16 -41q0 -24 -17 -40q-15 -17 -39 -17t-41 17q-16 18 -16 40q0 24 16 40zM506 270v-68h-463v68h463zM234 410q17 15 41 17q24 0 39 -17q17 -17 17 -40q0 -24 -17 -40q-15 -17 -39 -17t-41 17q-16 16 -16 40t16 40z" />
    <glyph glyph-name="oslash" unicode="&#xf8;" horiz-adv-x="546" 
d="M129 46l-49 -59q-8 -10 -25 -10q-24 0 -24 24q0 15 9 28l48 59q-31 57 -41 93t-10 85q0 119 67.5 198.5t169.5 79.5q40 0 69 -10.5t75 -42.5l49 59q7 10 26 10q25 0 25 -25q0 -15 -8 -24l-55 -67q33 -59 43.5 -93.5t10.5 -83.5q0 -120 -67.5 -198.5t-170.5 -78.5
q-45 0 -73 11t-69 45zM148 159l217 268q-25 24 -43.5 32t-47.5 8q-67 0 -107.5 -56t-40.5 -148q0 -44 22 -104zM398 375l-220 -269q26 -23 44.5 -31t48.5 -8q66 0 106.5 55t40.5 144q0 55 -20 109z" />
    <glyph glyph-name="ugrave" unicode="&#xf9;" horiz-adv-x="551" 
d="M486 199q0 -58 -11 -90.5t-40 -60.5q-58 -58 -159 -58q-97 0 -160 58q-29 26 -40.5 60t-11.5 91v300q0 18 12.5 31t31.5 13q17 0 29 -13t12 -31v-299q0 -68 32 -99q33 -35 95 -35q56 0 94 35q32 28 32 99v299q0 18 12 31t29 13q18 0 30.5 -13t12.5 -31v-300zM190 635
q-26 10 -26 42q0 14 13 24t31 10q5 0 11 -2l142 -55q27 -10 27 -44q0 -13 -13.5 -23t-31.5 -10q-7 0 -11 2z" />
    <glyph glyph-name="uacute" unicode="&#xfa;" horiz-adv-x="551" 
d="M486 199q0 -58 -11 -90.5t-40 -60.5q-58 -58 -159 -58q-97 0 -160 58q-29 26 -40.5 60t-11.5 91v300q0 18 12.5 31t31.5 13q17 0 29 -13t12 -31v-299q0 -68 32 -99q33 -35 95 -35q56 0 94 35q32 28 32 99v299q0 18 12 31t29 13q18 0 30.5 -13t12.5 -31v-300zM220 578
q-8 -2 -11 -2q-17 0 -31 10.5t-14 24.5t7.5 26t19.5 16l142 55q4 2 12 2q17 0 30 -9.5t13 -22.5q0 -35 -26 -43z" />
    <glyph glyph-name="ucircumflex" unicode="&#xfb;" horiz-adv-x="551" 
d="M486 199q0 -58 -11 -90.5t-40 -60.5q-58 -58 -159 -58q-97 0 -160 58q-29 26 -40.5 60t-11.5 91v300q0 18 12.5 31t31.5 13q17 0 29 -13t12 -31v-299q0 -68 32 -99q33 -35 95 -35q56 0 94 35q32 28 32 99v299q0 18 12 31t29 13q18 0 30.5 -13t12.5 -31v-300zM276 619
l-100 -40q-3 -2 -11 -2q-19 0 -32 10t-13 24q0 33 26 43l107 42q17 7 23 7q4 0 22 -7l107 -41q24 -9 24 -42q0 -16 -13.5 -26.5t-31.5 -10.5q-8 0 -12 3z" />
    <glyph glyph-name="udieresis" unicode="&#xfc;" horiz-adv-x="551" 
d="M128 658q0 23 15.5 38t38.5 15q21 0 35.5 -15.5t14.5 -37.5t-14.5 -37t-35.5 -15q-22 0 -37.5 15t-16.5 37zM318 658q0 22 15.5 37.5t36.5 15.5q22 0 37.5 -15.5t15.5 -37.5t-15.5 -37t-37.5 -15q-21 0 -36.5 15t-15.5 37zM486 199q0 -58 -11 -90.5t-40 -60.5
q-58 -58 -159 -58q-97 0 -160 58q-29 26 -40.5 60t-11.5 91v300q0 18 12.5 31t31.5 13q17 0 29 -13t12 -31v-299q0 -68 32 -99q33 -35 95 -35q56 0 94 35q32 28 32 99v299q0 18 12 31t29 13q18 0 30.5 -13t12.5 -31v-300z" />
    <glyph glyph-name="ydieresis" unicode="&#xff;" horiz-adv-x="434" 
d="M174 16l-164 469q-2 5 -2 14q0 18 12 31t30 13q31 0 42 -32l126 -378l121 375q12 34 43 34q17 0 29.5 -12t12.5 -29q0 -4 -2 -16l-235 -669q-13 -37 -42 -37q-18 0 -30 11.5t-12 27.5q0 9 3 18zM68 631q0 22 15.5 37.5t38.5 15.5q21 0 36.5 -15.5t15.5 -37.5t-15.5 -37
t-36.5 -15q-23 0 -38.5 15t-15.5 37zM260 631q0 22 15 37.5t36 15.5q23 0 38.5 -15.5t15.5 -38.5q0 -21 -15.5 -36t-37.5 -15t-37 15t-15 37z" />
    <glyph glyph-name="dotlessi" unicode="&#x131;" horiz-adv-x="191" 
d="M137 34q0 -18 -12 -30.5t-30 -12.5q-17 0 -29.5 12.5t-12.5 30.5v467q0 17 12.5 29.5t30.5 12.5q17 0 29 -12.5t12 -29.5v-467z" />
    <glyph glyph-name="OE" unicode="&#x152;" horiz-adv-x="945" 
d="M569 614v70q0 17 11.5 27t30.5 10h247q17 0 29 -12t12 -29q0 -16 -11.5 -27.5t-28.5 -11.5h-208v-241h198q16 0 28 -12t12 -30q0 -16 -12 -27t-29 -11h-199v-242h219q17 0 28.5 -11.5t11.5 -28.5q0 -16 -12 -27t-29 -11h-259q-18 0 -29 9.5t-11 25.5v76q-13 -20 -22 -31
q-32 -41 -85 -65t-114 -24q-137 0 -223.5 102.5t-86.5 263.5q0 166 86 270.5t224 104.5q57 0 112 -22q37 -15 59 -34.5t51 -61.5zM348 649q-99 0 -159 -80t-60 -212q0 -128 60 -206.5t159 -78.5q101 0 160.5 77.5t59.5 207.5q0 133 -60 212.5t-160 79.5z" />
    <glyph glyph-name="oe" unicode="&#x153;" horiz-adv-x="915" 
d="M463 428q16 24 25 36q27 38 71.5 59t95.5 21q99 0 164.5 -75t65.5 -188q0 -26 -10.5 -34.5t-43.5 -8.5h-321q6 -79 47.5 -122.5t110.5 -43.5q28 0 57 8q42 14 83 46q19 16 31 16q17 0 28 -11t11 -28q0 -22 -24 -42q-80 -70 -189 -70q-58 0 -106 24q-33 16 -52 34t-44 56
q-77 -113 -194 -113q-100 0 -166 78t-66 196q0 119 66.5 198t167.5 79q50 0 99 -23q31 -16 49.5 -34.5t43.5 -57.5zM272 470q-66 0 -106 -55.5t-40 -148.5q0 -90 40.5 -145t107.5 -55q68 0 105.5 54.5t37.5 153.5q0 92 -38.5 144t-106.5 52zM536 398q-17 -32 -27 -96h288
q-7 81 -44 123.5t-100 42.5q-79 0 -117 -70z" />
    <glyph glyph-name="Scaron" unicode="&#x160;" horiz-adv-x="489" 
d="M301 414q47 -17 76 -31q41 -21 66 -64.5t25 -94.5q0 -101 -68.5 -167t-172.5 -66q-76 0 -143 32q-57 27 -57 59q0 17 11.5 29.5t27.5 12.5q14 0 30 -9l21 -12q56 -32 111 -32q63 0 106 42t43 104q0 44 -24 71t-81 46l-56 20q-84 28 -121 59q-58 45 -58 125q0 81 63 136.5
t155 55.5q60 0 118 -28q52 -27 52 -56q0 -16 -12 -28.5t-27 -12.5q-7 0 -9 1q-12 4 -18 7q-14 7 -20 11q-49 26 -88 26q-50 0 -85.5 -30.5t-35.5 -73.5q0 -36 26 -63q14 -15 31 -24.5t58 -23.5zM246 884l97 40q8 2 12 2q19 0 31.5 -10t12.5 -25q0 -31 -24 -43l-103 -41
q-21 -7 -25 -7q-2 0 -24 6l-107 42q-24 12 -24 42q0 15 13.5 25.5t30.5 10.5q7 0 10 -2z" />
    <glyph glyph-name="scaron" unicode="&#x161;" horiz-adv-x="446" 
d="M199 249q-93 37 -124.5 66.5t-31.5 76.5q0 65 52 108t130 43q68 0 131 -33q48 -24 48 -56q0 -16 -11 -27.5t-27 -11.5q-14 0 -33 13q-12 9 -27 16q-40 23 -83 23q-41 0 -66.5 -19t-25.5 -49q0 -16 4 -23.5t17 -16.5q25 -17 85 -41q73 -29 111 -52q69 -42 69 -117
q0 -68 -56.5 -113t-141.5 -45q-65 0 -131 35q-65 36 -65 69q0 17 11.5 29.5t26.5 12.5q17 0 47 -26q54 -44 117 -44q44 0 75 24t31 58q0 46 -86 81zM225 663l97 40q8 2 12 2q19 0 31.5 -10t12.5 -25q0 -31 -24 -43l-103 -41q-21 -7 -25 -7q-2 0 -24 6l-107 42q-24 12 -24 42
q0 15 13.5 25.5t30.5 10.5q7 0 10 -2z" />
    <glyph glyph-name="Ydieresis" unicode="&#x178;" horiz-adv-x="506" 
d="M210 338l-199 326q-8 9 -8 25t12.5 27.5t29.5 11.5q26 0 38 -22l170 -280l170 280q12 22 38 22q18 0 30 -11.5t12 -27.5q0 -15 -7 -25l-199 -326v-302q0 -20 -12.5 -32.5t-31.5 -12.5t-31 12.5t-12 32.5v302zM104 852q0 22 15.5 37.5t38.5 15.5q21 0 36.5 -15.5
t15.5 -37.5t-15.5 -37t-36.5 -15q-23 0 -38.5 15t-15.5 37zM296 852q0 22 15 37.5t36 15.5q23 0 38.5 -15.5t15.5 -38.5q0 -21 -15.5 -36t-37.5 -15t-37 15t-15 37z" />
    <glyph glyph-name="Zcaron" unicode="&#x17d;" horiz-adv-x="576" 
d="M139 78h364q19 0 32 -11t13 -27q0 -17 -13 -28.5t-32 -11.5h-404q-68 0 -68 48q0 12 11 32l374 564h-331q-16 0 -27.5 11.5t-11.5 26.5q0 16 11.5 27.5t27.5 11.5h363q34 0 53 -3q14 -2 23 -10.5t9 -21.5q0 -15 -16 -42zM290 884l97 40q8 2 12 2q19 0 31.5 -10t12.5 -25
q0 -31 -24 -43l-103 -41q-21 -7 -25 -7q-2 0 -24 6l-107 42q-24 12 -24 42q0 15 13 25.5t31 10.5q7 0 10 -2z" />
    <glyph glyph-name="zcaron" unicode="&#x17e;" horiz-adv-x="452" 
d="M144 77h245q19 0 32 -11t13 -27t-13 -27.5t-32 -11.5h-321q-41 0 -41 37q0 15 8 26l269 394h-225q-18 0 -30.5 11t-12.5 27t12.5 27.5t29.5 11.5h301q43 0 43 -36q0 -11 -9 -24zM228 663l97 40q8 2 12 2q19 0 31.5 -10t12.5 -25q0 -31 -24 -43l-103 -41q-21 -7 -25 -7
q-2 0 -24 6l-107 42q-24 12 -24 42q0 15 13 25.5t31 10.5q7 0 10 -2z" />
    <glyph glyph-name="florin" unicode="&#x192;" horiz-adv-x="354" 
d="M234 455l-57 -561q-5 -53 -35.5 -82.5t-80.5 -29.5l-37 -1q-21 0 -35 10t-14 24q0 18 14.5 30.5t35.5 12.5h16q1 0 3.5 -0.5t4.5 -0.5q18 0 31 11q7 7 9 15t5 40l55 532h-47q-14 0 -23.5 11.5t-9.5 28.5q0 16 12 26.5t29 10.5h45l15 132q4 49 36.5 79.5t79.5 30.5l40 -1
q20 0 32.5 -9.5t12.5 -25.5t-12.5 -28.5t-27.5 -12.5q-10 0 -24 1h-4q-26 0 -37 -9q-9 -9 -10 -21q-1 -3 -4 -37l-11 -99l64 -1q14 0 24 -10.5t10 -26.5t-12 -27.5t-29 -11.5h-64z" />
    <glyph glyph-name="circumflex" unicode="&#x2c6;" horiz-adv-x="307" 
d="M154 619l-100 -40q-3 -2 -11 -2q-19 0 -32 10t-13 24q0 33 26 43l107 42q17 7 23 7q4 0 22 -7l107 -41q24 -9 24 -42q0 -16 -13.5 -26.5t-31.5 -10.5q-8 0 -12 3z" />
    <glyph glyph-name="caron" unicode="&#x2c7;" horiz-adv-x="306" 
d="M155 663l97 40q8 2 12 2q19 0 31.5 -10t12.5 -25q0 -31 -24 -43l-103 -41q-21 -7 -25 -7q-2 0 -24 6l-107 42q-24 12 -24 42q0 15 13.5 25.5t30.5 10.5q7 0 10 -2z" />
    <glyph glyph-name="breve" unicode="&#x2d8;" horiz-adv-x="318" 
d="M271 694q5 4 13 4q13 0 23 -13.5t10 -30.5v-12q-1 -3 -10 -14q-60 -55 -148 -55q-40 0 -82 15t-67 39q-14 11 -14 27q0 19 10.5 31.5t25.5 12.5q6 0 19 -8q44 -36 111 -36q51 0 83 23z" />
    <glyph glyph-name="dotaccent" unicode="&#x2d9;" horiz-adv-x="297" 
d="M45 824q-24 9 -24 42q0 13 13.5 23t32.5 10q8 0 12 -2l147 -58q29 -14 29 -44q0 -13 -13.5 -23t-32.5 -10q-8 0 -14 3z" />
    <glyph glyph-name="ring" unicode="&#x2da;" horiz-adv-x="241" 
d="M39 657q0 33 24 56t58 23t57.5 -23t23.5 -56q0 -32 -24 -55t-58 -23t-57.5 23t-23.5 55zM121 693q-15 0 -26 -10t-11 -25t11 -25.5t25 -10.5q16 0 26.5 10.5t10.5 24.5q0 16 -10.5 26t-25.5 10z" />
    <glyph glyph-name="ogonek" unicode="&#x2db;" horiz-adv-x="179" 
d="M37 39q0 22 15 37.5t37 15.5t38 -16t16 -38q0 -21 -15.5 -36t-37.5 -15t-37.5 15.5t-15.5 36.5z" />
    <glyph glyph-name="tilde" unicode="&#x2dc;" horiz-adv-x="290" 
d="M38 587q-17 0 -28.5 11.5t-11.5 27.5q0 17 11.5 29t28.5 12l212 -1q17 0 29 -12t12 -28t-12.5 -27.5t-29.5 -11.5h-211z" />
    <glyph glyph-name="hungarumlaut" unicode="&#x2dd;" horiz-adv-x="224" 
d="M57 578q-8 -2 -11 -2q-17 0 -31 10.5t-14 24.5t7.5 26t19.5 16l142 55q4 2 12 2q17 0 30 -9.5t13 -22.5q0 -35 -26 -43z" />
    <glyph glyph-name="Delta" unicode="&#x394;" horiz-adv-x="662" 
d="M319 672l276 -672h-574l276 672h22zM279 504l-187 -459h373z" />
    <glyph glyph-name="Omega" unicode="&#x3a9;" horiz-adv-x="830" 
d="M470 90h123q48 0 67 17q18 18 21 69h23v-176h-272v180q77 15 123 76q45 62 45 152q0 106 -58 168q-60 63 -158 63t-157 -63q-59 -62 -59 -168q0 -90 44 -152q45 -60 124 -76v-180h-272v176h23q3 -51 20 -68q18 -18 68 -18h123v59q-118 21 -183 89t-65 170q0 121 92 194
q93 73 242 73t242 -73q90 -73 92 -194q0 -100 -65 -170q-63 -66 -183 -89v-59z" />
    <glyph glyph-name="pi" unicode="&#x3c0;" horiz-adv-x="594" 
d="M414 372q-6 0 -10 1q0 -13 -1 -24q-3 -107 -3 -150v-40q0 -84 8 -104q9 -21 31 -22q28 0 41 29q14 25 17 89h25v-5q0 -80 -26 -118q-25 -37 -80 -38q-56 0 -80 39q-23 41 -23 165q0 35 1 78q2 64 3 104q-5 0 -21.5 0.5t-28.5 0.5q-11 1 -37 1.5t-40 0.5q0 -234 -23 -310
q-22 -78 -80 -79q-35 0 -53 29q-15 27 -17 86v19h24q2 -29 10 -40q9 -12 27 -12q42 0 58 62q17 63 20 245h-22q-38 0 -60 -13q-21 -14 -27 -40h-23q3 67 38 96q34 27 121 27q17 0 102 -3q84 -3 152 -3q34 0 49 7q16 7 17 21v1h23v-3q0 -50 -24 -74q-21 -21 -74 -23h-14z" />
    <glyph glyph-name="endash" unicode="&#x2013;" 
d="M62 307q-14 0 -23 9.5t-9 22.5q0 14 9.5 23.5t22.5 9.5h421q13 0 22.5 -9.5t9.5 -23.5q0 -13 -9 -22.5t-22 -9.5h-422z" />
    <glyph glyph-name="emdash" unicode="&#x2014;" horiz-adv-x="996" 
d="M30 331v74h936v-74h-936z" />
    <glyph glyph-name="quoteleft" unicode="&#x2018;" horiz-adv-x="192" 
d="M90 538q-11 -22 -44 -22q-15 0 -25.5 13.5t-10.5 32.5q0 8 3 14l65 139q9 22 43 22q17 0 27.5 -13t10.5 -33q0 -8 -3 -14z" />
    <glyph glyph-name="quoteright" unicode="&#x2019;" horiz-adv-x="192" 
d="M90 538q-11 -22 -44 -22q-15 0 -25.5 13.5t-10.5 32.5q0 8 3 14l65 139q9 22 43 22q17 0 27.5 -13t10.5 -33q0 -8 -3 -14z" />
    <glyph glyph-name="quotesinglbase" unicode="&#x201a;" horiz-adv-x="186" 
d="M82 -111q-10 -23 -42 -23q-16 0 -27 13t-11 33q0 8 3 14l66 139q11 23 44 23q15 0 26 -14t11 -33q0 -8 -3 -14z" />
    <glyph glyph-name="quotedblleft" unicode="&#x201c;" horiz-adv-x="341" 
d="M95 538q-9 -22 -43 -22q-16 0 -26.5 13t-10.5 33q0 8 3 14l65 139q11 22 43 22q17 0 27.5 -13t10.5 -33q0 -8 -3 -14zM238 538q-11 -22 -43 -22q-16 0 -26.5 13t-10.5 33q0 8 3 14l65 139q9 22 43 22q17 0 27.5 -13t10.5 -33q0 -8 -3 -14z" />
    <glyph glyph-name="quotedblright" unicode="&#x201d;" horiz-adv-x="341" 
d="M95 538q-9 -22 -43 -22q-16 0 -26.5 13t-10.5 33q0 8 3 14l65 139q11 22 43 22q17 0 27.5 -13t10.5 -33q0 -8 -3 -14zM238 538q-11 -22 -43 -22q-16 0 -26.5 13t-10.5 33q0 8 3 14l65 139q9 22 43 22q17 0 27.5 -13t10.5 -33q0 -8 -3 -14z" />
    <glyph glyph-name="quotedblbase" unicode="&#x201e;" horiz-adv-x="329" 
d="M82 -111q-10 -23 -42 -23q-16 0 -27 13t-11 33q0 8 3 14l66 139q11 23 44 23q15 0 26 -14t11 -33q0 -8 -3 -14zM225 -111q-11 -23 -42 -23q-16 0 -27 13t-11 33q0 8 3 14l66 139q12 23 43 23q16 0 27 -14t11 -33q0 -8 -3 -14z" />
    <glyph glyph-name="dagger" unicode="&#x2020;" horiz-adv-x="628" 
d="M271 392h-199q-17 0 -30 12.5t-13 29.5t13 30t30 13h202v214q0 19 11.5 31.5t28.5 12.5t29 -12.5t12 -31.5v-214h201q17 0 30 -13t13 -30t-13 -29.5t-30 -12.5h-200v-574q0 -17 -12.5 -30t-29.5 -13t-30 13t-13 30v574z" />
    <glyph glyph-name="daggerdbl" unicode="&#x2021;" horiz-adv-x="650" 
d="M282 31h-202q-17 0 -29 13t-12 30q0 16 12 28t30 12l201 1v273l-199 1q-18 0 -30 12.5t-12 29.5t12 28.5t29 11.5h200l2 213q0 18 12 31t29 13q16 0 28 -13t12 -31v-213l203 -1q18 0 30.5 -11.5t12.5 -28.5t-13 -29.5t-32 -12.5h-200v-274h200q18 0 31 -11.5t13 -27.5
q0 -18 -13 -31t-31 -13h-202v-214q0 -17 -11.5 -29.5t-28.5 -12.5q-16 0 -28.5 13t-12.5 30z" />
    <glyph glyph-name="bullet" unicode="&#x2022;" horiz-adv-x="215" 
d="M54 263q0 22 15.5 37t37.5 15t37.5 -16t15.5 -38q0 -20 -15.5 -35t-37.5 -15t-37.5 15t-15.5 37z" />
    <glyph glyph-name="ellipsis" unicode="&#x2026;" horiz-adv-x="996" 
d="M104 53q0 26 18.5 44.5t44.5 18.5t44.5 -18.5t18.5 -44.5t-18.5 -44.5t-44.5 -18.5t-44.5 18.5t-18.5 44.5zM437 53q0 26 18.5 44.5t44.5 18.5t44.5 -18.5t18.5 -44.5t-18.5 -44.5t-44.5 -18.5t-44.5 18.5t-18.5 44.5zM770 53q0 26 18.5 44.5t44.5 18.5t44.5 -18.5
t18.5 -44.5t-18.5 -44.5t-44.5 -18.5t-44.5 18.5t-18.5 44.5z" />
    <glyph glyph-name="perthousand" unicode="&#x2030;" horiz-adv-x="963" 
d="M39 563q0 76 39 124.5t100 48.5q60 0 98 -48t38 -126q0 -73 -40.5 -122t-100.5 -49q-57 0 -95.5 50t-38.5 122zM232 5q-6 -21 -33 -21q-10 0 -17 10.5t-7 24.5q0 9 2 12l250 686q6 19 34 19q11 0 18 -10.5t7 -26.5q0 -2 -2 -10zM348 152q0 75 39.5 123t101.5 48t99 -47
t37 -127q0 -72 -40 -119t-102 -47q-59 0 -97 48t-38 121zM648 152q0 75 39.5 123t100.5 48q62 0 99 -47t37 -127q0 -72 -40 -119t-101 -47q-59 0 -97 48t-38 121zM489 269q-37 0 -58.5 -30.5t-21.5 -83.5t20.5 -85t54.5 -32q37 0 58 29t21 79q0 123 -74 123zM177 680
q-35 0 -57 -32t-22 -84q0 -49 22 -82.5t54 -33.5q33 0 56 32.5t23 81.5q0 55 -20.5 86.5t-55.5 31.5zM788 269q-37 0 -58.5 -30.5t-21.5 -83.5t20.5 -85t55.5 -32q36 0 57.5 29t21.5 79q0 123 -75 123z" />
    <glyph glyph-name="guilsinglleft" unicode="&#x2039;" horiz-adv-x="252" 
d="M116 266l87 -143q10 -13 10 -27t-11 -24.5t-26 -10.5q-22 0 -37 24l-85 149q-15 26 -15 34t12 28l90 153q12 22 36 22q16 0 25.5 -9.5t9.5 -24.5q0 -17 -8 -28z" />
    <glyph glyph-name="guilsinglright" unicode="&#x203a;" horiz-adv-x="252" 
d="M136 265l-87 143q-10 13 -10 28q0 14 11 24t26 10q22 0 36 -25l86 -147q15 -27 15 -35q0 -9 -12 -28l-89 -152q-14 -24 -37 -24q-16 0 -25.5 10t-9.5 25q0 17 8 28z" />
    <glyph glyph-name="fraction" unicode="&#x2044;" horiz-adv-x="206" 
d="M8 5q-8 -21 -33 -21q-10 0 -17 10.5t-7 24.5q0 9 3 12l247 691q7 20 33 20q9 0 16.5 -11t7.5 -26q0 -5 -2 -11z" />
    <glyph glyph-name="trademark" unicode="&#x2122;" horiz-adv-x="788" 
d="M47 670v50h217v-50h-81v-310h-56v310h-80zM252 360l69 369h30l100 -228q15 -35 16 -63q1 33 16 63l100 228h30l69 -369h-56l-36 210l-2 11l-1 9q-2 19 1 35l-10 -35l-5 -13l-1 -5l-95 -220h-20l-95 220l-2 7l-4 12q-7 17 -10 34q3 -16 1 -35l-1 -9l-2 -11l-36 -210h-56z
" />
    <glyph glyph-name="partialdiff" unicode="&#x2202;" horiz-adv-x="534" 
d="M313 357q28 -21 45 -70q6 22 9 59q3 36 3 89q0 85 -16 126q-15 41 -47 41q-18 0 -50 -35q-31 -34 -56 -35q-17 0 -27 9q-8 6 -10 23q0 29 29 50q30 20 73 21q78 0 124 -72q46 -74 46 -196q0 -163 -64 -272q-64 -108 -158 -108q-68 0 -110 51q-40 49 -42 137q0 82 53 144
q52 60 125 61q44 0 73 -23zM319 317q-21 32 -63 32q-52 0 -87 -60q-31 -57 -33 -161q0 -57 22 -88q21 -31 62 -31q53 0 87 61q32 61 34 154q0 58 -22 93z" />
    <glyph glyph-name="product" unicode="&#x220f;" horiz-adv-x="890" 
d="M30 -176h88v880h-88v40h767v-40h-88v-880h88v-40h-264v40h84v880h-407v-880h84v-40h-264v40z" />
    <glyph glyph-name="summation" unicode="&#x2211;" horiz-adv-x="771" 
d="M592 729q17 -13 26 -86l15 -129h-44q-32 105 -85 144q-50 37 -169 39h-132l315 -431l-344 -394h187q122 0 172 31q51 32 83 117h45l-30 -130l-2 -7q-22 -98 -111 -99h-482l389 446l-375 514h460q66 0 82 -15z" />
    <glyph glyph-name="radical" unicode="&#x221a;" horiz-adv-x="594" 
d="M594 811v-47h-57l-290 -784h-32l-156 431l-61 -22l-12 39l138 48l125 -346l252 681h93z" />
    <glyph glyph-name="infinity" unicode="&#x221e;" horiz-adv-x="771" 
d="M430 144q-36 31 -64 94q-33 -62 -72 -94q-38 -30 -85 -30q-66 0 -110 53q-46 52 -46 131q0 83 41 134q40 50 105 52q47 0 83 -30q35 -29 65 -94q31 62 70 93q38 31 87 31q63 0 110 -53q45 -53 45 -131q0 -83 -40 -135q-41 -51 -105 -51q-46 0 -84 30zM257 205
q30 30 73 122q-26 46 -59 69q-33 24 -76 24q-51 0 -84 -35q-31 -33 -33 -90q0 -55 30 -89q29 -34 76 -34q40 0 73 33zM453 390q-33 -36 -70 -119q23 -45 58 -70q33 -21 77 -23q52 0 84 35q31 33 33 90q0 56 -30 89q-30 34 -80 34q-37 0 -72 -36z" />
    <glyph glyph-name="integral" unicode="&#x222b;" horiz-adv-x="296" 
d="M200 726q38 31 83 31q36 0 58 -19q21 -17 23 -48q0 -20 -13 -35q-11 -11 -36 -13q-29 0 -44 32t-29 32q-50 0 -57 -310q-2 -64 -3 -98q-5 -145 -16 -229q-12 -90 -31 -133q-24 -55 -62 -86q-39 -31 -82 -31q-35 0 -58 19q-21 17 -23 48q0 22 13 35q12 12 36 12
q29 0 44 -31t30 -32q47 0 57 324q0 14 0.5 43.5t1.5 40.5q5 140 15 227q12 88 32 135q24 55 61 86z" />
    <glyph glyph-name="approxequal" unicode="&#x2248;" horiz-adv-x="594" 
d="M102 153q-33 -14 -87 -53v77q49 31 86 44q34 12 75 14q44 0 115 -24q65 -22 99 -24q28 0 61 15q34 15 83 52v-78q-42 -28 -78 -42q-29 -11 -71 -13q-32 0 -104 24q-72 23 -116 23q-29 0 -63 -15zM104 273q-31 -13 -89 -54v77q48 31 84 43q40 14 76 14q42 0 116 -23
q71 -24 99 -24q27 0 61 14q32 15 83 52v-77q-35 -24 -79 -42q-37 -13 -70 -13t-104 24q-72 23 -111 23q-35 0 -66 -14z" />
    <glyph glyph-name="notequal" unicode="&#x2260;" horiz-adv-x="594" 
d="M488 410l-75 -74h91v-64h-149l-73 -72h222v-64h-281l-118 -118l-43 44l74 74h-91v64h150l73 72h-223v64h281l118 118z" />
    <glyph glyph-name="lessequal" unicode="&#x2264;" horiz-adv-x="594" 
d="M506 86v-68h-463v68h463zM506 388l-344 -108l344 -107v-70l-462 145v65l462 145v-70z" />
    <glyph glyph-name="greaterequal" unicode="&#x2265;" horiz-adv-x="594" 
d="M506 86v-68h-463v68h463zM506 313v-65l-463 -145v70l344 107l-344 108v70z" />
    <glyph glyph-name="lozenge" unicode="&#x25ca;" horiz-adv-x="534" 
d="M3 289l244 518l244 -518l-244 -522zM435 289l-188 399l-188 -399l188 -403z" />
    <glyph glyph-name="apple" unicode="&#xf8ff;" horiz-adv-x="854" 
d="M413 593q-3 0 -5 1q0 4 -1 7v11q0 61 47 112q45 51 115 64v-12q0 -9 1 -18q0 -64 -51 -115q-50 -50 -99 -50h-4h-3zM650 264q31 -44 85 -67q-56 -121 -100 -168q-46 -46 -100 -46q-25 0 -64 16t-60 16q-23 0 -64 -16t-62 -16q-30 0 -63 21q-32 24 -63 65q-47 65 -77 144
q-25 72 -27 147q0 107 61 174q62 68 158 68q35 0 76 -17q43 -17 60 -17q18 0 59 17q45 17 75 17q55 0 97 -19q43 -20 78 -61q-49 -31 -74 -71q-22 -36 -24 -89q0 -54 29 -98z" />
    <glyph glyph-name="fi" unicode="&#xfb01;" 
d="M272 205l-124 -124q-7 -7 -23 -7q-32 0 -32 32q0 16 8 24l125 124l-123 123q-9 9 -9 23q0 32 31 32q16 0 26 -8l123 -123l122 122q8 8 25 8q31 0 31 -31q0 -14 -9 -25l-122 -122l122 -122q8 -8 8 -24q0 -32 -32 -32q-17 0 -24 9z" />
    <glyph glyph-name="fl" unicode="&#xfb02;" horiz-adv-x="363" 
d="M159 642h-92q-17 0 -28 11t-11 28t11.5 28.5t28.5 11.5h136q18 0 29.5 -13t11.5 -32v-639q0 -19 -12 -32.5t-30 -13.5q-19 0 -31.5 13t-12.5 32v606z" />
    </font>
</defs>
</svg>
