<?xml version="1.0" standalone="no"?>
<!DOCTYPE svg PUBLIC "-//W3C//DTD SVG 1.1//EN" "http://www.w3.org/Graphics/SVG/1.1/DTD/svg11.dtd" >
<svg xmlns="http://www.w3.org/2000/svg" xmlns:xlink="http://www.w3.org/1999/xlink" version="1.1">
<metadata>
Created by FontForge 20170731 at Mon Apr 30 16:42:52 2007
 By Aleksey,,,
N/A
</metadata>
<defs>
<font id="Volkswagen-Medium" horiz-adv-x="558" >
  <font-face 
    font-family="Volkswagen-Medium"
    font-weight="500"
    font-stretch="normal"
    units-per-em="1000"
    panose-1="0 0 0 0 0 0 0 0 0 0"
    ascent="800"
    descent="-200"
    x-height="536"
    cap-height="729"
    bbox="-90 -233 966 945"
    underline-thickness="50"
    underline-position="-200"
    unicode-range="U+0020-FB02"
  />
<missing-glyph horiz-adv-x="280" 
 />
    <glyph glyph-name=".notdef" horiz-adv-x="280" 
 />
    <glyph glyph-name=".null" horiz-adv-x="0" 
 />
    <glyph glyph-name="nonmarkingreturn" horiz-adv-x="333" 
 />
    <glyph glyph-name="space" unicode=" " horiz-adv-x="290" 
d="M0 0z" />
    <glyph glyph-name="exclam" unicode="!" horiz-adv-x="224" 
d="M50 48q0 26 18 44.5t43 18.5q26 0 44.5 -18.5t18.5 -44.5t-18 -44t-44 -18t-44 18t-18 44zM163 257q0 -21 -15 -36.5t-37 -15.5q-21 0 -35.5 15.5t-14.5 37.5v426q0 21 15 36.5t36 15.5q22 0 36.5 -15.5t14.5 -37.5v-426z" />
    <glyph glyph-name="quotedbl" unicode="&#x22;" horiz-adv-x="379" 
d="M110 522q-11 -26 -51 -26q-19 0 -31.5 16t-12.5 40q0 9 3 18l73 146q12 27 51 27q19 0 32 -16.5t13 -40.5q0 -9 -3 -18zM272 522q-11 -26 -50 -26q-19 0 -32 16t-13 40q0 10 5 18l71 146q13 27 51 27q20 0 33 -16.5t13 -41.5q0 -5 -4 -17z" />
    <glyph glyph-name="numbersign" unicode="#" horiz-adv-x="632" 
d="M43 220l11 54h116l36 172h-115l11 54h116l44 209h54l-44 -209h100l45 209h54l-45 -209h116l-12 -54h-115l-37 -172h116l-12 -54h-115l-44 -209h-54l44 209h-101l-44 -209h-54l44 209h-115zM224 274h100l37 172h-101z" />
    <glyph glyph-name="dollar" unicode="$" horiz-adv-x="506" 
d="M229 94v244l-21 8q-75 22 -112 52q-62 46 -62 131q0 94 78 154q26 20 49.5 29t66.5 16v57q0 8 6 13.5t14 5.5q9 0 15 -5.5t6 -14.5v-54q69 -5 114 -26q59 -28 59 -64q0 -20 -14 -35.5t-33 -15.5q-15 0 -49 16q-18 9 -27 13q-24 10 -50 14l1 -195q88 -29 128 -51
q42 -24 66 -66.5t24 -94.5q0 -97 -71 -168q-29 -28 -59 -41.5t-88 -23.5v-49q0 -10 -5.5 -17t-13.5 -7q-9 0 -15.5 7t-6.5 17v48q-8 1 -32 3t-34 4q-59 9 -106 41q-31 21 -31 50q0 22 13.5 37t34.5 15q13 0 31 -8l24 -12q1 0 12 -5.5t17 -7.5q37 -14 71 -14zM229 451l-1 178
q-34 -4 -57 -29t-23 -57q0 -59 81 -92zM292 318l-22 7v-228q28 7 42 15t31 27q32 38 32 79q0 37 -19.5 60t-63.5 40z" />
    <glyph glyph-name="percent" unicode="%" horiz-adv-x="747" 
d="M38 565q0 73 45.5 122t113.5 49q69 0 112 -48t43 -124q0 -71 -45.5 -120t-112.5 -49q-66 0 -111 49t-45 121zM259 9q-10 -25 -44 -25q-15 0 -24.5 13t-9.5 33q0 9 3 15l300 669q12 23 44 23q16 0 26 -13.5t10 -33.5q0 -6 -2 -14zM392 151q0 73 46 121.5t114 48.5
q70 0 113 -47t43 -124q0 -71 -45 -119t-113 -48t-113 47.5t-45 120.5zM196 665q-35 0 -56.5 -27.5t-21.5 -71.5q0 -43 21.5 -71.5t54.5 -28.5q34 0 55.5 28t21.5 70q0 46 -20 73.5t-55 27.5zM550 251q-35 0 -56.5 -26.5t-21.5 -72.5q0 -44 21.5 -71.5t56.5 -27.5t56.5 25.5
t21.5 67.5q0 105 -78 105z" />
    <glyph glyph-name="ampersand" unicode="&#x26;" horiz-adv-x="690" 
d="M201 439q-5 6 -13.5 16.5t-11.5 13.5q-48 59 -48 116q0 68 50.5 110t131.5 42t131 -40.5t50 -105.5t-52 -116q-26 -27 -79 -58l146 -172q24 30 36 50q23 42 38 55.5t37 13.5q42 0 42 -47q0 -36 -44 -90q-12 -15 -42 -56l86 -101q11 -13 11 -33q0 -50 -47 -50
q-29 0 -39 15l-81 93q-6 -7 -13 -13.5t-14.5 -14l-10.5 -10.5q-80 -74 -189 -74q-101 0 -168.5 63t-67.5 157q0 66 37 123q21 34 46.5 57t77.5 56zM275 511l24 -29q44 28 62 43q27 27 27 59q0 26 -22.5 45.5t-54.5 19.5q-33 0 -54 -18t-21 -46q0 -27 39 -74zM435 169
l-173 201q-42 -25 -61 -43t-33 -44q-19 -33 -19 -69q0 -57 37.5 -94.5t95.5 -37.5q66 0 118 49q16 16 35 38z" />
    <glyph glyph-name="quotesingle" unicode="'" horiz-adv-x="212" 
d="M106 522q-13 -26 -51 -26q-19 0 -31.5 16t-12.5 40q0 10 4 18l71 146q14 27 51 27q19 0 32.5 -16.5t13.5 -40.5q0 -10 -4 -18z" />
    <glyph glyph-name="parenleft" unicode="(" horiz-adv-x="217" 
d="M46 368q0 41 9 136q10 86 38 192q16 62 28 81t36 19q18 0 31 -12.5t13 -29.5q0 -8 -5 -26q-1 -3 -18 -64q-3 -16 -7 -34t-6.5 -29t-3.5 -17q-22 -110 -22 -216q0 -105 22 -217q1 -6 3.5 -16.5t6.5 -28.5t7 -34q15 -56 18 -64q5 -18 5 -25q0 -17 -13 -30.5t-31 -13.5
q-32 0 -45 38q-28 77 -47 189t-19 202z" />
    <glyph glyph-name="parenright" unicode=")" horiz-adv-x="217" 
d="M38 72q40 151 40 296q0 104 -22 216q-3 17 -18 80q-12 53 -16 64q-6 16 -6 26q0 17 13.5 29.5t31.5 12.5q31 0 44 -37q28 -75 47 -187t19 -198q0 -61 -10 -142q-4 -38 -17 -112q-1 -4 -3.5 -14.5t-7.5 -29.5t-10 -37q-18 -71 -31 -87q-15 -13 -31 -13q-18 0 -31.5 13
t-13.5 30q0 4 6 26z" />
    <glyph glyph-name="asterisk" unicode="*" horiz-adv-x="388" 
d="M138 554l-85 35q-19 9 -19 39q0 16 12 26.5t32 10.5q11 0 18 -7l70 -57l-11 95q0 17 11.5 29t28.5 12q16 0 27.5 -12t11.5 -29l-12 -95l70 57q7 7 18 7q20 0 32.5 -10t12.5 -27q0 -29 -20 -39l-85 -35l82 -33q23 -10 23 -43q0 -15 -12 -24.5t-31 -9.5q-13 0 -19 7l-70 54
l11 -91q0 -18 -11.5 -30.5t-27.5 -12.5q-19 0 -31 12.5t-9 30.5l10 91l-69 -54q-7 -7 -19 -7q-19 0 -31 9.5t-12 24.5q0 33 22 43z" />
    <glyph glyph-name="plus" unicode="+" 
d="M237 305h-163q-17 0 -29.5 12t-12.5 30q0 17 12.5 29t30.5 12h163v162q0 18 12 30t30 12q17 0 29.5 -12t12.5 -30v-162h161q18 0 30 -12.5t12 -30.5q0 -17 -12.5 -29t-30.5 -12h-161v-166q0 -17 -12 -29t-29 -12q-18 0 -30.5 12.5t-12.5 29.5v166z" />
    <glyph glyph-name="comma" unicode="," horiz-adv-x="196" 
d="M90 -112q-12 -26 -51 -26q-19 0 -31.5 15.5t-12.5 40.5q0 10 3 17l72 146q14 27 51 27q19 0 32 -16.5t13 -39.5q0 -10 -4 -17z" />
    <glyph glyph-name="hyphen" unicode="-" horiz-adv-x="377" 
d="M82 228q-18 0 -31 14t-13 33q0 20 12.5 33.5t30.5 13.5h213q19 0 32 -13.5t13 -33.5t-13 -33.5t-32 -13.5h-212z" />
    <glyph glyph-name="period" unicode="." horiz-adv-x="190" 
d="M32 48q0 25 18.5 43.5t43.5 18.5q26 0 44.5 -19t18.5 -45q0 -25 -18 -42.5t-44 -17.5t-44.5 18.5t-18.5 43.5z" />
    <glyph glyph-name="slash" unicode="/" horiz-adv-x="411" 
d="M104 14q-13 -28 -48 -28q-14 0 -24 14t-10 34q0 9 2 14l283 709q12 30 48 30q14 0 24 -15t10 -34q0 -8 -2 -13z" />
    <glyph glyph-name="zero" unicode="0" 
d="M32 360q0 173 69 272q68 99 178 99q109 0 177 -99q69 -98 69 -272q0 -171 -69 -271q-31 -47 -77.5 -73t-99.5 -26q-108 0 -178 99q-69 98 -69 271zM280 635q-64 0 -99.5 -73t-35.5 -203q0 -127 35 -200t97 -73q64 0 100 72.5t36 200.5q0 129 -35.5 202.5t-97.5 73.5z" />
    <glyph glyph-name="one" unicode="1" 
d="M238 624h-82q-21 0 -35.5 13.5t-14.5 33.5t15 35t36 15h138q21 0 36 -16t15 -38v-621q0 -23 -16 -39.5t-38 -16.5t-38 16t-16 39v579z" />
    <glyph glyph-name="two" unicode="2" horiz-adv-x="557" 
d="M213 98h241q22 0 37 -14t15 -34t-14.5 -35t-35.5 -15h-337q-28 0 -44.5 13.5t-16.5 35.5q0 16 21 44l139 183l53 70q49 63 74 108q27 51 27 83q0 40 -28 66.5t-69 26.5q-45 0 -76 -29.5t-42 -81.5l-4.5 -18t-3.5 -15.5t-2 -8.5q-10 -29 -41 -29q-52 0 -52 61
q0 94 65.5 158.5t160.5 64.5q86 0 145.5 -55t59.5 -135q0 -86 -73 -183l-67 -89l-75 -99z" />
    <glyph glyph-name="three" unicode="3" 
d="M386 389q36 -19 51 -30q31 -22 50 -63t19 -83q0 -94 -69 -159t-168 -65q-92 0 -155 60q-27 24 -44.5 57.5t-17.5 57.5q0 21 15.5 36.5t36.5 15.5q28 0 46 -35q21 -39 35 -56q32 -34 87 -34q53 0 87.5 34t34.5 86q0 49 -30 80.5t-83 36.5q-20 1 -33 5t-21 17t-8 28
q0 14 7 26t24 19q3 0 30 6q36 7 57 35.5t21 68.5q0 43 -25 71t-63 28q-64 0 -93 -75q-5 -18 -9 -25q-13 -27 -40 -27q-20 0 -34.5 16t-14.5 39q0 68 59.5 120t136.5 52q82 0 136 -54t54 -134q0 -37 -11 -65q-10 -28 -23.5 -46t-44.5 -44z" />
    <glyph glyph-name="four" unicode="4" 
d="M344 177h-252q-29 0 -36 2q-14 3 -24 17t-10 31q0 11 19 44l243 415q26 45 77 45q40 0 64.5 -27t24.5 -70l2 -360h30q21 0 36 -14.5t15 -34.5t-16 -34t-38 -14h-29l1 -132q0 -22 -15.5 -38t-36.5 -16q-23 0 -39 16t-16 38v132zM345 626l-196 -352h196v352z" />
    <glyph glyph-name="five" unicode="5" 
d="M217 454q42 15 79 15q88 0 144.5 -62.5t56.5 -158.5q0 -112 -67.5 -185.5t-171.5 -73.5q-85 0 -157 48q-58 36 -58 73q0 21 14.5 36t35.5 15q15 0 38 -16q40 -30 66.5 -41.5t55.5 -11.5q57 0 93.5 43.5t36.5 110.5q0 59 -33 95t-86 36q-31 0 -61 -13l-21 -9
q-18 -9 -31 -9q-12 0 -27 10q-17 13 -17 29q0 7 3 27l36 256q5 31 17.5 42t44.5 11h228q22 0 37 -14.5t15 -34.5t-15 -34.5t-37 -14.5h-193z" />
    <glyph glyph-name="six" unicode="6" 
d="M218 440q57 23 87 23q86 0 143.5 -66t57.5 -163q0 -107 -64 -177.5t-163 -70.5q-100 0 -163.5 71t-63.5 181q0 156 117 321q51 73 127 149q25 24 46 24q22 0 37.5 -15t15.5 -37q0 -19 -17 -36l-48 -48q-46 -46 -112 -156zM278 373q-53 0 -84 -38t-31 -103
q0 -63 31.5 -103t81.5 -40q52 0 85.5 38.5t33.5 97.5q0 67 -32 107.5t-85 40.5z" />
    <glyph glyph-name="seven" unicode="7" 
d="M384 622h-286q-22 0 -37 14.5t-15 34.5t15 35t36 15l364 -1q22 0 36.5 -14.5t14.5 -35.5q0 -12 -6 -25l-281 -623q-15 -31 -56 -31q-20 0 -34 17t-14 41q0 7 3 15z" />
    <glyph glyph-name="eight" unicode="8" 
d="M170 401q-22 17 -34 28q-52 49 -52 123q0 78 56 130.5t139 52.5q82 0 137.5 -52.5t55.5 -130.5q0 -38 -15 -72q-12 -25 -26 -41t-44 -38q32 -14 50 -27q31 -22 50.5 -66t19.5 -92q0 -98 -65.5 -163.5t-162.5 -65.5q-98 0 -163 65t-65 164q0 53 20 94q17 35 36.5 53.5
t62.5 37.5zM279 642q-40 0 -66 -28t-26 -71q0 -41 26.5 -70.5t64.5 -29.5q39 0 66 29.5t27 71.5q0 43 -26 70.5t-66 27.5zM279 354q-50 0 -82.5 -37t-32.5 -93q0 -58 33 -97t80 -39q50 0 83.5 38.5t33.5 95.5q0 58 -32 95t-83 37z" />
    <glyph glyph-name="nine" unicode="9" 
d="M339 277q-58 -23 -86 -23q-86 0 -143.5 65.5t-57.5 163.5q0 108 64 178.5t163 70.5q100 0 163.5 -71t63.5 -181q0 -157 -117 -322q-54 -75 -127 -148q-23 -24 -46 -24t-38 14.5t-15 36.5q0 10 3 16q9 15 11 17q14 16 49 51q57 59 113 156zM280 629q-52 0 -84.5 -39.5
t-32.5 -103.5q0 -63 32.5 -102.5t83.5 -39.5q52 0 84 37t32 97q0 70 -31 110.5t-84 40.5z" />
    <glyph glyph-name="colon" unicode=":" horiz-adv-x="216" 
d="M50 48q0 25 18 43.5t43 18.5q26 0 44.5 -19t18.5 -45q0 -25 -18 -42.5t-44 -17.5t-44 18t-18 44zM50 381q0 25 18 43t44 18t44.5 -18t18.5 -43q0 -26 -18.5 -44t-44.5 -18t-44 18.5t-18 43.5z" />
    <glyph glyph-name="semicolon" unicode=";" horiz-adv-x="230" 
d="M64 386q0 26 18.5 44.5t45.5 18.5q25 0 43 -18.5t18 -43.5q0 -26 -18 -44.5t-43 -18.5q-27 0 -45.5 18t-18.5 44zM104 -112q-14 -26 -51 -26q-19 0 -31.5 15.5t-12.5 40.5q0 10 3 17l72 146q14 27 51 27q19 0 32.5 -16.5t13.5 -39.5q0 -9 -5 -17z" />
    <glyph glyph-name="less" unicode="&#x3c;" horiz-adv-x="267" 
d="M133 267l85 -135q11 -17 11 -31q0 -18 -13 -31.5t-31 -13.5q-26 0 -42 28l-88 145q-17 27 -17 39q0 13 15 37l90 146q16 26 42 26q19 0 31.5 -12t12.5 -30q0 -17 -11 -34z" />
    <glyph glyph-name="equal" unicode="=" 
d="M71 373q-17 0 -29.5 12.5t-12.5 29.5t12.5 29t29.5 12h414q17 0 30 -12t13 -29t-13 -29.5t-30 -12.5h-414zM71 236q-17 0 -29.5 12t-12.5 30q0 17 13 29t30 12h413q18 0 31 -12t13 -29q0 -18 -13 -30t-31 -12h-414z" />
    <glyph glyph-name="greater" unicode="&#x3e;" horiz-adv-x="267" 
d="M134 266l-85 134q-11 19 -11 32q0 17 13 30.5t30 13.5q27 0 43 -27l88 -145q17 -27 17 -40q0 -14 -15 -36l-90 -146q-15 -27 -43 -27q-19 0 -31 12.5t-12 29.5q0 16 11 35z" />
    <glyph glyph-name="question" unicode="?" horiz-adv-x="476" 
d="M158 45q0 26 18.5 45t44.5 19t44 -18.5t18 -45.5q0 -25 -18 -42.5t-44 -17.5t-44 17.5t-19 42.5zM271 344v-88q0 -21 -14.5 -36.5t-35.5 -15.5q-22 0 -37.5 15.5t-15.5 36.5v112q0 35 11 47q10 10 49 17q102 16 102 106q0 43 -30 70t-77 27q-75 0 -104 -61l-9 -17
q-13 -29 -43 -29q-21 0 -35.5 14.5t-14.5 38.5q0 63 61.5 109t144.5 46q98 0 159 -54.5t61 -142.5q0 -87 -59 -141q-24 -22 -46.5 -33t-66.5 -21z" />
    <glyph glyph-name="at" unicode="@" horiz-adv-x="845" 
d="M456 229q-6 -18 -20 -34q-54 -65 -131 -32q-85 38 -78 178q2 24 4 35q13 91 66 155q53 58 111.5 57.5t85.5 -51.5q3 -5 5 -10l9 54h49l-37 -213l-13 -85q-6 -39 1 -63q5 -17 21.5 -24.5t33.5 -1.5q25 9 55 45q40 44 54 131q23 149 -65 239.5t-229 70.5
q-119 -18 -193.5 -120.5t-61.5 -239.5q7 -81 45.5 -145.5t95.5 -98t126.5 -42t138.5 22.5q73 30 130 92q12 12 25 30l18 -43q-16 -20 -25 -29q-115 -121 -268 -121q-157 0 -259 114t-92 284q9 157 121 257q88 79 197 91q111 13 198.5 -33t128.5 -137t21 -202
q-23 -126 -101 -185q-54 -37 -102.5 -27.5t-61.5 52.5q-3 10 -3 29zM286 291q3 -39 13 -61q14 -29 47 -34.5t57 17.5q23 23 45 86q9 25 19 73l1 10l7 42q5 33 2 58q-5 36 -33 52.5t-59 3.5q-26 -11 -44 -35.5t-36 -75.5q-7 -21 -12 -48q-9 -49 -7 -88z" />
    <glyph glyph-name="A" unicode="A" horiz-adv-x="626" 
d="M155 149l-45 -122q-12 -37 -51 -37q-22 0 -36.5 14.5t-14.5 36.5q0 18 5 29l221 595q13 35 31 49.5t49 14.5q30 0 48 -15t30 -49l220 -595q6 -16 6 -32q0 -21 -14.5 -34.5t-37.5 -13.5q-36 0 -50 38l-45 121h-316zM314 606l-128 -361h253z" />
    <glyph glyph-name="B" unicode="B" horiz-adv-x="557" 
d="M382 390q35 -6 54 -14.5t40 -27.5q58 -54 58 -135q0 -92 -62.5 -152.5t-157.5 -60.5h-198q-27 0 -43 15t-16 40v612q0 24 16 39t42 15h157q89 0 147 -52.5t58 -134.5q0 -32 -13 -66q-12 -28 -28.5 -44t-53.5 -34zM166 624v-202h86q48 0 82 29.5t34 70.5q0 42 -31.5 72
t-75.5 30h-95zM165 332v-236h134q52 0 88 34t36 83t-36 84t-86 35h-136z" />
    <glyph glyph-name="C" unicode="C" horiz-adv-x="612" 
d="M509 138q17 11 30 11q20 0 34 -15t14 -36q0 -42 -68 -75.5t-154 -33.5q-147 0 -240 102.5t-93 265.5q0 166 92 270.5t238 104.5q82 0 147 -34t65 -77q0 -20 -13 -34.5t-32 -14.5q-15 0 -32 11l-32 19q-46 28 -107 28q-93 0 -152.5 -75.5t-59.5 -194.5q0 -121 60.5 -194.5
t158.5 -73.5q65 0 115 29z" />
    <glyph glyph-name="D" unicode="D" horiz-adv-x="652" 
d="M116 0q-27 0 -43 15t-16 38l1 615q0 21 16 37t38 16h182q145 0 236 -99.5t91 -258.5q0 -163 -90 -263t-236 -100h-179zM165 623v-526h125q99 0 157 72t58 194q0 117 -59.5 188.5t-156.5 71.5h-124z" />
    <glyph glyph-name="E" unicode="E" horiz-adv-x="457" 
d="M166 98h209q21 0 36 -14.5t15 -34.5t-15 -34.5t-35 -14.5h-264q-24 0 -39.5 16t-15.5 41v608q0 23 16.5 39.5t40.5 16.5h254q20 0 34 -15t14 -35t-14.5 -34.5t-35.5 -14.5h-198v-212h186q21 0 35.5 -14.5t14.5 -34.5q0 -21 -14 -35.5t-35 -14.5h-189v-213z" />
    <glyph glyph-name="F" unicode="F" horiz-adv-x="424" 
d="M166 310v-266q0 -22 -15.5 -38t-38.5 -16q-22 0 -38.5 16t-16.5 38v621q0 24 17 40t42 16h258q21 0 35.5 -15t14.5 -35t-15 -34.5t-36 -14.5h-205v-214h179q21 0 36 -14.5t15 -34.5t-15 -34.5t-36 -14.5h-181z" />
    <glyph glyph-name="G" unicode="G" horiz-adv-x="698" 
d="M562 317h-119q-20 0 -34.5 14.5t-14.5 36.5q0 20 14.5 34t35.5 14h154q41 0 58.5 -18.5t17.5 -63.5q0 -159 -82.5 -251.5t-223.5 -92.5q-149 0 -242.5 101.5t-93.5 263.5q0 166 94.5 271t243.5 105q105 0 190 -52q65 -39 65 -76q0 -21 -15 -36t-35 -15q-16 0 -46 22
q-87 60 -160 60q-100 0 -161 -76t-61 -200q0 -122 60.5 -196t160.5 -74q98 0 152 73q20 28 28.5 60.5t13.5 95.5z" />
    <glyph glyph-name="H" unicode="H" horiz-adv-x="692" 
d="M165 321v-277q0 -22 -15.5 -38t-37.5 -16t-38.5 16t-16.5 38v630q0 22 16.5 38.5t38.5 16.5t37.5 -16t15.5 -39v-257h361v257q0 23 16 39t39 16q22 0 38 -16t16 -39v-630q0 -22 -16.5 -38t-39.5 -16q-22 0 -37.5 16t-15.5 38v277h-361z" />
    <glyph glyph-name="I" unicode="I" horiz-adv-x="223" 
d="M165 44q0 -23 -15.5 -38.5t-38.5 -15.5q-22 0 -38 16t-16 38v630q0 22 16.5 38.5t38.5 16.5t37.5 -16t15.5 -39v-630z" />
    <glyph glyph-name="J" unicode="J" horiz-adv-x="384" 
d="M326 194q0 -94 -36 -140q-23 -30 -62 -47.5t-83 -17.5q-60 0 -116 32q-46 27 -46 59q0 20 13 34t33 14q1 0 5 -1t5 -1q14 -3 23 -7q6 -6 22 -15q31 -20 57 -20q16 0 36 10q23 12 32 32.5t9 59.5v490q0 23 16.5 38.5t40.5 15.5q22 0 36.5 -16t14.5 -39v-481z" />
    <glyph glyph-name="K" unicode="K" horiz-adv-x="584" 
d="M165 339v-294q0 -22 -15 -38t-38 -16q-22 0 -38.5 16.5t-16.5 38.5v630q0 22 15.5 38t37.5 16q23 0 39 -16t16 -38v-253l299 284q23 21 43 21q21 0 36.5 -15.5t15.5 -37.5t-16 -38l-277 -254l303 -301q17 -19 17 -39q0 -22 -15 -37t-37 -15q-24 0 -44 20z" />
    <glyph glyph-name="L" unicode="L" horiz-adv-x="399" 
d="M165 99h186q23 0 38.5 -14.5t15.5 -34.5t-14.5 -35t-36.5 -15h-231q-29 0 -47.5 17t-18.5 44v613q0 23 16 39.5t39 16.5q22 0 37.5 -16t15.5 -39v-576z" />
    <glyph glyph-name="M" unicode="M" horiz-adv-x="864" 
d="M218 574l-79 -532q-7 -51 -55 -51q-24 0 -39 15t-15 40q0 5 2 13l102 606q4 28 26 46t52 18q59 0 77 -60l143 -492l144 492q17 60 77 60q29 0 51 -18t27 -46l101 -606q2 -4 2 -13q0 -25 -15 -40t-38 -15q-47 0 -57 51l-78 532l-160 -540q-12 -45 -52 -45q-44 0 -56 45z
" />
    <glyph glyph-name="N" unicode="N" horiz-adv-x="689" 
d="M164 535l1 -490q0 -22 -15.5 -37.5t-37.5 -15.5q-23 0 -39 16t-16 38v629q0 23 16.5 39t38.5 16q28 0 45 -25l368 -520l-1 489q0 23 16 39.5t38 16.5t37.5 -16t15.5 -39v-631q0 -23 -15.5 -38.5t-39.5 -15.5q-26 0 -42 24z" />
    <glyph glyph-name="O" unicode="O" horiz-adv-x="715" 
d="M32 361q0 163 91 266.5t235 103.5q142 1 233.5 -104t91.5 -267t-91.5 -266.5t-233.5 -104.5q-143 0 -234.5 104.5t-91.5 267.5zM358 635q-96 0 -153 -74.5t-57 -200.5t57 -200.5t153 -74.5q95 0 151.5 74.5t56.5 200.5t-56.5 200.5t-151.5 74.5z" />
    <glyph glyph-name="P" unicode="P" horiz-adv-x="549" 
d="M165 261v-216q0 -22 -15.5 -38t-37.5 -16t-38.5 16.5t-16.5 38.5v618q0 26 17 41.5t45 15.5h175q104 0 172 -65.5t68 -165.5t-66 -164.5t-170 -64.5h-133zM166 624v-267h124q56 0 95 38.5t39 93.5q0 56 -39.5 95.5t-94.5 39.5h-124z" />
    <glyph glyph-name="Q" unicode="Q" horiz-adv-x="715" 
d="M619 133l76 -74q13 -11 13 -35q0 -22 -12.5 -34.5t-34.5 -12.5t-35 13l-74 72q-56 -44 -93.5 -58.5t-98.5 -14.5q-144 0 -236 104.5t-92 267.5t91 266.5t235 103.5q143 1 234 -104t91 -270q0 -69 -12.5 -112t-51.5 -112zM466 277l71 -67q19 43 24 69.5t5 75.5
q0 130 -56 205t-152 75t-153 -74.5t-57 -199.5q0 -126 57.5 -202t153.5 -76q35 0 58 10.5t58 41.5l-74 74q-14 12 -14 37q0 43 43 43q21 0 36 -12z" />
    <glyph glyph-name="R" unicode="R" horiz-adv-x="546" 
d="M166 310v-266q0 -22 -15.5 -38t-38.5 -16q-22 0 -38.5 16t-16.5 39v620q0 23 16.5 39t40.5 16h174q100 0 164.5 -60t64.5 -152q0 -50 -21.5 -93.5t-58.5 -68.5q-28 -19 -57.5 -25.5t-88.5 -6.5l220 -236q13 -13 13 -35t-15.5 -37.5t-37.5 -15.5q-23 0 -42 21zM166 622
v-228h129q47 0 80 33.5t33 81.5q0 47 -36 80t-87 33h-119z" />
    <glyph glyph-name="S" unicode="S" horiz-adv-x="506" 
d="M130 121q62 -30 109 -30q58 0 96.5 36.5t38.5 91.5t-49 83q-28 13 -45 18q-6 2 -25 8.5t-32 10.5q-91 30 -127 59q-62 46 -62 131q0 86 65.5 143.5t165.5 57.5q70 0 123.5 -27t53.5 -63q0 -20 -13.5 -35.5t-32.5 -15.5q-12 0 -50 16q-50 25 -88 25q-45 0 -77.5 -27
t-32.5 -64q0 -31 25 -56q21 -21 89 -44q99 -33 136 -53q41 -23 65.5 -66t24.5 -95q0 -102 -71.5 -168.5t-180.5 -66.5q-82 0 -146 30.5t-64 68.5q0 22 13.5 37t34.5 15q13 0 31 -8z" />
    <glyph glyph-name="T" unicode="T" horiz-adv-x="455" 
d="M172 623h-130q-19 0 -33 14.5t-14 34.5t14 34.5t34 14.5h369q20 0 34.5 -15t14.5 -36q0 -20 -15 -34t-35 -14h-131v-576q0 -23 -15 -39t-37 -16q-23 0 -39.5 16.5t-16.5 38.5v577z" />
    <glyph glyph-name="U" unicode="U" horiz-adv-x="691" 
d="M634 266q0 -126 -79 -198q-87 -79 -209 -79q-123 0 -210 79q-79 72 -79 198v406q0 24 16 40t39 16t38 -16t15 -40v-405q0 -47 11 -76t38 -54q55 -52 132 -52t132 52q26 25 36.5 54t10.5 76v405q0 24 16 40t38 16q23 0 39 -16t16 -40v-406z" />
    <glyph glyph-name="V" unicode="V" horiz-adv-x="581" 
d="M291 175l179 514q14 40 51 40q23 0 39 -15.5t16 -37.5q0 -13 -5 -26l-225 -610q-10 -28 -21.5 -38.5t-31.5 -10.5q-24 0 -36 10t-22 39l-225 610q-6 12 -6 26q0 22 16 37.5t39 15.5q38 0 51 -40z" />
    <glyph glyph-name="W" unicode="W" horiz-adv-x="861" 
d="M430 544l-141 -498q-8 -26 -28.5 -40.5t-48.5 -14.5q-30 0 -50.5 17t-26.5 46l-117 605q-2 12 -2 16q0 23 15 38.5t38 15.5q47 0 55 -52l94 -535l157 543q6 20 21 32.5t34 12.5t34 -12.5t20 -32.5l157 -543l94 535q11 52 55 52q24 0 38.5 -15.5t14.5 -39.5q0 -9 -1 -15
l-117 -605q-5 -29 -25.5 -46t-51.5 -17q-28 0 -48.5 14.5t-28.5 40.5z" />
    <glyph glyph-name="X" unicode="X" horiz-adv-x="603" 
d="M302 298l-195 -280q-19 -27 -45 -27q-22 0 -39 15.5t-17 35.5q0 19 13 37l219 308l-184 256q-12 15 -12 35t16.5 35.5t38.5 15.5q28 0 47 -30l158 -229l157 229q19 30 47 30q22 0 38.5 -15.5t16.5 -36.5q0 -19 -12 -34l-184 -256l219 -308q13 -18 13 -37
q0 -20 -16.5 -35.5t-38.5 -15.5q-27 0 -46 27z" />
    <glyph glyph-name="Y" unicode="Y" horiz-adv-x="522" 
d="M206 338l-196 307q-10 14 -10 32q0 21 16 36t38 15q31 0 47 -26l161 -258l161 258q15 26 45 26q23 0 38.5 -14.5t15.5 -36.5q0 -18 -10 -32l-196 -307v-292q0 -23 -15.5 -39t-38.5 -16q-24 0 -40 16t-16 39v292z" />
    <glyph glyph-name="Z" unicode="Z" horiz-adv-x="585" 
d="M165 97h342q22 0 38 -13.5t16 -33.5q0 -21 -15.5 -35.5t-38.5 -14.5h-405q-34 0 -54 15.5t-20 40.5q0 21 13 40l359 530h-309q-21 0 -35.5 13.5t-14.5 34.5q0 19 14.5 33t34.5 14h367q88 0 88 -46q0 -20 -20 -49z" />
    <glyph glyph-name="bracketleft" unicode="[" horiz-adv-x="249" 
d="M151 35h35q19 0 31.5 -13t12.5 -31q0 -20 -12.5 -33t-31.5 -13h-92q-19 0 -31.5 14t-12.5 36v730q0 22 12.5 36.5t31.5 14.5h92q19 0 31.5 -13t12.5 -33q0 -18 -12.5 -31t-31.5 -13h-35v-651z" />
    <glyph glyph-name="backslash" unicode="\" horiz-adv-x="326" 
d="M43 720h90l126 -720h-90z" />
    <glyph glyph-name="bracketright" unicode="]" horiz-adv-x="249" 
d="M97 686h-35q-18 0 -31 13t-13 31q0 19 13 32.5t31 13.5h93q18 0 31 -14.5t13 -36.5v-730q0 -21 -13 -35.5t-31 -14.5h-93q-18 0 -31 13.5t-13 32.5q0 18 13 31t31 13h35v651z" />
    <glyph glyph-name="asciicircum" unicode="^" horiz-adv-x="310" 
d="M156 618l-93 -37q-7 -3 -13 -3q-21 0 -36.5 12t-15.5 28q0 40 30 50l102 41q21 8 26 8q4 0 25 -8l103 -40q28 -10 28 -50q0 -17 -15.5 -29t-37.5 -12q-5 0 -14 3z" />
    <glyph glyph-name="underscore" unicode="_" horiz-adv-x="482" 
d="M43 -32v32h360v-32h-360z" />
    <glyph glyph-name="grave" unicode="`" horiz-adv-x="229" 
d="M28 636q-30 12 -30 49q0 16 15.5 28t36.5 12q6 0 12 -3l139 -54q30 -12 30 -50q0 -16 -15 -28t-35 -12q-8 0 -15 4z" />
    <glyph glyph-name="a" unicode="a" horiz-adv-x="574" 
d="M414 477v20q0 19 15.5 33t36.5 14t36 -14t15 -33v-454q0 -22 -15 -37.5t-37 -15.5t-37 15.5t-15 37.5v25q-37 -46 -66.5 -61.5t-79.5 -15.5q-101 0 -168 78.5t-67 196.5q0 119 67 198.5t168 79.5q47 0 76.5 -13.5t70.5 -53.5zM281 452q-64 0 -103 -51t-39 -134t38 -134
t100 -51q65 0 101 49t36 139q0 89 -35 132q-36 50 -98 50z" />
    <glyph glyph-name="b" unicode="b" horiz-adv-x="572" 
d="M159 63v-20q0 -22 -14.5 -38t-34.5 -16q-22 0 -37.5 16t-15.5 38v683q0 23 15.5 39t38.5 16q22 0 37 -16t15 -39v-249q40 40 69 53.5t76 13.5q100 0 165.5 -78t65.5 -197q0 -121 -65 -200.5t-165 -79.5q-54 0 -83 14.5t-67 59.5zM295 449q-63 0 -99 -49t-36 -134
q0 -87 35.5 -134.5t100.5 -47.5q62 0 99 50t37 132t-38 132.5t-99 50.5z" />
    <glyph glyph-name="c" unicode="c" horiz-adv-x="458" 
d="M363 110q15 7 28 7q18 0 31.5 -14t13.5 -34q0 -33 -44.5 -56t-108.5 -23q-111 0 -181 77t-70 199t71 200t182 78q64 0 108 -21t44 -51q0 -22 -13.5 -36.5t-33.5 -14.5q-13 0 -34 9q-41 18 -70 18q-64 0 -104 -49t-40 -129q0 -79 40 -130t102 -51q26 0 58 13z" />
    <glyph glyph-name="d" unicode="d" horiz-adv-x="574" 
d="M412 471v255q0 22 15.5 37.5t37.5 15.5t37 -15.5t15 -37.5v-683q0 -22 -15.5 -37.5t-36.5 -15.5q-22 0 -37 15.5t-15 37.5v27q-39 -46 -70 -62.5t-80 -16.5q-98 0 -164.5 79.5t-66.5 196.5q0 119 68 198t170 79q47 0 75 -14.5t67 -58.5zM278 448q-60 0 -99.5 -51
t-39.5 -128q0 -80 38 -130.5t97 -50.5q64 0 101.5 46t37.5 124q0 90 -35.5 140t-99.5 50z" />
    <glyph glyph-name="e" unicode="e" horiz-adv-x="545" 
d="M147 230q10 -49 26 -80q17 -31 50.5 -49t73.5 -18q59 0 112 38q39 29 58 29t32 -13t13 -32q0 -22 -19 -39q-36 -36 -89.5 -56.5t-110.5 -20.5q-115 0 -188 77.5t-73 199.5q0 118 71 198t176 80q57 0 106 -25t79 -68q24 -36 40.5 -84.5t16.5 -85.5q0 -29 -13 -40.5
t-45 -11.5zM176 400q-24 -36 -31 -95h268q-23 152 -133 152q-65 0 -104 -57z" />
    <glyph glyph-name="f" unicode="f" horiz-adv-x="268" 
d="M82 443h-42q-19 0 -32 14t-13 34q0 19 13 32t32 13h41v117q0 55 33.5 90.5t85.5 35.5h36q26 0 43 -13.5t17 -34.5q0 -19 -13 -32.5t-32 -13.5h-15h-6q-24 0 -33 -9q-10 -9 -10 -52v-88h58q20 0 34.5 -13.5t14.5 -32.5t-14 -33t-34 -14h-59v-400q0 -22 -15.5 -37.5
t-37.5 -15.5q-21 0 -36.5 15.5t-15.5 37.5v400z" />
    <glyph glyph-name="g" unicode="g" horiz-adv-x="572" 
d="M414 470v27q0 19 15 33t35 14q21 0 36 -14t15 -33v-462q0 -115 -58 -180q-32 -37 -84.5 -57.5t-111.5 -20.5q-87 0 -155 38q-60 33 -60 66q0 19 15.5 34t34.5 15q11 0 28 -10l27 -16q54 -34 114 -34q38 0 72.5 17t51.5 45q14 21 18.5 43t4.5 65v24q-39 -46 -69 -61.5
t-80 -15.5q-101 0 -166 77.5t-65 197.5q0 121 67.5 201.5t168.5 80.5q46 0 75.5 -15t70.5 -59zM279 448q-63 0 -100.5 -49.5t-37.5 -131.5q0 -83 37.5 -133.5t100.5 -50.5q64 0 104 54q30 40 30 114q0 59 -5.5 87t-21.5 52q-39 58 -107 58z" />
    <glyph glyph-name="h" unicode="h" horiz-adv-x="556" 
d="M162 481l21 21q51 41 122 41q84 0 143 -59q49 -49 49 -141v-302q0 -21 -15 -36.5t-37 -15.5q-21 0 -36 15.5t-15 36.5v294q0 49 -33.5 83.5t-80.5 34.5q-49 0 -83.5 -34t-34.5 -82v-296q0 -21 -15 -36t-36 -15q-22 0 -38 15t-16 36v684q0 22 15.5 37.5t38.5 15.5
q21 0 36 -15.5t15 -37.5v-244z" />
    <glyph glyph-name="i" unicode="i" horiz-adv-x="222" 
d="M162 43q0 -22 -15 -37.5t-37 -15.5t-37 15.5t-15 37.5v448q0 22 15.5 37.5t37.5 15.5q21 0 36 -15.5t15 -37.5v-448zM45 666q0 27 20 46.5t47 19.5q25 0 43.5 -19.5t18.5 -46.5q0 -26 -18.5 -45t-44.5 -19t-46 19t-20 45z" />
    <glyph glyph-name="j" unicode="j" horiz-adv-x="219" 
d="M161 -169q0 -22 -15 -37.5t-36 -15.5q-22 0 -37.5 15.5t-15.5 37.5v660q0 22 15.5 38t37.5 16q21 0 36 -15.5t15 -37.5v-661zM43 667q0 27 19 46.5t47 19.5q26 0 44.5 -19.5t18.5 -46.5t-18.5 -45.5t-45.5 -18.5t-46 18.5t-19 45.5z" />
    <glyph glyph-name="k" unicode="k" horiz-adv-x="478" 
d="M162 254v-211q0 -22 -15 -37t-36 -15q-22 0 -38 15.5t-16 37.5v685q0 22 15.5 37.5t37.5 15.5t37 -15.5t15 -38.5v-373l195 167q25 22 43 22q20 0 35 -15t15 -35q0 -23 -23 -42l-184 -147l222 -227q14 -14 14 -37q0 -21 -14.5 -36t-36.5 -15q-20 0 -45 25z" />
    <glyph glyph-name="l" unicode="l" horiz-adv-x="219" 
d="M162 45q0 -23 -15 -39t-37 -16t-37.5 16t-15.5 38v684q0 22 15.5 37.5t37.5 15.5q21 0 36.5 -15.5t15.5 -37.5v-683z" />
    <glyph glyph-name="m" unicode="m" horiz-adv-x="855" 
d="M444 458q16 23 31 36q50 50 134 50q87 0 141 -56q26 -26 36.5 -55.5t10.5 -74.5v-314q0 -22 -15 -38t-36 -16q-22 0 -37.5 15.5t-15.5 37.5v305q0 44 -29 75t-69 31q-47 0 -81 -31t-34 -75v-304q0 -22 -15.5 -38t-37.5 -16q-21 0 -36 15.5t-15 37.5v305q0 45 -31 76.5
t-76 31.5q-44 0 -75.5 -31.5t-31.5 -75.5v-305q0 -22 -15 -37.5t-36 -15.5q-23 0 -38.5 15t-15.5 37v454q0 19 15.5 33t37.5 14q20 0 34 -13.5t14 -33.5v-16q4 6 10.5 13t7.5 8q45 43 118 43q35 0 72 -15q29 -12 44 -26t34 -46z" />
    <glyph glyph-name="n" unicode="n" horiz-adv-x="555" 
d="M159 477q31 36 64 49q41 19 80 19q82 0 142 -57q28 -28 40 -61t12 -83v-302q0 -22 -15 -37.5t-37 -15.5t-37.5 15t-15.5 37v294q0 49 -32.5 83.5t-79.5 34.5q-49 0 -83.5 -34t-34.5 -82v-296q0 -21 -15.5 -36t-36.5 -15q-22 0 -37.5 15t-15.5 37v455q0 19 15.5 33
t37.5 14q20 0 34.5 -14t14.5 -33v-20z" />
    <glyph glyph-name="o" unicode="o" horiz-adv-x="554" 
d="M32 268q0 118 70.5 197.5t174.5 79.5t174.5 -80t70.5 -198t-70.5 -198t-174.5 -80t-174.5 80t-70.5 199zM277 451q-60 0 -98 -51.5t-38 -132.5q0 -83 37.5 -134t98.5 -51t98.5 51t37.5 133t-37.5 133.5t-98.5 51.5z" />
    <glyph glyph-name="p" unicode="p" horiz-adv-x="572" 
d="M162 57v-228q0 -22 -15.5 -37.5t-36.5 -15.5q-22 0 -37.5 15.5t-15.5 37.5v668q0 19 15 32.5t36 13.5t36 -13.5t15 -32.5v-29q39 46 69 61.5t79 15.5q101 0 167.5 -77.5t66.5 -195.5q0 -122 -67 -202t-169 -80q-47 0 -76 13.5t-67 53.5zM186 390q-28 -44 -28 -128
q0 -80 37 -128.5t99 -48.5q61 0 99.5 51t38.5 133q0 81 -37.5 131.5t-98.5 50.5q-32 0 -62 -16.5t-48 -44.5z" />
    <glyph glyph-name="q" unicode="q" horiz-adv-x="573" 
d="M413 471v26q0 19 15 32.5t36 13.5t36.5 -13.5t15.5 -32.5v-668q0 -22 -15.5 -37.5t-36.5 -15.5q-22 0 -37.5 16t-15.5 38v229q-41 -40 -71 -54t-76 -14q-98 0 -165 79.5t-67 195.5q0 119 67 199t167 80q47 0 77 -15t70 -59zM277 450q-61 0 -98.5 -50t-37.5 -131
q0 -82 37.5 -133t97.5 -51q64 0 101.5 48.5t37.5 130.5q0 88 -36.5 137t-101.5 49z" />
    <glyph glyph-name="r" unicode="r" horiz-adv-x="294" 
d="M160 462q12 20 31 45q31 37 72 37q23 0 39.5 -16t16.5 -38q0 -33 -39 -48q-13 -5 -27 -12q-13 -5 -32 -18q-57 -47 -59 -131l-1 -239q0 -21 -15 -36.5t-36 -15.5q-22 0 -37.5 15.5t-15.5 36.5v455q0 19 16 32.5t38 13.5q21 0 36 -13.5t15 -32.5z" />
    <glyph glyph-name="s" unicode="s" horiz-adv-x="448" 
d="M305 432q-39 21 -81 21q-35 0 -57 -16t-22 -41q0 -22 21 -38q24 -16 78 -37q73 -27 110 -51q69 -44 69 -118q0 -70 -58 -116t-144 -46q-69 0 -135 35q-65 33 -65 71q0 20 13 35t31 15q15 0 49 -22q59 -43 112 -43q39 0 65.5 20.5t26.5 49.5q0 41 -78 73l-45 17
q-75 31 -105 51q-50 34 -50 96q0 68 53.5 112.5t135.5 44.5q69 0 125 -29.5t56 -64.5q0 -19 -13 -32.5t-31 -13.5q-10 0 -34 12z" />
    <glyph glyph-name="t" unicode="t" horiz-adv-x="266" 
d="M83 443h-38q-20 0 -34 13.5t-14 33.5q0 19 14 32.5t35 13.5h36v112q0 23 15 38.5t37 15.5t37 -15.5t15 -38.5v-112h46q20 0 34 -14t14 -33t-14.5 -32.5t-34.5 -13.5h-45v-399q0 -22 -15 -37.5t-36 -15.5q-22 0 -37 15.5t-15 37.5v399z" />
    <glyph glyph-name="u" unicode="u" horiz-adv-x="557" 
d="M498 202q0 -56 -12 -90.5t-41 -62.5q-62 -59 -167 -59q-102 0 -167 59q-54 48 -54 153v289q0 22 16 37.5t38 15.5q21 0 36 -15.5t15 -37.5v-283q0 -63 29 -92q33 -33 87 -33q53 0 86 33q30 26 30 92v283q0 22 15 37.5t36 15.5q22 0 37.5 -15.5t15.5 -37.5v-289z" />
    <glyph glyph-name="v" unicode="v" horiz-adv-x="444" 
d="M224 159l114 346q13 38 49 38q22 0 37.5 -15t15.5 -37q0 -11 -3 -21l-159 -436q-16 -43 -54 -43q-43 0 -56 43l-160 436q-4 9 -4 21q0 22 15.5 37t38.5 15q35 0 49 -38z" />
    <glyph glyph-name="w" unicode="w" horiz-adv-x="769" 
d="M385 370l-106 -328q-17 -51 -58 -51q-43 0 -64 55l-147 425q-4 12 -4 19q0 23 14.5 38.5t36.5 15.5q19 0 33.5 -10.5t19.5 -28.5l111 -350l108 338q14 51 54 51q23 0 36 -11.5t22 -39.5l107 -338l110 350q13 39 53 39q22 0 37 -15.5t15 -38.5q0 -10 -3 -19l-148 -425
q-19 -55 -64 -55q-42 0 -58 51z" />
    <glyph glyph-name="x" unicode="x" horiz-adv-x="489" 
d="M244 206l-139 -188q-21 -26 -46 -26q-23 0 -38 15t-15 37q0 18 12 35l163 205l-139 171q-13 18 -13 38q0 21 15 36t37 15q25 0 44 -26l119 -158l119 158q21 26 45 26q21 0 36 -15t15 -36t-14 -38l-137 -171l161 -205q12 -15 12 -35q0 -22 -15 -37t-37 -15q-24 0 -45 26z
" />
    <glyph glyph-name="y" unicode="y" horiz-adv-x="448" 
d="M171 24l-165 448q-3 9 -3 19q0 22 15.5 37t37.5 15q38 0 51 -38l118 -344l116 342q12 40 50 40q22 0 37 -15t15 -37q0 -10 -3 -20l-239 -652q-16 -43 -52 -43q-22 0 -37 14.5t-15 34.5q0 13 5 23z" />
    <glyph glyph-name="z" unicode="z" horiz-adv-x="464" 
d="M170 94h227q22 0 37 -13.5t15 -32.5q0 -20 -15.5 -34t-37.5 -14h-327q-22 0 -34.5 11.5t-12.5 30.5q0 17 9 29l257 370h-207q-21 0 -36 14t-15 33q0 20 15 34t35 14h307q50 0 50 -41q0 -11 -11 -29z" />
    <glyph glyph-name="braceleft" unicode="{" horiz-adv-x="351" 
d="M43 360q28 2 46 21.5t18 50.5v326q0 36 22 56.5t62 20.5h91v-53h-12q-34 0 -45.5 -12t-11.5 -45v-282q0 -36 -27 -61q-21 -19 -48 -22q14 -2 26 -7q49 -24 49 -76v-282q0 -33 11.5 -45t45.5 -12h12v-53h-91q-40 0 -62 20.5t-22 56.5v326q0 31 -18 50.5t-46 21.5z" />
    <glyph glyph-name="bar" unicode="|" horiz-adv-x="190" 
d="M43 0v720h90v-720h-90z" />
    <glyph glyph-name="braceright" unicode="}" horiz-adv-x="351" 
d="M43 -115v53h12q34 0 46 12t12 45v282q0 53 49 76q11 5 26 7q-15 2 -26 7q-49 23 -49 76v282q0 33 -12 45t-46 12h-12v53h91q41 0 63 -20.5t22 -56.5v-326q0 -31 18 -50.5t45 -21.5q-27 -2 -45 -21.5t-18 -50.5v-326q0 -36 -22.5 -56.5t-62.5 -20.5h-91z" />
    <glyph glyph-name="asciitilde" unicode="~" horiz-adv-x="423" 
d="M71 766q-21 0 -35.5 15t-14.5 35q0 22 14.5 37t35.5 15h259q21 -1 36 -16t15 -36t-15.5 -35.5t-37.5 -14.5h-257z" />
    <glyph glyph-name="nbspace" unicode="&#xa0;" horiz-adv-x="500" 
d="M0 0z" />
    <glyph glyph-name="exclamdown" unicode="&#xa1;" horiz-adv-x="224" 
d="M50 674q0 25 18.5 43t43.5 18t43.5 -18t18.5 -43q0 -26 -18.5 -45t-44.5 -19q-25 0 -43 19t-18 45zM163 38q0 -22 -14.5 -37.5t-36.5 -15.5t-36.5 15.5t-14.5 37.5v425q0 22 14.5 37.5t35.5 15.5q22 0 37 -15.5t15 -36.5v-426z" />
    <glyph glyph-name="cent" unicode="&#xa2;" horiz-adv-x="458" 
d="M234 541v65q0 8 6 13.5t14 5.5t14 -6t6 -14v-60q81 -3 126 -25q37 -20 37 -48q0 -22 -13.5 -36.5t-33.5 -14.5q-10 0 -34 9q-12 7 -21 9q-27 9 -53 9h-7v-356q2 0 8 -0.5t9 -0.5q18 0 29 3q5 0 22 8l21 7q19 8 26 8q19 0 32.5 -14t13.5 -34q0 -27 -27 -46q-9 -6 -27 -14
q-43 -17 -107 -18v-56q0 -9 -6 -15t-14 -6q-9 0 -15 6t-6 15v61q-53 12 -80 27t-55 48q-67 78 -67 195q0 131 84 212q26 25 49.5 37.5t68.5 25.5zM234 103v336q-33 -16 -53 -40q-38 -52 -38 -125q0 -74 36 -129q16 -24 55 -42z" />
    <glyph glyph-name="sterling" unicode="&#xa3;" horiz-adv-x="608" 
d="M166 311h-89q-21 0 -36.5 14.5t-15.5 34.5q0 21 15.5 35.5t36.5 14.5h65l-11 20q-33 66 -33 116q0 83 65.5 137.5t165.5 54.5q92 0 166 -56.5t74 -126.5q0 -22 -15 -37t-37 -15q-4 0 -12 2q-16 3 -22.5 10t-18.5 33q-42 86 -135 86q-51 0 -83.5 -29t-32.5 -74
q0 -10 1 -15q3 -27 31 -84q4 -4 11 -21h132q22 0 38 -14.5t16 -34.5q0 -21 -16 -36t-38 -15h-111q4 -28 4 -48q0 -28 -9 -55q-13 -48 -64 -109h323q21 0 36 -14.5t15 -34.5t-15 -35t-35 -15h-412q-23 0 -39 15t-16 37q0 5 1 7q1 14 13 27l23 25q69 75 69 152q0 23 -5 48z
" />
    <glyph glyph-name="currency" unicode="&#xa4;" horiz-adv-x="494" 
d="M43 212l60 60q-13 17 -21 42q-24 75 21 137l-59 57q14 20 33 37l62 -60q41 30 90 30q50 0 90 -29l60 60q2 -2 5.5 -4t4.5 -4q14 -12 25 -30l-59 -56q29 -41 28.5 -91t-29.5 -91l60 -60l-8 -8l-8 -9q-6 -6 -20 -18l-59 60q-41 -30 -90 -30q-50 0 -90 31l-62 -60l-9 8l-8 9
l-9 9zM126 360q0 -41 30 -73q30 -30 73 -30t73 30t30 73t-30 73t-73 30t-73 -30t-30 -73z" />
    <glyph glyph-name="yen" unicode="&#xa5;" horiz-adv-x="598" 
d="M190 419l-142 226q-10 14 -10 32q0 21 16 36t38 15q30 0 45 -26l161 -258l161 258q16 26 47 26q23 0 38.5 -14.5t15.5 -36.5q0 -18 -10 -32l-144 -224h102q12 0 20.5 -8.5t8.5 -20.5q0 -11 -8.5 -19t-20.5 -8l-139 -1l-17 -26v-20l156 1q12 0 20.5 -9t8.5 -21
q0 -10 -8.5 -17.5t-20.5 -7.5l-156 -1l2 -217q0 -23 -16 -39t-40 -16q-23 0 -38.5 16t-15.5 39l-1 217l-157 -1q-11 0 -19.5 8.5t-8.5 19.5t8.5 19.5t21.5 8.5h156l-1 20l-16 26l-139 -1q-13 0 -21.5 8.5t-8.5 20.5t8.5 19.5t21.5 7.5h102z" />
    <glyph glyph-name="section" unicode="&#xa7;" horiz-adv-x="575" 
d="M128 450q-35 35 -46.5 58.5t-11.5 57.5q0 79 59 125t160 46q92 0 151 -35q33 -21 54 -54.5t21 -64.5q0 -20 -13.5 -33.5t-32.5 -13.5q-11 0 -17 5q-15 6 -34 38q-19 33 -45 45q-36 17 -83 17q-49 0 -77.5 -20.5t-28.5 -55.5q0 -26 15 -44t50 -35l164 -77
q69 -34 101.5 -75.5t32.5 -97.5q0 -54 -26 -92t-93 -79q35 -35 47.5 -59.5t12.5 -57.5q0 -53 -34 -96q-31 -40 -76 -57.5t-116 -17.5q-86 0 -148.5 45t-62.5 107q0 26 14 42t38 16q16 0 26.5 -10.5t24.5 -40.5q11 -23 20.5 -34t28.5 -18q29 -9 61 -9q52 0 81 19t29 53
q0 46 -56 72l-155 75q-83 39 -111 87q-25 39 -25 96q0 19 3 37q8 39 28.5 68t69.5 68zM351 326l-142 69q-46 -29 -64 -62q-16 -26 -16 -53q0 -56 87 -98l122 -59q36 15 52 26t29 28q17 22 17 49q0 61 -85 100z" />
    <glyph glyph-name="dieresis" unicode="&#xa8;" horiz-adv-x="262" 
d="M-29 640q0 25 17.5 43t42.5 18t42 -17.5t17 -43.5q0 -24 -17 -41t-42 -17t-42.5 17t-17.5 41zM171 640q0 25 17 43t41 18q26 0 44 -18t18 -44q0 -23 -18 -40t-43 -17q-24 0 -41.5 17t-17.5 41z" />
    <glyph glyph-name="copyright" unicode="&#xa9;" horiz-adv-x="932" 
d="M58 361q0 154 109 263q72 72 168 97.5t192 0t168 -97.5q109 -109 109 -263q0 -155 -109.5 -264.5t-263.5 -108.5q-155 -1 -264 108.5t-109 264.5zM112 361q0 -134 94 -230q93 -95 225 -95t225 95q94 95 94 229.5t-94 229.5q-93 94 -225 94t-225 -94q-94 -96 -94 -229z
M602 541l-33 -47q-37 31 -82 40q-76 15 -137.5 -28t-73.5 -118q-12 -77 29.5 -136.5t114.5 -72.5q66 -11 125 26q16 10 23 16l33 -47q-64 -53 -151 -56q-83 -2 -148 45t-85.5 121t7.5 162q30 80 103.5 121.5t161.5 25.5q64 -11 113 -52z" />
    <glyph glyph-name="ordfeminine" unicode="&#xaa;" horiz-adv-x="482" 
d="M53 336h350v-68h-350v68zM329 655v65h74v-335h-75v69l-3 -8l-4 -8q-22 -40 -72.5 -55t-105.5 6q-80 31 -97 126q-3 19 -3 39q1 86 60 137.5t132 36.5q55 -12 85 -57l5 -9zM120 554q-1 -11 2 -23q6 -35 28 -58t55 -29t61 7q50 22 62 80q4 23 0 45q-12 58 -60 80
t-92.5 -2.5t-54.5 -79.5q-1 -6 -1 -20z" />
    <glyph glyph-name="guillemotleft" unicode="&#xab;" horiz-adv-x="438" 
d="M133 268l85 -135q11 -17 11 -31q0 -18 -13 -31.5t-31 -13.5q-26 0 -42 28l-88 144q-17 28 -17 40q0 13 15 37l90 146q16 26 42 26q20 0 32 -11.5t12 -30.5q0 -17 -11 -34zM304 268l85 -135q12 -16 12 -31q0 -18 -13.5 -31.5t-30.5 -13.5q-27 0 -43 28l-88 144
q-17 28 -17 40q0 13 15 37l90 146q16 26 43 26q19 0 31 -11.5t12 -30.5t-11 -34z" />
    <glyph glyph-name="logicalnot" unicode="&#xac;" horiz-adv-x="638" 
d="M43 360v90h504v-234h-72v144h-432z" />
    <glyph glyph-name="registered" unicode="&#xae;" horiz-adv-x="932" 
d="M58 361q0 154 109 263q72 72 168 97.5t192 0t168 -97.5q109 -109 109 -263q0 -155 -109.5 -264.5t-263.5 -108.5q-155 -1 -264 108.5t-109 264.5zM112 361q0 -134 94 -230q93 -95 225 -95t225 95q94 95 94 229.5t-94 229.5q-93 94 -225 94t-225 -94q-94 -96 -94 -229z
M311 135v460h114q71 0 105 -27q33 -29 42 -72q11 -59 -17 -100.5t-82 -50.5q-5 -1 -15 -1l141 -209h-77l-146 223v-223h-65zM376 381h38q45 0 69 21t25 58q2 38 -21.5 59.5t-67.5 21.5h-43v-160z" />
    <glyph glyph-name="macron" unicode="&#xaf;" horiz-adv-x="304" 
d="M45 589q-18 0 -31.5 13.5t-13.5 32.5t13.5 32.5t31.5 13.5h213q19 0 32.5 -14t13.5 -33t-14 -32t-34 -13h-211z" />
    <glyph glyph-name="plusminus" unicode="&#xb1;" horiz-adv-x="594" 
d="M506 87v-68h-462v68h462zM309 453v-122h197v-68h-197v-122h-68v122h-197v68h197v122h68z" />
    <glyph glyph-name="acute" unicode="&#xb4;" horiz-adv-x="232" 
d="M65 581q-3 -3 -12 -3q-21 0 -36.5 12t-15.5 27q0 40 30 50l139 54q6 3 14 3q20 0 35.5 -12t15.5 -28q0 -38 -31 -49z" />
    <glyph glyph-name="mu" unicode="&#xb5;" horiz-adv-x="623" 
d="M166 449v-296q0 -71 14 -95q13 -22 50 -24q57 0 95 80q36 79 38 205v130h92v-328q0 -45 9 -66q9 -20 29 -21q20 0 32 21q11 20 11 61v14h21q0 -5 1 -9v-13q0 -56 -24 -87q-21 -28 -66 -30q-49 0 -76 43q-24 40 -26 129q-23 -89 -61 -130q-38 -40 -97 -42q-42 0 -73 26
q-28 27 -40 77q0 -15 -1 -28q0 -65 32 -141q32 -78 32 -92q0 -20 -11 -31q-9 -9 -31 -11q-23 0 -33 17q-8 14 -10 53q0 2 0.5 9.5t1 21t0.5 27.5q2 64 2 89q0 57 -1 101q-2 88 -2 95v245h92z" />
    <glyph glyph-name="paragraph" unicode="&#xb6;" horiz-adv-x="649" 
d="M241 720h316v-58h-316q-59 0 -100 -42t-40 -102q1 -58 42 -99t98 -41h67v238h61v-616h-61v320h-67q-82 0 -140 58.5t-58 141.5t58 141.5t140 58.5zM434 0v616h61v-616h-61z" />
    <glyph glyph-name="periodcentered" unicode="&#xb7;" horiz-adv-x="223" 
d="M49 265q0 25 18 43t44 18t44.5 -18t18.5 -44q0 -25 -18.5 -43t-44.5 -18t-44 18t-18 44z" />
    <glyph glyph-name="cedilla" unicode="&#xb8;" horiz-adv-x="177" 
d="M177 29l-76 -166q-11 -21 -43 -21q-36 0 -36 48q0 22 9 40l52 99h94z" />
    <glyph glyph-name="ordmasculine" unicode="&#xba;" horiz-adv-x="482" 
d="M49 268v68h349v-68h-349zM43 554q0 21 4 37q15 75 75.5 115.5t136.5 25.5q74 -15 115 -77t26 -138q-15 -73 -76.5 -114t-136.5 -26q-54 11 -91.5 48.5t-48.5 91.5q-4 17 -4 37zM117 554q0 -8 2 -20q13 -74 82 -89q44 -10 81 16t45 72q6 35 -6 65t-37 48q-48 36 -104 11
q-50 -24 -61 -82q-2 -14 -2 -21z" />
    <glyph glyph-name="guillemotright" unicode="&#xbb;" horiz-adv-x="438" 
d="M134 266l-85 134q-11 19 -11 32q0 17 13 30.5t30 13.5q27 0 43 -27l88 -145q17 -27 17 -40q0 -14 -15 -36l-90 -146q-15 -27 -43 -27q-19 0 -31 12.5t-12 29.5q0 16 11 35zM305 266l-86 134q-10 20 -10 32q0 17 13 30.5t31 13.5q11 0 23 -8t19 -19l89 -145q16 -28 16 -40
q0 -16 -15 -36l-90 -146q-17 -27 -42 -27q-19 0 -31.5 12t-12.5 30q0 15 10 35z" />
    <glyph glyph-name="questiondown" unicode="&#xbf;" horiz-adv-x="478" 
d="M163 675q0 25 18.5 42.5t44.5 17.5t44.5 -17.5t18.5 -42.5q0 -26 -18.5 -44.5t-44.5 -18.5t-44.5 18.5t-18.5 44.5zM277 376q43 -10 66 -20.5t46 -32.5q61 -58 61 -142q0 -87 -62 -142t-160 -55q-82 0 -143 46.5t-61 108.5q0 24 13.5 39.5t34.5 15.5q29 0 44 -30l8 -18
q31 -60 104 -60q47 0 77 26.5t30 69.5q0 23 -9 44q-11 28 -32 42t-60 21q-26 4 -34 6.5t-15 10.5q-12 11 -12 46v113q0 21 15.5 36t37.5 15q21 0 36 -15t15 -37v-88z" />
    <glyph glyph-name="Agrave" unicode="&#xc0;" horiz-adv-x="626" 
d="M155 149l-45 -122q-12 -37 -51 -37q-22 0 -36.5 14.5t-14.5 36.5q0 18 5 29l221 595q13 35 31 49.5t49 14.5q30 0 48 -15t30 -49l220 -595q6 -16 6 -32q0 -21 -14.5 -34.5t-37.5 -13.5q-36 0 -50 38l-45 121h-316zM314 606l-128 -361h253zM226 856q-30 12 -30 49
q0 16 15.5 28t36.5 12q6 0 12 -3l139 -54q30 -12 30 -50q0 -16 -15 -28t-35 -12q-8 0 -15 4z" />
    <glyph glyph-name="Aacute" unicode="&#xc1;" horiz-adv-x="626" 
d="M155 149l-45 -122q-12 -37 -51 -37q-22 0 -36.5 14.5t-14.5 36.5q0 18 5 29l221 595q13 35 31 49.5t49 14.5q30 0 48 -15t30 -49l220 -595q6 -16 6 -32q0 -21 -14.5 -34.5t-37.5 -13.5q-36 0 -50 38l-45 121h-316zM314 606l-128 -361h253zM262 801q-3 -3 -12 -3
q-21 0 -36.5 12t-15.5 27q0 40 30 50l139 54q6 3 14 3q20 0 35.5 -12t15.5 -28q0 -38 -31 -49z" />
    <glyph glyph-name="Acircumflex" unicode="&#xc2;" horiz-adv-x="626" 
d="M155 149l-45 -122q-12 -37 -51 -37q-22 0 -36.5 14.5t-14.5 36.5q0 18 5 29l221 595q13 35 31 49.5t49 14.5q30 0 48 -15t30 -49l220 -595q6 -16 6 -32q0 -21 -14.5 -34.5t-37.5 -13.5q-36 0 -50 38l-45 121h-316zM314 606l-128 -361h253zM314 838l-93 -37q-8 -3 -13 -3
q-21 0 -36.5 12t-15.5 28q0 40 30 50l102 41q21 8 26 8q4 0 25 -8l103 -40q28 -10 28 -50q0 -17 -15.5 -29t-37.5 -12q-5 0 -14 3z" />
    <glyph glyph-name="Atilde" unicode="&#xc3;" horiz-adv-x="626" 
d="M155 149l-45 -122q-12 -37 -51 -37q-22 0 -36.5 14.5t-14.5 36.5q0 18 5 29l221 595q13 35 31 49.5t49 14.5q30 0 48 -15t30 -49l220 -595q6 -16 6 -32q0 -21 -14.5 -34.5t-37.5 -13.5q-36 0 -50 38l-45 121h-316zM314 606l-128 -361h253zM205 809q-19 0 -32 13.5
t-13 32.5t13 32.5t32 13.5h213q19 0 32.5 -14t13.5 -33t-14 -32t-34 -13h-211z" />
    <glyph glyph-name="Adieresis" unicode="&#xc4;" horiz-adv-x="626" 
d="M155 149l-45 -120q-12 -39 -52 -39q-22 0 -36 14.5t-14 36.5q0 18 5 29l221 595q13 35 31 49.5t49 14.5q30 0 48 -15t30 -49l222 -594q5 -15 5 -30q0 -22 -15 -36.5t-38 -14.5q-36 0 -50 38l-45 121h-316zM125 735q0 23 17 39.5t41 16.5q23 0 39 -16.5t16 -40.5
q0 -22 -16 -38t-39 -16q-24 0 -41 16t-17 39zM388 734q0 24 16.5 40.5t39.5 16.5q24 0 40.5 -16.5t16.5 -39.5t-16.5 -39t-40.5 -16q-23 0 -39.5 16t-16.5 38zM187 245h252l-125 361z" />
    <glyph glyph-name="Aring" unicode="&#xc5;" horiz-adv-x="624" 
d="M279 724q-57 26 -57 76q0 36 26.5 60t65.5 24q37 0 64.5 -24.5t27.5 -57.5q0 -55 -60 -79q19 -11 27 -21.5t18 -36.5l220 -595q6 -16 6 -32q0 -21 -14.5 -34.5t-37.5 -13.5q-36 0 -50 38l-45 121h-316l-45 -122q-12 -37 -51 -37q-22 0 -37 14.5t-15 36.5q0 15 6 29
l220 595q10 27 18.5 37.5t28.5 21.5zM185 245h253l-126 361zM277 801q0 -15 10.5 -26t26.5 -11q15 0 25.5 11t10.5 26q0 16 -10.5 26.5t-25.5 10.5q-16 0 -26.5 -10.5t-10.5 -26.5z" />
    <glyph glyph-name="AE" unicode="&#xc6;" horiz-adv-x="790" 
d="M161 146l-65 -122q-17 -33 -48 -33q-22 0 -36.5 14.5t-14.5 36.5q0 16 6 26l312 609q14 27 25.5 35.5t33.5 8.5h328q20 0 34 -14.5t14 -34.5q0 -21 -14 -35t-34 -14h-201v-213h189q19 0 33 -14.5t14 -34.5q0 -21 -14.5 -35.5t-34.5 -14.5h-189v-213h210q20 0 35 -14
t15 -34t-15 -35t-36 -15h-262q-23 0 -39 16t-16 39v90zM391 602l-183 -361h183v361z" />
    <glyph glyph-name="Ccedilla" unicode="&#xc7;" horiz-adv-x="602" 
d="M415 -21l-77 -101q-11 -16 -39 -16q-36 0 -36 36q0 14 6 21l52 60h94zM509 138q17 11 30 11q20 0 34 -15t14 -36q0 -42 -68 -75.5t-154 -33.5q-147 0 -240 102.5t-93 265.5q0 166 92 270.5t238 104.5q82 0 147 -34t65 -77q0 -20 -13 -34.5t-32 -14.5q-15 0 -32 11l-32 19
q-46 28 -107 28q-93 0 -152.5 -75.5t-59.5 -194.5q0 -121 60.5 -194.5t158.5 -73.5q65 0 115 29z" />
    <glyph glyph-name="Egrave" unicode="&#xc8;" horiz-adv-x="457" 
d="M166 98h209q21 0 36 -14.5t15 -34.5t-15 -34.5t-35 -14.5h-264q-24 0 -39.5 16t-15.5 41v608q0 23 16.5 39.5t40.5 16.5h254q20 0 34 -15t14 -35t-14.5 -34.5t-35.5 -14.5h-198v-212h186q21 0 35.5 -14.5t14.5 -34.5q0 -21 -14 -35.5t-35 -14.5h-189v-213zM142 856
q-30 12 -30 49q0 16 15.5 28t36.5 12q6 0 12 -3l139 -54q30 -12 30 -50q0 -16 -15 -28t-35 -12q-8 0 -15 4z" />
    <glyph glyph-name="Eacute" unicode="&#xc9;" horiz-adv-x="457" 
d="M166 98h209q21 0 36 -14.5t15 -34.5t-15 -34.5t-35 -14.5h-264q-24 0 -39.5 16t-15.5 41v608q0 23 16.5 39.5t40.5 16.5h254q20 0 34 -15t14 -35t-14.5 -34.5t-35.5 -14.5h-198v-212h186q21 0 35.5 -14.5t14.5 -34.5q0 -21 -14 -35.5t-35 -14.5h-189v-213zM177 801
q-3 -3 -12 -3q-21 0 -36.5 12t-15.5 27q0 40 30 50l139 54q6 3 14 3q20 0 35.5 -12t15.5 -28q0 -38 -31 -49z" />
    <glyph glyph-name="Ecircumflex" unicode="&#xca;" horiz-adv-x="457" 
d="M166 98h209q21 0 36 -14.5t15 -34.5t-15 -34.5t-35 -14.5h-264q-24 0 -39.5 16t-15.5 41v608q0 23 16.5 39.5t40.5 16.5h254q20 0 34 -15t14 -35t-14.5 -34.5t-35.5 -14.5h-198v-212h186q21 0 35.5 -14.5t14.5 -34.5q0 -21 -14 -35.5t-35 -14.5h-189v-213zM229 838
l-93 -37q-8 -3 -13 -3q-21 0 -36.5 12t-15.5 28q0 40 30 50l102 41q21 8 26 8q4 0 25 -8l103 -40q28 -10 28 -50q0 -17 -15.5 -29t-37.5 -12q-5 0 -14 3z" />
    <glyph glyph-name="Edieresis" unicode="&#xcb;" horiz-adv-x="457" 
d="M166 98h209q21 0 36 -14.5t15 -34.5t-15 -34.5t-35 -14.5h-264q-24 0 -39.5 16t-15.5 41v608q0 23 16.5 39.5t40.5 16.5h254q20 0 34 -15t14 -35t-14.5 -34.5t-35.5 -14.5h-198v-212h186q21 0 35.5 -14.5t14.5 -34.5q0 -21 -14 -35.5t-35 -14.5h-189v-213zM68 860
q0 25 17.5 43t42.5 18t42 -17.5t17 -43.5q0 -24 -17 -41t-42 -17t-42.5 17t-17.5 41zM268 860q0 25 17 43t41 18q26 0 44 -18t18 -44q0 -23 -18 -40t-43 -17q-24 0 -41.5 17t-17.5 41z" />
    <glyph glyph-name="Igrave" unicode="&#xcc;" horiz-adv-x="223" 
d="M165 44q0 -23 -15.5 -38.5t-38.5 -15.5q-22 0 -38 16t-16 38v630q0 22 16.5 38.5t38.5 16.5t37.5 -16t15.5 -39v-630zM25 856q-30 12 -30 49q0 16 15.5 28t36.5 12q6 0 12 -3l139 -54q30 -12 30 -50q0 -16 -15 -28t-35 -12q-8 0 -15 4z" />
    <glyph glyph-name="Iacute" unicode="&#xcd;" horiz-adv-x="223" 
d="M165 44q0 -23 -15.5 -38.5t-38.5 -15.5q-22 0 -38 16t-16 38v630q0 22 16.5 38.5t38.5 16.5t37.5 -16t15.5 -39v-630zM61 801q-3 -3 -12 -3q-21 0 -36.5 12t-15.5 27q0 40 30 50l139 54q6 3 14 3q20 0 35.5 -12t15.5 -28q0 -38 -31 -49z" />
    <glyph glyph-name="Icircumflex" unicode="&#xce;" horiz-adv-x="223" 
d="M165 44q0 -23 -15.5 -38.5t-38.5 -15.5q-22 0 -38 16t-16 38v630q0 22 16.5 38.5t38.5 16.5t37.5 -16t15.5 -39v-630zM113 838l-93 -37q-8 -3 -13 -3q-21 0 -36.5 12t-15.5 28q0 40 30 50l102 41q21 8 26 8q4 0 25 -8l103 -40q28 -10 28 -50q0 -17 -15.5 -29t-37.5 -12
q-5 0 -14 3z" />
    <glyph glyph-name="Idieresis" unicode="&#xcf;" horiz-adv-x="223" 
d="M165 44q0 -23 -15.5 -38.5t-38.5 -15.5q-22 0 -38 16t-16 38v630q0 22 16.5 38.5t38.5 16.5t37.5 -16t15.5 -39v-630zM-48 860q0 25 17.5 43t42.5 18t42 -17.5t17 -43.5q0 -24 -17 -41t-42 -17t-42.5 17t-17.5 41zM152 860q0 25 17 43t41 18q26 0 44 -18t18 -44
q0 -23 -18 -40t-43 -17q-24 0 -41.5 17t-17.5 41z" />
    <glyph glyph-name="Ntilde" unicode="&#xd1;" horiz-adv-x="689" 
d="M164 535l1 -490q0 -22 -15.5 -37.5t-37.5 -15.5q-23 0 -39 16t-16 38v629q0 23 16.5 39t38.5 16q28 0 45 -25l368 -520l-1 489q0 23 16 39.5t38 16.5t37.5 -16t15.5 -39v-631q0 -23 -15.5 -38.5t-39.5 -15.5q-26 0 -42 24zM236 809q-19 0 -32 13.5t-13 32.5t13 32.5
t32 13.5h213q19 0 32.5 -14t13.5 -33t-14 -32t-34 -13h-211z" />
    <glyph glyph-name="Ograve" unicode="&#xd2;" horiz-adv-x="715" 
d="M32 361q0 163 91 266.5t235 103.5q142 1 233.5 -104t91.5 -267t-91.5 -266.5t-233.5 -104.5q-143 0 -234.5 104.5t-91.5 267.5zM358 635q-96 0 -153 -74.5t-57 -200.5t57 -200.5t153 -74.5q95 0 151.5 74.5t56.5 200.5t-56.5 200.5t-151.5 74.5zM271 856q-30 12 -30 49
q0 16 15.5 28t36.5 12q6 0 12 -3l139 -54q30 -12 30 -50q0 -16 -15 -28t-35 -12q-8 0 -15 4z" />
    <glyph glyph-name="Oacute" unicode="&#xd3;" horiz-adv-x="715" 
d="M32 361q0 163 91 266.5t235 103.5q142 1 233.5 -104t91.5 -267t-91.5 -266.5t-233.5 -104.5q-143 0 -234.5 104.5t-91.5 267.5zM358 635q-96 0 -153 -74.5t-57 -200.5t57 -200.5t153 -74.5q95 0 151.5 74.5t56.5 200.5t-56.5 200.5t-151.5 74.5zM306 801q-3 -3 -12 -3
q-21 0 -36.5 12t-15.5 27q0 40 30 50l139 54q6 3 14 3q20 0 35.5 -12t15.5 -28q0 -38 -31 -49z" />
    <glyph glyph-name="Ocircumflex" unicode="&#xd4;" horiz-adv-x="715" 
d="M32 361q0 163 91 266.5t235 103.5q142 1 233.5 -104t91.5 -267t-91.5 -266.5t-233.5 -104.5q-143 0 -234.5 104.5t-91.5 267.5zM358 635q-96 0 -153 -74.5t-57 -200.5t57 -200.5t153 -74.5q95 0 151.5 74.5t56.5 200.5t-56.5 200.5t-151.5 74.5zM358 838l-93 -37
q-7 -3 -13 -3q-21 0 -36.5 12t-15.5 28q0 40 30 50l102 41q21 8 26 8q4 0 25 -8l103 -40q28 -10 28 -50q0 -17 -15.5 -29t-37.5 -12q-5 0 -14 3z" />
    <glyph glyph-name="Otilde" unicode="&#xd5;" horiz-adv-x="715" 
d="M32 361q0 163 91 266.5t235 103.5q142 1 233.5 -104t91.5 -267t-91.5 -266.5t-233.5 -104.5q-143 0 -234.5 104.5t-91.5 267.5zM358 635q-96 0 -153 -74.5t-57 -200.5t57 -200.5t153 -74.5q95 0 151.5 74.5t56.5 200.5t-56.5 200.5t-151.5 74.5zM249 809q-19 0 -32 13.5
t-13 32.5t13 32.5t32 13.5h213q19 0 32.5 -14t13.5 -33t-14 -32t-34 -13h-211z" />
    <glyph glyph-name="Odieresis" unicode="&#xd6;" horiz-adv-x="715" 
d="M55 738q0 24 16 40.5t39 16.5t39 -16.5t16 -40.5q0 -23 -16 -39t-40 -16q-22 0 -38 16.5t-16 38.5zM549 737q1 25 18.5 41.5t43.5 16.5q20 0 35 -16.5t15 -40.5q0 -23 -16.5 -39t-39.5 -16t-39.5 16t-16.5 38zM32 361q0 163 91 266.5t235 103.5q142 1 233.5 -104
t91.5 -267t-91.5 -266.5t-233.5 -104.5q-143 0 -234.5 104.5t-91.5 267.5zM358 635q-96 0 -153 -74.5t-57 -200.5t57 -200.5t153 -74.5q95 0 151.5 74.5t56.5 200.5t-56.5 200.5t-151.5 74.5z" />
    <glyph glyph-name="Oslash" unicode="&#xd8;" horiz-adv-x="718" 
d="M576 644l70 80q9 9 23 9q26 0 26 -28q0 -13 -7 -23l-73 -81q41 -78 54.5 -124t13.5 -115q0 -163 -91 -267.5t-233 -104.5q-67 0 -108.5 16.5t-103.5 67.5l-69 -77q-9 -10 -26 -10q-25 0 -25 25q0 16 9 26l71 79q-47 75 -61 121.5t-14 122.5q0 162 91 266t233 104
q66 0 109.5 -17t110.5 -70zM184 201l321 367q-46 39 -76 52.5t-73 13.5q-95 0 -151.5 -75.5t-56.5 -201.5q0 -51 6.5 -80t29.5 -76zM537 517l-321 -368q44 -36 72 -48t71 -12q96 0 151.5 73.5t55.5 199.5q0 45 -5.5 75t-23.5 80z" />
    <glyph glyph-name="Ugrave" unicode="&#xd9;" horiz-adv-x="691" 
d="M634 266q0 -126 -79 -198q-87 -79 -209 -79q-123 0 -210 79q-79 72 -79 198v406q0 24 16 40t39 16t38 -16t15 -40v-405q0 -47 11 -76t38 -54q55 -52 132 -52t132 52q26 25 36.5 54t10.5 76v405q0 24 16 40t38 16q23 0 39 -16t16 -40v-406zM259 856q-30 12 -30 49
q0 16 15.5 28t36.5 12q6 0 12 -3l139 -54q30 -12 30 -50q0 -16 -15 -28t-35 -12q-8 0 -15 4z" />
    <glyph glyph-name="Uacute" unicode="&#xda;" horiz-adv-x="691" 
d="M634 266q0 -126 -79 -198q-87 -79 -209 -79q-123 0 -210 79q-79 72 -79 198v406q0 24 16 40t39 16t38 -16t15 -40v-405q0 -47 11 -76t38 -54q55 -52 132 -52t132 52q26 25 36.5 54t10.5 76v405q0 24 16 40t38 16q23 0 39 -16t16 -40v-406zM294 801q-3 -3 -12 -3
q-21 0 -36.5 12t-15.5 27q0 40 30 50l139 54q6 3 14 3q20 0 35.5 -12t15.5 -28q0 -38 -31 -49z" />
    <glyph glyph-name="Ucircumflex" unicode="&#xdb;" horiz-adv-x="691" 
d="M634 266q0 -126 -79 -198q-87 -79 -209 -79q-123 0 -210 79q-79 72 -79 198v406q0 24 16 40t39 16t38 -16t15 -40v-405q0 -47 11 -76t38 -54q55 -52 132 -52t132 52q26 25 36.5 54t10.5 76v405q0 24 16 40t38 16q23 0 39 -16t16 -40v-406zM346 838l-93 -37q-7 -3 -13 -3
q-21 0 -36.5 12t-15.5 28q0 40 30 50l102 41q21 8 26 8q4 0 25 -8l103 -40q28 -10 28 -50q0 -17 -15.5 -29t-37.5 -12q-5 0 -14 3z" />
    <glyph glyph-name="Udieresis" unicode="&#xdc;" horiz-adv-x="691" 
d="M209 736q0 24 16 40t39 16q24 0 40.5 -16t16.5 -40q0 -23 -16.5 -39.5t-39.5 -16.5t-39.5 16.5t-16.5 39.5zM371 736q0 24 16.5 40t39.5 16t39 -16t16 -40q0 -23 -16.5 -39.5t-39.5 -16.5t-39 16.5t-16 39.5zM634 266q0 -126 -79 -198q-87 -79 -209 -79q-123 0 -210 79
q-79 72 -79 198v406q0 24 16 40t39 16t38 -16t15 -40v-405q0 -47 11 -76t38 -54q55 -52 132 -52t132 52q26 25 36.5 54t10.5 76v405q0 24 16 40t38 16q23 0 39 -16t16 -40v-406z" />
    <glyph glyph-name="germandbls" unicode="&#xdf;" horiz-adv-x="565" 
d="M399 426q48 -20 70 -40.5t40 -61.5q21 -50 21 -97q0 -98 -59 -168.5t-141 -70.5q-34 0 -53.5 14.5t-19.5 39.5q0 21 15 36q14 10 24 11q8 2 27 3q46 5 72 41t26 96q0 62 -29.5 97.5t-86.5 41.5q-28 3 -40 13.5t-12 32.5q0 18 8 27q6 12 17 15q8 4 24 9q67 20 67 104
q0 50 -28 81.5t-73 31.5q-50 0 -78 -33t-28 -94v-511q0 -22 -15 -37.5t-37 -15.5t-37 15.5t-15 37.5l-1 498q0 111 56.5 173.5t156.5 62.5q88 0 144.5 -57t56.5 -146q0 -36 -10 -67q-9 -28 -21.5 -44t-40.5 -38z" />
    <glyph glyph-name="agrave" unicode="&#xe0;" horiz-adv-x="574" 
d="M414 477v20q0 19 15.5 33t36.5 14t36 -14t15 -33v-454q0 -22 -15 -37.5t-37 -15.5t-37 15.5t-15 37.5v25q-37 -46 -66.5 -61.5t-79.5 -15.5q-101 0 -168 78.5t-67 196.5q0 119 67 198.5t168 79.5q47 0 76.5 -13.5t70.5 -53.5zM281 452q-64 0 -103 -51t-39 -134t38 -134
t100 -51q65 0 101 49t36 139q0 89 -35 132q-36 50 -98 50zM200 636q-30 12 -30 49q0 16 15.5 28t36.5 12q6 0 12 -3l139 -54q30 -12 30 -50q0 -16 -15 -28t-35 -12q-8 0 -15 4z" />
    <glyph glyph-name="aacute" unicode="&#xe1;" horiz-adv-x="574" 
d="M414 477v20q0 19 15.5 33t36.5 14t36 -14t15 -33v-454q0 -22 -15 -37.5t-37 -15.5t-37 15.5t-15 37.5v25q-37 -46 -66.5 -61.5t-79.5 -15.5q-101 0 -168 78.5t-67 196.5q0 119 67 198.5t168 79.5q47 0 76.5 -13.5t70.5 -53.5zM281 452q-64 0 -103 -51t-39 -134t38 -134
t100 -51q65 0 101 49t36 139q0 89 -35 132q-36 50 -98 50zM236 581q-3 -3 -12 -3q-21 0 -36.5 12t-15.5 27q0 40 30 50l139 54q6 3 14 3q20 0 35.5 -12t15.5 -28q0 -38 -31 -49z" />
    <glyph glyph-name="acircumflex" unicode="&#xe2;" horiz-adv-x="574" 
d="M414 477v20q0 19 15.5 33t36.5 14t36 -14t15 -33v-454q0 -22 -15 -37.5t-37 -15.5t-37 15.5t-15 37.5v25q-37 -46 -66.5 -61.5t-79.5 -15.5q-101 0 -168 78.5t-67 196.5q0 119 67 198.5t168 79.5q47 0 76.5 -13.5t70.5 -53.5zM281 452q-64 0 -103 -51t-39 -134t38 -134
t100 -51q65 0 101 49t36 139q0 89 -35 132q-36 50 -98 50zM288 618l-93 -37q-7 -3 -13 -3q-21 0 -36.5 12t-15.5 28q0 40 30 50l102 41q21 8 26 8q4 0 25 -8l103 -40q28 -10 28 -50q0 -17 -15.5 -29t-37.5 -12q-5 0 -14 3z" />
    <glyph glyph-name="atilde" unicode="&#xe3;" horiz-adv-x="574" 
d="M414 477v20q0 19 15.5 33t36.5 14t36 -14t15 -33v-454q0 -22 -15 -37.5t-37 -15.5t-37 15.5t-15 37.5v25q-37 -46 -66.5 -61.5t-79.5 -15.5q-101 0 -168 78.5t-67 196.5q0 119 67 198.5t168 79.5q47 0 76.5 -13.5t70.5 -53.5zM281 452q-64 0 -103 -51t-39 -134t38 -134
t100 -51q65 0 101 49t36 139q0 89 -35 132q-36 50 -98 50zM179 589q-19 0 -32 13.5t-13 32.5t13 32.5t32 13.5h213q19 0 32.5 -14t13.5 -33t-14 -32t-34 -13h-211z" />
    <glyph glyph-name="adieresis" unicode="&#xe4;" horiz-adv-x="574" 
d="M133 655q0 26 17.5 44t43.5 18q24 0 41.5 -17.5t17.5 -42.5t-17 -42.5t-42 -17.5t-42.5 17t-18.5 41zM332 657q0 25 17.5 42.5t41.5 17.5q25 0 43 -17.5t18 -43.5q0 -24 -18 -41.5t-43 -17.5q-24 0 -41.5 17.5t-17.5 42.5zM414 477v20q0 19 15.5 33t36.5 14t36 -14
t15 -33v-454q0 -22 -15 -37.5t-37 -15.5t-37 15.5t-15 37.5v25q-37 -46 -66.5 -61.5t-79.5 -15.5q-101 0 -168 78.5t-67 196.5q0 119 67 198.5t168 79.5q47 0 76.5 -13.5t70.5 -53.5zM281 452q-64 0 -103 -51t-39 -134t38 -134t100 -51q65 0 101 49t36 139q0 89 -35 132
q-36 50 -98 50z" />
    <glyph glyph-name="aring" unicode="&#xe5;" horiz-adv-x="574" 
d="M414 477v20q0 19 15.5 33t36.5 14t36 -14t15 -33v-454q0 -22 -15 -37.5t-37 -15.5t-37 15.5t-15 37.5v25q-37 -46 -66.5 -61.5t-79.5 -15.5q-101 0 -168 78.5t-67 196.5q0 119 67 198.5t168 79.5q47 0 76.5 -13.5t70.5 -53.5zM192 666q0 34 27 59t65 25q39 0 66 -24.5
t27 -59.5q0 -34 -27.5 -58.5t-66.5 -24.5q-37 0 -64 24.5t-27 58.5zM281 452q-64 0 -103 -51t-39 -134t38 -134t100 -51q65 0 101 49t36 139q0 89 -35 132q-36 50 -98 50zM284 703q-15 0 -25.5 -11t-10.5 -26q0 -16 10.5 -26.5t25.5 -10.5q16 0 26.5 10.5t10.5 26.5
q0 15 -10.5 26t-26.5 11z" />
    <glyph glyph-name="ae" unicode="&#xe6;" horiz-adv-x="912" 
d="M414 472v29q0 19 13.5 31.5t33.5 12.5q17 0 30 -10.5t13 -24.5v-32q42 39 72 52.5t77 13.5q96 0 166 -78.5t70 -185.5q0 -21 -8 -34.5t-20 -13.5l-31 2h-315q5 -39 13.5 -59.5t27.5 -40.5q44 -49 114 -49q56 0 120 38q39 24 52 24q16 0 28 -14.5t12 -31.5q0 -28 -36 -55
q-79 -56 -181 -56q-57 0 -87 12t-73 52v-30q0 -15 -13 -26t-31 -11q-20 0 -33 12.5t-13 32.5v36q-4 -7 -19 -25q-46 -52 -131 -52q-99 0 -166 78t-67 195q0 119 67.5 199t167.5 80q90 0 147 -71zM276 445q-61 0 -98 -50t-37 -133q0 -77 37.5 -124.5t99.5 -47.5t98.5 48.5
t36.5 132.5q0 81 -36.5 127.5t-100.5 46.5zM648 454q-59 0 -94 -39t-40 -110h268q-9 58 -27 89q-38 60 -107 60z" />
    <glyph glyph-name="ccedilla" unicode="&#xe7;" horiz-adv-x="458" 
d="M324 -19l-75 -102q-12 -15 -39 -15q-38 0 -38 35q0 14 7 21l51 61h94zM363 110q15 7 28 7q18 0 31.5 -14t13.5 -34q0 -33 -44.5 -56t-108.5 -23q-111 0 -181 77t-70 199t71 200t182 78q64 0 108 -21t44 -51q0 -22 -13.5 -36.5t-33.5 -14.5q-13 0 -34 9q-41 18 -70 18
q-64 0 -104 -49t-40 -129q0 -79 40 -130t102 -51q26 0 58 13z" />
    <glyph glyph-name="egrave" unicode="&#xe8;" horiz-adv-x="545" 
d="M147 230q10 -49 26 -80q17 -31 50.5 -49t73.5 -18q59 0 112 38q39 29 58 29t32 -13t13 -32q0 -22 -19 -39q-36 -36 -89.5 -56.5t-110.5 -20.5q-115 0 -188 77.5t-73 199.5q0 118 71 198t176 80q57 0 106 -25t79 -68q24 -36 40.5 -84.5t16.5 -85.5q0 -29 -13 -40.5
t-45 -11.5zM176 400q-24 -36 -31 -95h268q-23 152 -133 152q-65 0 -104 -57zM186 636q-30 12 -30 49q0 16 15.5 28t36.5 12q6 0 12 -3l139 -54q30 -12 30 -50q0 -16 -15 -28t-35 -12q-8 0 -15 4z" />
    <glyph glyph-name="eacute" unicode="&#xe9;" horiz-adv-x="545" 
d="M147 230q10 -49 26 -80q17 -31 50.5 -49t73.5 -18q59 0 112 38q39 29 58 29t32 -13t13 -32q0 -22 -19 -39q-36 -36 -89.5 -56.5t-110.5 -20.5q-115 0 -188 77.5t-73 199.5q0 118 71 198t176 80q57 0 106 -25t79 -68q24 -36 40.5 -84.5t16.5 -85.5q0 -29 -13 -40.5
t-45 -11.5zM176 400q-24 -36 -31 -95h268q-23 152 -133 152q-65 0 -104 -57zM221 581q-3 -3 -12 -3q-21 0 -36.5 12t-15.5 27q0 40 30 50l139 54q6 3 14 3q20 0 35.5 -12t15.5 -28q0 -38 -31 -49z" />
    <glyph glyph-name="ecircumflex" unicode="&#xea;" horiz-adv-x="545" 
d="M147 230q10 -49 26 -80q17 -31 50.5 -49t73.5 -18q59 0 112 38q39 29 58 29t32 -13t13 -32q0 -22 -19 -39q-36 -36 -89.5 -56.5t-110.5 -20.5q-115 0 -188 77.5t-73 199.5q0 118 71 198t176 80q57 0 106 -25t79 -68q24 -36 40.5 -84.5t16.5 -85.5q0 -29 -13 -40.5
t-45 -11.5zM176 400q-24 -36 -31 -95h268q-23 152 -133 152q-65 0 -104 -57zM273 618l-93 -37q-8 -3 -13 -3q-21 0 -36.5 12t-15.5 28q0 40 30 50l102 41q21 8 26 8q4 0 25 -8l103 -40q28 -10 28 -50q0 -17 -15.5 -29t-37.5 -12q-5 0 -14 3z" />
    <glyph glyph-name="edieresis" unicode="&#xeb;" horiz-adv-x="545" 
d="M147 230q10 -49 26 -80q17 -31 50.5 -49t73.5 -18q59 0 112 38q39 29 58 29t32 -13t13 -32q0 -22 -19 -39q-36 -36 -89.5 -56.5t-110.5 -20.5q-115 0 -188 77.5t-73 199.5q0 118 71 198t176 80q57 0 106 -25t79 -68q24 -36 40.5 -84.5t16.5 -85.5q0 -29 -13 -40.5
t-45 -11.5zM176 400q-24 -36 -31 -95h268q-23 152 -133 152q-65 0 -104 -57zM112 640q0 25 17.5 43t42.5 18t42 -17.5t17 -43.5q0 -24 -17 -41t-42 -17t-42.5 17t-17.5 41zM312 640q0 25 17 43t41 18q26 0 44 -18t18 -44q0 -23 -18 -40t-43 -17q-24 0 -41.5 17t-17.5 41z
" />
    <glyph glyph-name="igrave" unicode="&#xec;" horiz-adv-x="198" 
d="M150 43q0 -22 -15 -37.5t-37 -15.5q-21 0 -36.5 15.5t-15.5 37.5v448q0 22 15.5 37.5t37.5 15.5t36.5 -15.5t14.5 -37.5v-448zM13 636q-30 12 -30 49q0 16 15.5 28t36.5 12q6 0 12 -3l139 -54q30 -12 30 -50q0 -16 -15 -28t-35 -12q-8 0 -15 4z" />
    <glyph glyph-name="iacute" unicode="&#xed;" horiz-adv-x="198" 
d="M150 43q0 -22 -15 -37.5t-37 -15.5q-21 0 -36.5 15.5t-15.5 37.5v448q0 22 15.5 37.5t37.5 15.5t36.5 -15.5t14.5 -37.5v-448zM48 581q-3 -3 -12 -3q-21 0 -36.5 12t-15.5 27q0 40 30 50l139 54q6 3 14 3q20 0 35.5 -12t15.5 -28q0 -38 -31 -49z" />
    <glyph glyph-name="icircumflex" unicode="&#xee;" horiz-adv-x="198" 
d="M150 43q0 -22 -15 -37.5t-37 -15.5q-21 0 -36.5 15.5t-15.5 37.5v448q0 22 15.5 37.5t37.5 15.5t36.5 -15.5t14.5 -37.5v-448zM100 618l-93 -37q-8 -3 -13 -3q-21 0 -36.5 12t-15.5 28q0 40 30 50l102 41q21 8 26 8q4 0 25 -8l103 -40q28 -10 28 -50q0 -17 -15.5 -29
t-37.5 -12q-5 0 -14 3z" />
    <glyph glyph-name="idieresis" unicode="&#xef;" horiz-adv-x="198" 
d="M150 43q0 -22 -15 -37.5t-37 -15.5q-21 0 -36.5 15.5t-15.5 37.5v448q0 22 15.5 37.5t37.5 15.5t36.5 -15.5t14.5 -37.5v-448zM-61 640q0 25 17.5 43t42.5 18t42 -17.5t17 -43.5q0 -24 -17 -41t-42 -17t-42.5 17t-17.5 41zM139 640q0 25 17 43t41 18q26 0 44 -18t18 -44
q0 -23 -18 -40t-43 -17q-24 0 -41.5 17t-17.5 41z" />
    <glyph glyph-name="ntilde" unicode="&#xf1;" horiz-adv-x="555" 
d="M159 477q31 36 64 49q41 19 80 19q82 0 142 -57q28 -28 40 -61t12 -83v-302q0 -22 -15 -37.5t-37 -15.5t-37.5 15t-15.5 37v294q0 49 -32.5 83.5t-79.5 34.5q-49 0 -83.5 -34t-34.5 -82v-296q0 -21 -15.5 -36t-36.5 -15q-22 0 -37.5 15t-15.5 37v455q0 19 15.5 33
t37.5 14q20 0 34.5 -14t14.5 -33v-20zM169 589q-19 0 -32 13.5t-13 32.5t13 32.5t32 13.5h213q19 0 32.5 -14t13.5 -33t-14 -32t-34 -13h-211z" />
    <glyph glyph-name="ograve" unicode="&#xf2;" horiz-adv-x="554" 
d="M32 268q0 118 70.5 197.5t174.5 79.5t174.5 -80t70.5 -198t-70.5 -198t-174.5 -80t-174.5 80t-70.5 199zM277 451q-60 0 -98 -51.5t-38 -132.5q0 -83 37.5 -134t98.5 -51t98.5 51t37.5 133t-37.5 133.5t-98.5 51.5zM190 636q-30 12 -30 49q0 16 15.5 28t36.5 12
q6 0 12 -3l139 -54q30 -12 30 -50q0 -16 -15 -28t-35 -12q-8 0 -15 4z" />
    <glyph glyph-name="oacute" unicode="&#xf3;" horiz-adv-x="554" 
d="M32 268q0 118 70.5 197.5t174.5 79.5t174.5 -80t70.5 -198t-70.5 -198t-174.5 -80t-174.5 80t-70.5 199zM277 451q-60 0 -98 -51.5t-38 -132.5q0 -83 37.5 -134t98.5 -51t98.5 51t37.5 133t-37.5 133.5t-98.5 51.5zM226 581q-3 -3 -12 -3q-21 0 -36.5 12t-15.5 27
q0 40 30 50l139 54q6 3 14 3q20 0 35.5 -12t15.5 -28q0 -38 -31 -49z" />
    <glyph glyph-name="ocircumflex" unicode="&#xf4;" horiz-adv-x="554" 
d="M32 268q0 118 70.5 197.5t174.5 79.5t174.5 -80t70.5 -198t-70.5 -198t-174.5 -80t-174.5 80t-70.5 199zM277 451q-60 0 -98 -51.5t-38 -132.5q0 -83 37.5 -134t98.5 -51t98.5 51t37.5 133t-37.5 133.5t-98.5 51.5zM278 618l-93 -37q-7 -3 -13 -3q-21 0 -36.5 12
t-15.5 28q0 40 30 50l102 41q21 8 26 8q4 0 25 -8l103 -40q28 -10 28 -50q0 -17 -15.5 -29t-37.5 -12q-5 0 -14 3z" />
    <glyph glyph-name="otilde" unicode="&#xf5;" horiz-adv-x="554" 
d="M32 268q0 118 70.5 197.5t174.5 79.5t174.5 -80t70.5 -198t-70.5 -198t-174.5 -80t-174.5 80t-70.5 199zM277 451q-60 0 -98 -51.5t-38 -132.5q0 -83 37.5 -134t98.5 -51t98.5 51t37.5 133t-37.5 133.5t-98.5 51.5zM169 589q-19 0 -32 13.5t-13 32.5t13 32.5t32 13.5h213
q19 0 32.5 -14t13.5 -33t-14 -32t-34 -13h-211z" />
    <glyph glyph-name="odieresis" unicode="&#xf6;" horiz-adv-x="554" 
d="M32 268q0 118 70.5 197.5t174.5 79.5t174.5 -80t70.5 -198t-70.5 -198t-174.5 -80t-174.5 80t-70.5 199zM118 659q0 25 17.5 43t42.5 18t42 -17.5t17 -43.5q0 -24 -17 -41t-42 -17t-42.5 17t-17.5 41zM318 659q0 25 17 43t41 18q26 0 44 -18t18 -44q0 -23 -18 -40
t-43 -17q-24 0 -41.5 17t-17.5 41zM277 451q-60 0 -98 -51.5t-38 -132.5q0 -83 37.5 -134t98.5 -51t98.5 51t37.5 133t-37.5 133.5t-98.5 51.5z" />
    <glyph glyph-name="divide" unicode="&#xf7;" horiz-adv-x="594" 
d="M234 141q19 17 41 17q24 0 40 -16t16 -41q0 -24 -17 -40q-15 -17 -39 -17t-41 17q-16 18 -16 40q0 24 16 40zM506 270v-68h-463v68h463zM234 410q17 15 41 17q24 0 39 -17q17 -17 17 -40q0 -24 -17 -40q-15 -17 -39 -17t-41 17q-16 16 -16 40t16 40z" />
    <glyph glyph-name="oslash" unicode="&#xf8;" horiz-adv-x="554" 
d="M125 49l-50 -59q-7 -9 -24 -9q-24 0 -24 24q0 18 9 27l49 58q-32 59 -42.5 94t-10.5 82q0 119 70.5 199t175.5 80q42 0 72.5 -11t79.5 -44l50 58q7 10 25 10q25 0 25 -25q0 -16 -8 -24l-55 -64q33 -58 44 -93t11 -84q0 -119 -70 -199t-174 -80q-48 0 -78 12t-75 48z
M159 173l203 241q-24 22 -40.5 29.5t-43.5 7.5q-62 0 -99.5 -51.5t-37.5 -135.5q0 -43 18 -91zM395 363l-206 -243q25 -22 42 -29.5t44 -7.5q61 0 99 51t38 132q0 46 -17 97z" />
    <glyph glyph-name="ugrave" unicode="&#xf9;" horiz-adv-x="557" 
d="M498 202q0 -56 -12 -90.5t-41 -62.5q-62 -59 -167 -59q-102 0 -167 59q-54 48 -54 153v289q0 22 16 37.5t38 15.5q21 0 36 -15.5t15 -37.5v-283q0 -63 29 -92q33 -33 87 -33q53 0 86 33q30 26 30 92v283q0 22 15 37.5t36 15.5q22 0 37.5 -15.5t15.5 -37.5v-289zM192 636
q-30 12 -30 49q0 16 15.5 28t36.5 12q6 0 12 -3l139 -54q30 -12 30 -50q0 -16 -15 -28t-35 -12q-8 0 -15 4z" />
    <glyph glyph-name="uacute" unicode="&#xfa;" horiz-adv-x="557" 
d="M498 202q0 -56 -12 -90.5t-41 -62.5q-62 -59 -167 -59q-102 0 -167 59q-54 48 -54 153v289q0 22 16 37.5t38 15.5q21 0 36 -15.5t15 -37.5v-283q0 -63 29 -92q33 -33 87 -33q53 0 86 33q30 26 30 92v283q0 22 15 37.5t36 15.5q22 0 37.5 -15.5t15.5 -37.5v-289zM227 581
q-3 -3 -12 -3q-21 0 -36.5 12t-15.5 27q0 40 30 50l139 54q6 3 14 3q20 0 35.5 -12t15.5 -28q0 -38 -31 -49z" />
    <glyph glyph-name="ucircumflex" unicode="&#xfb;" horiz-adv-x="557" 
d="M498 202q0 -56 -12 -90.5t-41 -62.5q-62 -59 -167 -59q-102 0 -167 59q-54 48 -54 153v289q0 22 16 37.5t38 15.5q21 0 36 -15.5t15 -37.5v-283q0 -63 29 -92q33 -33 87 -33q53 0 86 33q30 26 30 92v283q0 22 15 37.5t36 15.5q22 0 37.5 -15.5t15.5 -37.5v-289zM279 618
l-93 -37q-8 -3 -13 -3q-21 0 -36.5 12t-15.5 28q0 40 30 50l102 41q21 8 26 8q4 0 25 -8l103 -40q28 -10 28 -50q0 -17 -15.5 -29t-37.5 -12q-5 0 -14 3z" />
    <glyph glyph-name="udieresis" unicode="&#xfc;" horiz-adv-x="557" 
d="M120 661q0 25 17 42.5t42 17.5t42 -17.5t17 -42.5t-17 -42t-42 -17t-42 17t-17 42zM318 661q0 25 17.5 42.5t41.5 17.5q25 0 42.5 -17.5t17.5 -42.5t-17.5 -42t-42.5 -17q-24 0 -41.5 17t-17.5 42zM498 202q0 -56 -12 -90.5t-41 -62.5q-62 -59 -167 -59q-102 0 -167 59
q-54 48 -54 153v289q0 22 16 37.5t38 15.5q21 0 36 -15.5t15 -37.5v-283q0 -63 29 -92q33 -33 87 -33q53 0 86 33q30 26 30 92v283q0 22 15 37.5t36 15.5q22 0 37.5 -15.5t15.5 -37.5v-289z" />
    <glyph glyph-name="ydieresis" unicode="&#xff;" horiz-adv-x="448" 
d="M171 24l-165 448q-3 9 -3 19q0 22 15.5 37t37.5 15q38 0 51 -38l118 -344l116 342q12 40 50 40q22 0 37 -15t15 -37q0 -10 -3 -20l-239 -652q-16 -43 -52 -43q-22 0 -37 14.5t-15 34.5q0 13 5 23zM64 640q0 25 17.5 43t42.5 18t42 -17.5t17 -43.5q0 -24 -17 -41t-42 -17
t-42.5 17t-17.5 41zM264 640q0 25 17 43t41 18q26 0 44 -18t18 -44q0 -23 -18 -40t-43 -17q-24 0 -41.5 17t-17.5 41z" />
    <glyph glyph-name="dotlessi" unicode="&#x131;" horiz-adv-x="198" 
d="M150 43q0 -22 -15 -37.5t-37 -15.5q-21 0 -36.5 15.5t-15.5 37.5v448q0 22 15.5 37.5t37.5 15.5t36.5 -15.5t14.5 -37.5v-448z" />
    <glyph glyph-name="OE" unicode="&#x152;" horiz-adv-x="959" 
d="M571 627v56q0 17 12.5 27.5t34.5 10.5h253q20 0 35 -15t15 -36q0 -20 -15 -34t-36 -14h-201v-212h189q20 0 35 -15t15 -36q0 -20 -15 -34t-36 -14h-189v-214h210q20 0 35 -14.5t15 -34.5t-15 -34t-36 -14h-260q-22 0 -34.5 9.5t-12.5 25.5v60q-21 -27 -22 -28
q-31 -37 -82 -57.5t-110 -20.5q-143 0 -233.5 103t-90.5 266q0 166 90 270.5t233 104.5q58 0 112 -21q35 -14 55.5 -30.5t48.5 -54.5zM355 630q-94 0 -151 -74.5t-57 -197.5q0 -120 57 -193t152 -73t151 72t56 194q0 124 -56.5 198t-151.5 74z" />
    <glyph glyph-name="oe" unicode="&#x153;" horiz-adv-x="920" 
d="M467 441q16 23 24 31q60 74 165 74q101 0 170.5 -77t69.5 -188q0 -28 -12 -37.5t-47 -9.5h-313q5 -68 44.5 -107t102.5 -39q66 0 106 28l33 21q17 12 32 12q20 0 33 -13.5t13 -32.5q0 -27 -29 -48q-37 -30 -89 -47.5t-103 -17.5q-54 0 -106 22q-32 14 -51 30.5t-44 51.5
q-77 -103 -191 -103q-104 0 -173.5 79t-69.5 197q0 119 70 198.5t174 79.5q50 0 97 -21q33 -14 51.5 -30.5t42.5 -52.5zM278 453q-62 0 -99 -51.5t-37 -136.5q0 -81 37.5 -131t98.5 -50q63 0 99 50.5t36 139.5q0 83 -36.5 131t-98.5 48zM655 456q-109 0 -133 -149h266
q-7 72 -41 110.5t-92 38.5z" />
    <glyph glyph-name="Scaron" unicode="&#x160;" horiz-adv-x="506" 
d="M130 121q62 -30 109 -30q58 0 96.5 36.5t38.5 91.5t-49 83q-28 13 -45 18q-6 2 -25 8.5t-32 10.5q-91 30 -127 59q-62 46 -62 131q0 86 65.5 143.5t165.5 57.5q70 0 123.5 -27t53.5 -63q0 -20 -13.5 -35.5t-32.5 -15.5q-12 0 -50 16q-50 25 -88 25q-45 0 -77.5 -27
t-32.5 -64q0 -31 25 -56q21 -21 89 -44q99 -33 136 -53q41 -23 65.5 -66t24.5 -95q0 -102 -71.5 -168.5t-180.5 -66.5q-82 0 -146 30.5t-64 68.5q0 22 13.5 37t34.5 15q13 0 31 -8zM254 899l92 38q8 2 13 2q21 0 36 -12t15 -29q0 -37 -28 -49l-100 -40q-18 -7 -27 -7
q-8 0 -26 6l-103 41q-29 12 -29 49q0 17 15.5 29t36.5 12q7 0 12 -2z" />
    <glyph glyph-name="scaron" unicode="&#x161;" horiz-adv-x="448" 
d="M305 432q-39 21 -81 21q-35 0 -57 -16t-22 -41q0 -22 21 -38q24 -16 78 -37q73 -27 110 -51q69 -44 69 -118q0 -70 -58 -116t-144 -46q-69 0 -135 35q-65 33 -65 71q0 20 13 35t31 15q15 0 49 -22q59 -43 112 -43q39 0 65.5 20.5t26.5 49.5q0 41 -78 73l-45 17
q-75 31 -105 51q-50 34 -50 96q0 68 53.5 112.5t135.5 44.5q69 0 125 -29.5t56 -64.5q0 -19 -13 -32.5t-31 -13.5q-10 0 -34 12zM225 679l92 38q8 2 13 2q21 0 36 -12t15 -29q0 -37 -28 -49l-100 -40q-18 -7 -27 -7q-8 0 -26 6l-103 41q-29 12 -29 49q0 17 15.5 29t36.5 12
q7 0 12 -2z" />
    <glyph glyph-name="Ydieresis" unicode="&#x178;" horiz-adv-x="522" 
d="M206 338l-196 307q-10 14 -10 32q0 21 16 36t38 15q31 0 47 -26l161 -258l161 258q15 26 45 26q23 0 38.5 -14.5t15.5 -36.5q0 -18 -10 -32l-196 -307v-292q0 -23 -15.5 -39t-38.5 -16q-24 0 -40 16t-16 39v292zM101 860q0 25 17.5 43t42.5 18t42 -17.5t17 -43.5
q0 -24 -17 -41t-42 -17t-42.5 17t-17.5 41zM301 860q0 25 17 43t41 18q26 0 44 -18t18 -44q0 -23 -18 -40t-43 -17q-24 0 -41.5 17t-17.5 41z" />
    <glyph glyph-name="Zcaron" unicode="&#x17d;" horiz-adv-x="585" 
d="M165 97h342q22 0 38 -13.5t16 -33.5q0 -21 -15.5 -35.5t-38.5 -14.5h-405q-34 0 -54 15.5t-20 40.5q0 21 13 40l359 530h-309q-21 0 -35.5 13.5t-14.5 34.5q0 19 14.5 33t34.5 14h367q88 0 88 -46q0 -20 -20 -49zM294 899l92 38q8 2 13 2q21 0 36 -12t15 -29
q0 -37 -28 -49l-100 -40q-18 -7 -27 -7q-8 0 -26 6l-103 41q-29 12 -29 49q0 17 15.5 29t36.5 12q7 0 12 -2z" />
    <glyph glyph-name="zcaron" unicode="&#x17e;" horiz-adv-x="464" 
d="M170 94h227q22 0 37 -13.5t15 -32.5q0 -20 -15.5 -34t-37.5 -14h-327q-22 0 -34.5 11.5t-12.5 30.5q0 17 9 29l257 370h-207q-21 0 -36 14t-15 33q0 20 15 34t35 14h307q50 0 50 -41q0 -11 -11 -29zM233 679l92 38q8 2 13 2q21 0 36 -12t15 -29q0 -37 -28 -49l-100 -40
q-18 -7 -27 -7q-8 0 -26 6l-103 41q-29 12 -29 49q0 17 15.5 29t36.5 12q7 0 12 -2z" />
    <glyph glyph-name="florin" unicode="&#x192;" horiz-adv-x="371" 
d="M245 438l-54 -532q-5 -57 -40.5 -91t-89.5 -36l-35 -1q-24 0 -40.5 13t-16.5 31q0 23 16 37.5t41 14.5h9h9q19 0 30 8q9 9 15 52l52 505h-43q-16 0 -28.5 14t-12.5 33t15.5 33t36.5 14h40l12 116q7 53 44 88.5t87 35.5l37 -1q25 0 40 -12t15 -31t-14 -34t-32 -15h-19h-3
q-28 0 -37 -9q-10 -6 -15 -53l-9 -86h60q17 0 29.5 -13.5t12.5 -32.5q0 -20 -15 -33.5t-36 -13.5z" />
    <glyph glyph-name="circumflex" unicode="&#x2c6;" horiz-adv-x="310" 
d="M156 618l-93 -37q-7 -3 -13 -3q-21 0 -36.5 12t-15.5 28q0 40 30 50l102 41q21 8 26 8q4 0 25 -8l103 -40q28 -10 28 -50q0 -17 -15.5 -29t-37.5 -12q-5 0 -14 3z" />
    <glyph glyph-name="caron" unicode="&#x2c7;" horiz-adv-x="309" 
d="M156 679l92 38q8 2 13 2q21 0 36 -12t15 -29q0 -37 -28 -49l-100 -40q-18 -7 -27 -7q-8 0 -26 6l-103 41q-29 12 -29 49q0 17 15.5 29t36.5 12q7 0 12 -2z" />
    <glyph glyph-name="breve" unicode="&#x2d8;" horiz-adv-x="326" 
d="M275 708q7 4 16 4q14 0 24.5 -14.5t10.5 -36.5q0 -19 -12 -31q-25 -23 -68.5 -39.5t-82.5 -16.5q-37 0 -82 16t-69 38q-16 13 -16 34t11.5 36.5t26.5 15.5q4 0 18 -8q56 -38 113 -38q50 0 81 22z" />
    <glyph glyph-name="dotaccent" unicode="&#x2d9;" horiz-adv-x="314" 
d="M46 828q-28 12 -28 49q0 16 15.5 28t37.5 12q8 0 14 -3l158 -63q31 -13 31 -51q0 -16 -15.5 -27t-37.5 -11q-4 0 -16 2z" />
    <glyph glyph-name="ring" unicode="&#x2da;" horiz-adv-x="261" 
d="M38 663q0 35 27 59.5t65 24.5q39 0 66 -24.5t27 -59.5t-27.5 -59.5t-66.5 -24.5q-37 0 -64 24.5t-27 59.5zM130 699q-16 0 -26.5 -10.5t-10.5 -25.5q0 -16 10.5 -26.5t26.5 -10.5q15 0 25.5 10.5t10.5 26.5q0 15 -10.5 25.5t-25.5 10.5z" />
    <glyph glyph-name="ogonek" unicode="&#x2db;" horiz-adv-x="190" 
d="M32 48q0 25 18.5 43.5t43.5 18.5q26 0 44.5 -19t18.5 -45q0 -25 -18 -42.5t-44 -17.5t-44.5 18.5t-18.5 43.5z" />
    <glyph glyph-name="tilde" unicode="&#x2dc;" horiz-adv-x="302" 
d="M43 589q-19 0 -32 13.5t-13 32.5t13 32.5t32 13.5h213q19 0 32.5 -14t13.5 -33t-14 -32t-34 -13h-211z" />
    <glyph glyph-name="hungarumlaut" unicode="&#x2dd;" horiz-adv-x="232" 
d="M65 581q-3 -3 -12 -3q-21 0 -36.5 12t-15.5 27q0 40 30 50l139 54q6 3 14 3q20 0 35.5 -12t15.5 -28q0 -38 -31 -49z" />
    <glyph glyph-name="Delta" unicode="&#x394;" horiz-adv-x="662" 
d="M319 672l276 -672h-574l276 672h22zM279 504l-187 -459h373z" />
    <glyph glyph-name="Omega" unicode="&#x3a9;" horiz-adv-x="830" 
d="M470 90h123q48 0 67 17q18 18 21 69h23v-176h-272v180q77 15 123 76q45 62 45 152q0 106 -58 168q-60 63 -158 63t-157 -63q-59 -62 -59 -168q0 -90 44 -152q45 -60 124 -76v-180h-272v176h23q3 -51 20 -68q18 -18 68 -18h123v59q-118 21 -183 89t-65 170q0 121 92 194
q93 73 242 73t242 -73q90 -73 92 -194q0 -100 -65 -170q-63 -66 -183 -89v-59z" />
    <glyph glyph-name="pi" unicode="&#x3c0;" horiz-adv-x="594" 
d="M414 372q-6 0 -10 1q0 -13 -1 -24q-3 -107 -3 -150v-40q0 -84 8 -104q9 -21 31 -22q28 0 41 29q14 25 17 89h25v-5q0 -80 -26 -118q-25 -37 -80 -38q-56 0 -80 39q-23 41 -23 165q0 35 1 78q2 64 3 104q-5 0 -21.5 0.5t-28.5 0.5q-11 1 -37 1.5t-40 0.5q0 -234 -23 -310
q-22 -78 -80 -79q-35 0 -53 29q-15 27 -17 86v19h24q2 -29 10 -40q9 -12 27 -12q42 0 58 62q17 63 20 245h-22q-38 0 -60 -13q-21 -14 -27 -40h-23q3 67 38 96q34 27 121 27q17 0 102 -3q84 -3 152 -3q34 0 49 7q16 7 17 21v1h23v-3q0 -50 -24 -74q-21 -21 -74 -23h-14z" />
    <glyph glyph-name="endash" unicode="&#x2013;" 
d="M68 303q-17 0 -28.5 12t-11.5 29t12 29t28 12h423q16 0 27.5 -12t11.5 -29t-11.5 -29t-27.5 -12h-423z" />
    <glyph glyph-name="emdash" unicode="&#x2014;" horiz-adv-x="996" 
d="M30 311v95h936v-95h-936z" />
    <glyph glyph-name="quoteleft" unicode="&#x2018;" horiz-adv-x="212" 
d="M106 522q-13 -26 -51 -26q-19 0 -31.5 16t-12.5 40q0 10 4 18l71 146q14 27 51 27q19 0 32.5 -16.5t13.5 -40.5q0 -10 -4 -18z" />
    <glyph glyph-name="quoteright" unicode="&#x2019;" horiz-adv-x="212" 
d="M106 522q-13 -26 -51 -26q-19 0 -31.5 16t-12.5 40q0 10 4 18l71 146q14 27 51 27q19 0 32.5 -16.5t13.5 -40.5q0 -10 -4 -18z" />
    <glyph glyph-name="quotesinglbase" unicode="&#x201a;" horiz-adv-x="196" 
d="M90 -112q-12 -26 -51 -26q-19 0 -31.5 15.5t-12.5 40.5q0 10 3 17l72 146q14 27 51 27q19 0 32 -16.5t13 -39.5q0 -10 -4 -17z" />
    <glyph glyph-name="quotedblleft" unicode="&#x201c;" horiz-adv-x="379" 
d="M110 522q-11 -26 -51 -26q-19 0 -31.5 16t-12.5 40q0 9 3 18l73 146q12 27 51 27q19 0 32 -16.5t13 -40.5q0 -9 -3 -18zM272 522q-11 -26 -50 -26q-19 0 -32 16t-13 40q0 10 5 18l71 146q13 27 51 27q20 0 33 -16.5t13 -41.5q0 -5 -4 -17z" />
    <glyph glyph-name="quotedblright" unicode="&#x201d;" horiz-adv-x="379" 
d="M110 522q-11 -26 -51 -26q-19 0 -31.5 16t-12.5 40q0 9 3 18l73 146q12 27 51 27q19 0 32 -16.5t13 -40.5q0 -9 -3 -18zM272 522q-11 -26 -50 -26q-19 0 -32 16t-13 40q0 10 5 18l71 146q13 27 51 27q20 0 33 -16.5t13 -41.5q0 -5 -4 -17z" />
    <glyph glyph-name="quotedblbase" unicode="&#x201e;" horiz-adv-x="358" 
d="M90 -112q-12 -26 -51 -26q-19 0 -31.5 15.5t-12.5 40.5q0 10 3 17l72 146q14 27 51 27q19 0 32 -16.5t13 -39.5q0 -10 -4 -17zM252 -112q-12 -26 -51 -26q-19 0 -31.5 15.5t-12.5 40.5q0 10 3 17l72 146q14 27 51 27q19 0 32.5 -16.5t13.5 -39.5q0 -12 -4 -17z" />
    <glyph glyph-name="dagger" unicode="&#x2020;" horiz-adv-x="632" 
d="M264 382l-186 -1q-22 0 -37.5 14.5t-15.5 35.5q0 22 15.5 37.5t37.5 15.5h187v198q0 22 15.5 38t36.5 16t36 -16t15 -38v-198h187q22 0 37.5 -15.5t15.5 -37.5q0 -21 -15.5 -35.5t-37.5 -14.5l-186 1v-555q0 -22 -15.5 -37.5t-36.5 -15.5q-22 0 -37.5 15.5t-15.5 37.5
v555z" />
    <glyph glyph-name="daggerdbl" unicode="&#x2021;" horiz-adv-x="661" 
d="M278 23l-188 1q-22 0 -37 15.5t-15 37.5q0 20 15 34t37 14h188l-1 252h-185q-21 0 -36.5 15.5t-15.5 36.5t15.5 36t36.5 15l186 -1l1 197q0 22 15.5 37.5t36.5 15.5t36 -16t15 -38v-196l189 -1q22 0 37 -14.5t15 -35.5t-15.5 -36t-37.5 -15h-187v-253h187q22 0 37 -13.5
t15 -33.5q0 -23 -15.5 -38.5t-37.5 -15.5h-188v-197q0 -22 -15 -37.5t-36 -15.5q-22 0 -37 15.5t-15 37.5v197z" />
    <glyph glyph-name="bullet" unicode="&#x2022;" horiz-adv-x="223" 
d="M49 265q0 25 18 43t44 18t44.5 -18t18.5 -44q0 -25 -18.5 -43t-44.5 -18t-44 18t-18 44z" />
    <glyph glyph-name="ellipsis" unicode="&#x2026;" horiz-adv-x="996" 
d="M95 61q0 30 21 51t51 21t51 -21t21 -51t-21 -51t-51 -21t-51 21t-21 51zM428 61q0 30 21 51t51 21t51 -21t21 -51t-21 -51t-51 -21t-51 21t-21 51zM761 61q0 30 21.5 51t50.5 21q30 0 51 -21t21 -51t-21 -51t-51 -21q-29 0 -50.5 21t-21.5 51z" />
    <glyph glyph-name="perthousand" unicode="&#x2030;" horiz-adv-x="986" 
d="M38 565q0 74 40.5 122.5t102.5 48.5t101 -48t39 -124q0 -72 -41.5 -120.5t-103.5 -48.5q-58 0 -98 49.5t-40 120.5zM237 9q-12 -25 -41 -25q-14 0 -23 12.5t-9 31.5q0 9 4 16l271 670q8 22 41 22q14 0 24 -13t10 -31q0 -7 -4 -15zM357 151q0 73 41 121.5t103 48.5
q63 0 101.5 -47.5t38.5 -124.5q0 -71 -41.5 -118.5t-103.5 -47.5q-59 0 -99 48t-40 120zM664 151q0 74 40.5 122t103.5 48t101.5 -47.5t38.5 -124.5q0 -71 -41.5 -118.5t-103.5 -47.5q-59 0 -99 48t-40 120zM501 251q-34 0 -52.5 -26t-18.5 -71t18.5 -73t48.5 -28
q33 0 52 25.5t19 68.5q0 104 -67 104zM181 665q-32 0 -51.5 -27.5t-19.5 -71.5q0 -43 19 -71.5t48 -28.5q30 0 50.5 28t20.5 70q0 46 -18 73.5t-49 27.5zM808 251q-34 0 -53 -26t-19 -71t19 -73t49 -28q33 0 52 25.5t19 68.5q0 104 -67 104z" />
    <glyph glyph-name="guilsinglleft" unicode="&#x2039;" horiz-adv-x="267" 
d="M133 267l85 -135q11 -17 11 -31q0 -18 -13 -31.5t-31 -13.5q-26 0 -42 28l-88 145q-17 27 -17 39q0 13 15 37l90 146q16 26 42 26q19 0 31.5 -12t12.5 -30q0 -17 -11 -34z" />
    <glyph glyph-name="guilsinglright" unicode="&#x203a;" horiz-adv-x="267" 
d="M134 266l-85 134q-11 19 -11 32q0 17 13 30.5t30 13.5q27 0 43 -27l88 -145q17 -27 17 -40q0 -14 -15 -36l-90 -146q-15 -27 -43 -27q-19 0 -31 12.5t-12 29.5q0 16 11 35z" />
    <glyph glyph-name="fraction" unicode="&#x2044;" horiz-adv-x="214" 
d="M9 9q-10 -25 -40 -25q-13 0 -21.5 12.5t-8.5 31.5q0 6 4 16l263 676q10 23 40 23q14 0 23 -13t9 -32q0 -8 -3 -15z" />
    <glyph glyph-name="trademark" unicode="&#x2122;" horiz-adv-x="782" 
d="M43 666v54h218v-54h-80v-306h-60v306h-78zM249 360l67 367h39l92 -217q16 -35 17 -68q1 31 17 68l93 217h39l67 -367h-60l-35 206l-1 11l-1 10q-1 19 0 38q-4 -20 -10 -37l-4 -15l-2 -5l-90 -214h-25l-90 214l-2 5l-5 15q-3 9 -10 37q2 -24 1 -38l-1 -10l-2 -11l-35 -206
h-59z" />
    <glyph glyph-name="partialdiff" unicode="&#x2202;" horiz-adv-x="534" 
d="M313 357q28 -21 45 -70q6 22 9 59q3 36 3 89q0 85 -16 126q-15 41 -47 41q-18 0 -50 -35q-31 -34 -56 -35q-17 0 -27 9q-8 6 -10 23q0 29 29 50q30 20 73 21q78 0 124 -72q46 -74 46 -196q0 -163 -64 -272q-64 -108 -158 -108q-68 0 -110 51q-40 49 -42 137q0 82 53 144
q52 60 125 61q44 0 73 -23zM319 317q-21 32 -63 32q-52 0 -87 -60q-31 -57 -33 -161q0 -57 22 -88q21 -31 62 -31q53 0 87 61q32 61 34 154q0 58 -22 93z" />
    <glyph glyph-name="product" unicode="&#x220f;" horiz-adv-x="890" 
d="M30 -176h88v880h-88v40h767v-40h-88v-880h88v-40h-264v40h84v880h-407v-880h84v-40h-264v40z" />
    <glyph glyph-name="summation" unicode="&#x2211;" horiz-adv-x="771" 
d="M592 729q17 -13 26 -86l15 -129h-44q-32 105 -85 144q-50 37 -169 39h-132l315 -431l-344 -394h187q122 0 172 31q51 32 83 117h45l-30 -130l-2 -7q-22 -98 -111 -99h-482l389 446l-375 514h460q66 0 82 -15z" />
    <glyph glyph-name="radical" unicode="&#x221a;" horiz-adv-x="594" 
d="M594 811v-47h-57l-290 -784h-32l-156 431l-61 -22l-12 39l138 48l125 -346l252 681h93z" />
    <glyph glyph-name="infinity" unicode="&#x221e;" horiz-adv-x="771" 
d="M430 144q-36 31 -64 94q-33 -62 -72 -94q-38 -30 -85 -30q-66 0 -110 53q-46 52 -46 131q0 83 41 134q40 50 105 52q47 0 83 -30q35 -29 65 -94q31 62 70 93q38 31 87 31q63 0 110 -53q45 -53 45 -131q0 -83 -40 -135q-41 -51 -105 -51q-46 0 -84 30zM257 205
q30 30 73 122q-26 46 -59 69q-33 24 -76 24q-51 0 -84 -35q-31 -33 -33 -90q0 -55 30 -89q29 -34 76 -34q40 0 73 33zM453 390q-33 -36 -70 -119q23 -45 58 -70q33 -21 77 -23q52 0 84 35q31 33 33 90q0 56 -30 89q-30 34 -80 34q-37 0 -72 -36z" />
    <glyph glyph-name="integral" unicode="&#x222b;" horiz-adv-x="296" 
d="M200 726q38 31 83 31q36 0 58 -19q21 -17 23 -48q0 -20 -13 -35q-11 -11 -36 -13q-29 0 -44 32t-29 32q-50 0 -57 -310q-2 -64 -3 -98q-5 -145 -16 -229q-12 -90 -31 -133q-24 -55 -62 -86q-39 -31 -82 -31q-35 0 -58 19q-21 17 -23 48q0 22 13 35q12 12 36 12
q29 0 44 -31t30 -32q47 0 57 324q0 14 0.5 43.5t1.5 40.5q5 140 15 227q12 88 32 135q24 55 61 86z" />
    <glyph glyph-name="approxequal" unicode="&#x2248;" horiz-adv-x="594" 
d="M102 153q-33 -14 -87 -53v77q49 31 86 44q34 12 75 14q44 0 115 -24q65 -22 99 -24q28 0 61 15q34 15 83 52v-78q-42 -28 -78 -42q-29 -11 -71 -13q-32 0 -104 24q-72 23 -116 23q-29 0 -63 -15zM104 273q-31 -13 -89 -54v77q48 31 84 43q40 14 76 14q42 0 116 -23
q71 -24 99 -24q27 0 61 14q32 15 83 52v-77q-35 -24 -79 -42q-37 -13 -70 -13t-104 24q-72 23 -111 23q-35 0 -66 -14z" />
    <glyph glyph-name="notequal" unicode="&#x2260;" horiz-adv-x="594" 
d="M488 410l-75 -74h91v-64h-149l-73 -72h222v-64h-281l-118 -118l-43 44l74 74h-91v64h150l73 72h-223v64h281l118 118z" />
    <glyph glyph-name="lessequal" unicode="&#x2264;" horiz-adv-x="594" 
d="M506 86v-68h-463v68h463zM506 388l-344 -108l344 -107v-70l-462 145v65l462 145v-70z" />
    <glyph glyph-name="greaterequal" unicode="&#x2265;" horiz-adv-x="594" 
d="M506 86v-68h-463v68h463zM506 313v-65l-463 -145v70l344 107l-344 108v70z" />
    <glyph glyph-name="lozenge" unicode="&#x25ca;" horiz-adv-x="534" 
d="M3 289l244 518l244 -518l-244 -522zM435 289l-188 399l-188 -399l188 -403z" />
    <glyph glyph-name="apple" unicode="&#xf8ff;" horiz-adv-x="854" 
d="M413 593q-3 0 -5 1q0 4 -1 7v11q0 61 47 112q45 51 115 64v-12q0 -9 1 -18q0 -64 -51 -115q-50 -50 -99 -50h-4h-3zM650 264q31 -44 85 -67q-56 -121 -100 -168q-46 -46 -100 -46q-25 0 -64 16t-60 16q-23 0 -64 -16t-62 -16q-30 0 -63 21q-32 24 -63 65q-47 65 -77 144
q-25 72 -27 147q0 107 61 174q62 68 158 68q35 0 76 -17q43 -17 60 -17q18 0 59 17q45 17 75 17q55 0 97 -19q43 -20 78 -61q-49 -31 -74 -71q-22 -36 -24 -89q0 -54 29 -98z" />
    <glyph glyph-name="fi" unicode="&#xfb01;" 
d="M279 222l-116 -117q-10 -10 -29 -10q-41 0 -41 41q0 21 11 29l117 117l-116 116q-11 9 -11 29q0 40 40 40q21 0 30 -11l116 -115l115 114q9 11 30 11q40 0 40 -39q0 -20 -11 -31l-116 -115l115 -115q11 -11 11 -30q0 -39 -39 -39q-20 0 -31 11z" />
    <glyph glyph-name="fl" unicode="&#xfb02;" horiz-adv-x="385" 
d="M160 624h-82q-21 0 -35.5 13.5t-14.5 33.5t15 35t36 15h138q21 0 36 -16t15 -38v-621q0 -23 -16 -39.5t-38 -16.5t-38 16t-16 39v579z" />
    </font>
</defs>
</svg>
